<svg width="20" height="19" viewBox="0 0 20 19" fill="none" xmlns="http://www.w3.org/2000/svg">
<path d="M8.92138 5.62762L7.07812 7.47088C6.39903 8.14998 5.71605 8.82907 5.04083 9.51593C4.88173 9.67891 4.76143 9.89622 4.71487 10.1097C4.47039 11.2311 4.23368 12.3526 3.99696 13.4741L3.86503 14.095C3.80294 14.3977 3.88443 14.7003 4.0901 14.906C4.2492 15.0651 4.47039 15.1544 4.70322 15.1544C4.76919 15.1544 4.83516 15.1466 4.90113 15.135L5.58411 14.9914C6.67066 14.7624 7.7611 14.5296 8.84765 14.3045C9.09989 14.2502 9.31332 14.1377 9.49571 13.9553C12.5458 10.9013 15.5959 7.85117 18.646 4.80494C18.8711 4.57987 18.9953 4.31211 19.0263 3.98226C19.0302 3.92794 19.0263 3.87361 19.0147 3.82316C18.9953 3.74555 18.9798 3.66406 18.9604 3.58645C18.9177 3.38854 18.8711 3.16347 18.778 2.94616C18.2075 1.64229 17.2607 0.71096 15.9646 0.187085C15.7046 0.0823104 15.4291 0.0473854 15.1885 0.016341L15.1225 0.00857992C14.7733 -0.0341061 14.4551 0.0823104 14.1795 0.36171C12.4333 2.11572 10.6754 3.87361 8.92138 5.62762ZM14.9944 0.943793C15.0022 0.943793 15.0061 0.943793 15.0139 0.943793L15.0798 0.951554C15.2816 0.974837 15.4679 0.998121 15.6153 1.06021C16.6708 1.48707 17.447 2.24766 17.9165 3.31869C17.9708 3.44287 18.0058 3.60197 18.0407 3.76883C18.0523 3.83092 18.0678 3.89301 18.0795 3.9551C18.064 4.02495 18.0368 4.07152 17.9825 4.12196C14.9285 7.1682 11.8784 10.2222 8.82825 13.2723C8.7778 13.3228 8.73124 13.346 8.66139 13.3616C7.57095 13.5905 6.4844 13.8195 5.39396 14.0484L4.81964 14.1687L4.9283 13.6604C5.16501 12.5428 5.40172 11.4213 5.64232 10.3037C5.65008 10.2688 5.68112 10.2144 5.71605 10.1756C6.39127 9.49265 7.06648 8.81355 7.74558 8.13834L9.58884 6.29507C11.3467 4.53718 13.1046 2.77929 14.8586 1.01752C14.9324 0.955435 14.9673 0.943793 14.9944 0.943793Z" fill="black"/>
<path d="M1.50953 4.23062H8.28498C8.54885 4.23062 8.76229 4.01719 8.76229 3.75331C8.76229 3.48943 8.54885 3.276 8.28498 3.276H1.50953C0.675216 3.276 0 3.9551 0 4.78554V17.4905C0 18.3248 0.679097 19 1.50953 19H14.2106C15.0449 19 15.7201 18.3209 15.7201 17.4905V10.9905C15.7201 10.7267 15.5067 10.5132 15.2428 10.5132C14.9789 10.5132 14.7655 10.7267 14.7655 10.9905V17.4905C14.7655 17.797 14.5133 18.0493 14.2067 18.0493H1.50953C1.20297 18.0493 0.950735 17.797 0.950735 17.4905V4.78942C0.950735 4.48285 1.20297 4.23062 1.50953 4.23062Z" fill="black"/>
</svg>
