<svg width="186" height="189" viewBox="0 0 186 189" fill="none" xmlns="http://www.w3.org/2000/svg">
<path d="M102.939 189C57.2709 189 20.2498 146.691 20.2498 94.4996C20.2498 42.309 57.2709 0 102.939 0C148.606 0 185.63 42.309 185.63 94.4996C185.63 146.691 148.606 189 102.939 189Z" fill="#FDC72F"/>
<path d="M20.2498 94.4996C20.2498 46.2302 51.9246 6.43936 92.8139 0.732308C89.4926 0.266037 86.1176 0 82.6887 0C37.0211 0 0 42.309 0 94.4996C0 146.691 37.0218 189 82.6894 189C86.1183 189 89.4933 188.733 92.8146 188.271C51.9246 182.561 20.2498 142.769 20.2498 94.4996Z" fill="#E3AF24"/>
<path d="M20.247 97.8796H0.00286865C0.0700872 100.15 0.198864 102.402 0.404057 104.629H20.6651C20.4557 102.404 20.3142 100.153 20.247 97.8796Z" fill="#CD9A2B"/>
<path d="M21.0168 81.0032H0.779739C0.498836 83.2278 0.300011 85.4813 0.154961 87.7532H20.4026C20.5476 85.4855 20.7429 83.2306 21.0168 81.0032Z" fill="#CD9A2B"/>
<path d="M22.1029 114.753H1.84886C2.28755 117.035 2.79346 119.287 3.37083 121.504H23.6185C23.0411 119.29 22.538 117.038 22.1029 114.753Z" fill="#CD9A2B"/>
<path d="M26.8251 131.628H6.56123C7.42234 133.932 8.37047 136.176 9.38583 138.379H29.6434C28.6273 136.181 27.6855 133.931 26.8251 131.628Z" fill="#CD9A2B"/>
<path d="M24.5468 64.1283H4.3126C3.6581 66.3457 3.04394 68.5908 2.53095 70.879H22.8055C23.3142 68.6007 23.8888 66.3415 24.5468 64.1283Z" fill="#CD9A2B"/>
<path d="M31.2665 47.2555H11.0125C9.90236 49.4538 8.85233 51.7017 7.89359 54.0069H28.1575C29.1162 51.7017 30.1528 49.4496 31.2665 47.2555Z" fill="#CD9A2B"/>
<path d="M45.04 27.0056H24.7661C22.8451 29.1522 21.0196 31.4044 19.2917 33.7569H39.5592C41.287 31.4044 43.1161 29.153 45.04 27.0056Z" fill="#CD9A2B"/>
<path d="M65.6753 10.1285H45.3782C41.9316 12.1202 38.6202 14.3738 35.468 16.8792H55.7489C58.9046 14.3773 62.2196 12.1224 65.6753 10.1285Z" fill="#CD9A2B"/>
<path d="M37.1895 151.88H16.9327C18.4985 154.217 20.1528 156.468 21.9041 158.628H42.1786C40.4231 156.468 38.7625 154.216 37.1895 151.88Z" fill="#CD9A2B"/>
<path d="M31.5029 168.753C34.2128 171.193 37.0544 173.461 40.0212 175.502H60.3233C57.336 173.454 54.4711 171.203 51.7441 168.753H31.5029Z" fill="#CD9A2B"/>
<path d="M103.226 170.518H102.939C100.577 170.518 98.1978 170.377 95.8692 170.1C94.0196 169.878 92.6929 168.2 92.9201 166.345C93.1351 164.496 94.7654 163.209 96.6694 163.396C98.727 163.642 100.841 163.768 102.938 163.768C104.802 163.768 106.454 165.281 106.454 167.143C106.456 169.006 105.094 170.518 103.226 170.518ZM122.857 166.884C121.493 166.884 120.207 166.049 119.694 164.697C119.034 162.955 119.92 161.007 121.66 160.349C123.611 159.614 125.55 158.753 127.42 157.793C129.083 156.938 131.111 157.596 131.968 159.253C132.82 160.909 132.167 162.945 130.502 163.794C128.409 164.876 126.235 165.839 124.042 166.664C123.653 166.811 123.251 166.884 122.857 166.884ZM77.1746 164.305C76.6581 164.305 76.1345 164.187 75.6484 163.937C73.5632 162.881 71.5078 161.689 69.5429 160.4C67.9806 159.381 67.5454 157.289 68.5678 155.728C69.5938 154.173 71.6797 153.734 73.242 154.758C75.001 155.907 76.8371 156.974 78.703 157.918C80.3672 158.762 81.0245 160.794 80.1811 162.455C79.5903 163.629 78.4051 164.305 77.1746 164.305ZM145.053 152.298C144.189 152.298 143.333 151.973 142.678 151.325C141.351 150.012 141.339 147.875 142.648 146.549C144.124 145.064 145.543 143.468 146.897 141.815C148.072 140.37 150.194 140.15 151.64 141.326C153.091 142.503 153.304 144.63 152.132 146.075C150.647 147.898 149.071 149.656 147.451 151.295C146.789 151.963 145.919 152.298 145.053 152.298ZM56.5562 147.548C55.5777 147.548 54.6119 147.126 53.9475 146.312C52.4885 144.541 51.0847 142.652 49.7679 140.697C48.7214 139.155 49.1268 137.055 50.67 136.008C52.2182 134.969 54.3111 135.374 55.3605 136.919C56.5626 138.699 57.844 140.424 59.1707 142.036C60.3488 143.479 60.1429 145.604 58.6945 146.786C58.0683 147.299 57.3084 147.548 56.5562 147.548ZM159.877 130.204C159.428 130.204 158.971 130.113 158.53 129.924C156.822 129.178 156.042 127.192 156.786 125.479C157.635 123.536 158.403 121.524 159.089 119.509C159.686 117.744 161.598 116.796 163.367 117.386C165.13 117.984 166.081 119.897 165.487 121.663C164.741 123.863 163.899 126.052 162.979 128.176C162.419 129.445 161.179 130.204 159.877 130.204ZM43.6899 124.244C42.2861 124.244 40.9693 123.36 40.4946 121.956C39.7481 119.768 39.083 117.515 38.519 115.266C38.0747 113.458 39.1735 111.627 40.9799 111.18C42.7856 110.722 44.6182 111.828 45.0739 113.637C45.5841 115.699 46.194 117.768 46.8796 119.78C47.4867 121.538 46.5386 123.463 44.7767 124.063C44.4194 124.183 44.0515 124.244 43.6899 124.244ZM166.26 104.337C166.179 104.337 166.084 104.335 165.995 104.327C164.138 104.187 162.746 102.563 162.891 100.703C163.054 98.6671 163.127 96.5819 163.127 94.4989C163.127 92.6367 164.639 91.0129 166.502 91.0129C168.37 91.0129 169.877 92.4131 169.877 94.281V94.4996C169.877 96.7588 169.793 99.0201 169.622 101.223C169.482 102.996 168.009 104.337 166.26 104.337ZM39.3731 97.9128C37.5101 97.9128 35.9973 96.4411 35.9973 94.5782V94.4996C35.9973 92.2213 36.0921 89.9098 36.2718 87.6287C36.4126 85.7685 38.074 84.4044 39.8995 84.5296C41.7554 84.674 43.1458 86.2992 43.0007 88.1579C42.8352 90.2643 42.7481 92.3968 42.7481 94.4996C42.7489 96.3626 41.2396 97.9128 39.3731 97.9128ZM164.042 77.7825C162.533 77.7825 161.153 76.7643 160.767 75.2318C160.254 73.1693 159.638 71.1047 158.944 69.0931C158.341 67.3278 159.288 65.4075 161.041 64.8033C162.827 64.1927 164.728 65.138 165.334 66.899C166.084 69.0903 166.752 71.3403 167.315 73.5853C167.767 75.3952 166.672 77.2271 164.859 77.6792C164.586 77.7535 164.312 77.7825 164.042 77.7825ZM43.6432 71.6552C43.2852 71.6552 42.9173 71.5936 42.5628 71.4719C40.7939 70.8747 39.85 68.9566 40.45 67.1927C41.1958 64.9851 42.0462 62.7953 42.9746 60.6826C43.7267 58.9752 45.7015 58.1913 47.4159 58.9477C49.1247 59.6969 49.9037 61.688 49.158 63.3924C48.3075 65.3304 47.527 67.337 46.8393 69.3592C46.3631 70.7672 45.0506 71.6552 43.6432 71.6552ZM153.24 53.45C152.158 53.45 151.09 52.93 150.441 51.9677C149.25 50.213 147.968 48.4951 146.623 46.8628C145.438 45.4251 145.648 43.2954 147.086 42.1109C148.529 40.9286 150.65 41.1345 151.839 42.5722C153.313 44.3673 154.72 46.2578 156.03 48.181C157.074 49.7276 156.666 51.8227 155.123 52.8691C154.546 53.2604 153.889 53.45 153.24 53.45ZM56.4621 48.3196C55.7093 48.3196 54.9564 48.0734 54.3253 47.5597C52.8805 46.3795 52.6717 44.2555 53.8498 42.8121C55.3307 40.9972 56.9107 39.2418 58.5374 37.601C59.857 36.2751 61.9903 36.2716 63.3099 37.5812C64.6394 38.8937 64.6472 41.0305 63.3305 42.3543C61.8559 43.8416 60.4287 45.435 59.0745 47.0828C58.4086 47.8972 57.4365 48.3196 56.4621 48.3196ZM134.365 34.7185C133.732 34.7185 133.092 34.5395 132.522 34.1716C130.756 33.0176 128.917 31.9577 127.055 31.023C125.394 30.1853 124.725 28.1511 125.566 26.4862C126.402 24.8221 128.425 24.1506 130.094 24.9954C132.175 26.0419 134.236 27.2299 136.214 28.519C137.775 29.5343 138.218 31.6265 137.199 33.1895C136.546 34.1786 135.467 34.7185 134.365 34.7185ZM77.0459 31.5162C75.814 31.5162 74.6317 30.844 74.0316 29.6758C73.1875 28.0117 73.8427 25.981 75.5034 25.1334C77.6126 24.0601 79.7898 23.095 81.9733 22.282C83.7345 21.624 85.6661 22.5148 86.3213 24.2589C86.9723 26.0037 86.0843 27.9466 84.343 28.6018C82.3958 29.3327 80.4507 30.1853 78.5784 31.144C78.0853 31.3937 77.5624 31.5162 77.0459 31.5162ZM109.468 25.6096C109.342 25.6096 109.21 25.6032 109.079 25.5855C107.045 25.3499 104.983 25.2317 102.939 25.2317C101.078 25.2317 99.494 23.719 99.494 21.8568C99.494 19.9938 100.931 18.4811 102.796 18.4811H102.939C105.237 18.4811 107.567 18.6155 109.853 18.8822C111.703 19.0952 113.03 20.7728 112.816 22.6216C112.62 24.3438 111.162 25.6096 109.468 25.6096Z" fill="#FFD94A"/>
<path d="M101.477 119.193L102.688 119.58C102.688 119.58 109.299 119.193 112.602 119.385C115.881 119.58 117.751 120.653 117.751 121.23C117.751 121.838 116.926 123.132 115.963 123.132C114.917 123.132 113.238 122.939 110.593 122.939C107.84 122.939 106.874 122.719 105.856 122.719C104.838 122.719 104.977 122.939 103.543 122.114C102.056 121.26 101.064 121.533 101.064 121.533C101.064 121.533 101.835 123.105 104.563 123.546C107.261 123.931 107.644 124.536 108.637 125.39C109.711 126.189 111.116 126.437 112.63 126.437C114.063 126.437 115.358 126.629 116.156 125.83C116.954 125.032 117.175 122.966 118.249 122.719C119.184 122.444 120.341 121.81 120.341 120.846C120.341 119.799 120.562 118.754 120.562 118.754C117.478 118.313 114.641 117.735 110.51 117.735C106.38 117.734 101.477 119.193 101.477 119.193Z" fill="#CD9A2B"/>
<path d="M67.9891 82.5393C70.4401 85.8436 67.5475 85.4579 65.4553 90.4426C63.4168 95.4004 66.7777 96.1716 68.3471 99.5586C70.0544 102.863 72.0087 107.407 73.3043 108.646C74.5425 109.831 73.7168 113.163 75.3972 116.081C77.0777 118.945 79.9412 120.239 79.9412 120.239L79.3631 129.714C79.3631 129.714 77.4421 135.785 74.8298 141.858C74.1809 143.365 73.4904 144.871 72.7743 146.285C73.0672 146.337 73.3623 146.392 73.651 146.44C78.5254 147.22 83.5031 147.307 88.4284 147.154C97.0232 146.888 105.558 145.879 114.1 144.961C116.856 144.665 119.617 144.448 122.379 144.248C121.99 143.497 121.717 142.865 121.717 142.547C121.717 141.28 120.451 140.095 122.903 136.708C125.409 133.459 125.767 129.549 125.767 122.939C125.767 116.385 127.309 112.64 130.338 106.14C133.449 99.4489 132.404 95.3735 134.469 92.0685C136.48 88.7629 134.469 82.54 134.882 80.0346C135.351 77.6106 135.351 76.3724 137.389 74.3056C139.509 72.2127 135.351 66.4851 134.937 62.3C134.524 58.1694 131.247 59.8215 129.567 59.3814C127.888 58.9958 124.584 54.8637 123.757 49.4666C122.957 44.1239 117.175 45.3359 113.015 43.6831C108.857 42.0317 101.835 42.4166 98.1461 44.1239C94.3982 45.8305 91.9203 47.4288 85.7234 48.2276C79.528 49.1078 74.1562 59.3814 74.5425 62.7132C74.9557 66.0719 69.1997 71.3587 65.0689 74.3056C60.9389 77.2242 65.4553 79.2365 67.9891 82.5393ZM101.835 49.4934C105.388 46.5734 113.813 48.8878 113.813 48.8878C113.813 48.8878 109.49 44.9772 110.097 44.9772C110.705 44.9772 116.762 44.9772 119.211 49.2734C121.718 53.6248 124.39 55.5253 122.904 58.1962C122.904 58.1962 120.205 62.5745 114.254 61.5557C108.225 60.454 109.905 60.2609 107.233 60.0408C104.564 59.8491 102.057 60.454 102.057 60.454L106.214 57.9755C106.214 57.9755 102.057 57.9755 100.403 59.022C98.7773 60.0125 96.0524 63.759 96.0524 63.759C96.0524 63.759 98.3648 52.4128 101.835 49.4934ZM83.8788 112.723C85.3109 110.272 86.9369 108.811 88.4242 109.5C89.8556 110.078 92.5535 111.097 92.5535 111.097C92.5535 111.097 86.1367 100.164 87.3763 97.8796C88.6152 95.6204 88.3952 92.3148 90.9014 92.0954C93.3793 91.9037 95.1984 88.5987 93.1868 85.6801C91.0931 82.8153 89.8266 81.3273 89.2754 77.8306C88.6421 74.3049 87.4032 70.5875 89.2754 68.9346C91.0931 67.2556 91.7271 65.6028 91.7271 65.6028C91.7271 65.6028 92.5528 67.8599 94.2333 69.7611C95.8579 71.5795 97.7308 72.4335 97.7308 72.4335C97.7308 72.4335 97.2907 66.65 101.037 66.0429C104.78 65.3821 115.109 68.9071 122.682 65.6028C122.682 65.6028 130.557 72.6252 130.173 80.4726C130.035 83.2554 129.869 86.036 129.705 88.5428C129.347 88.3759 128.961 88.2393 128.52 88.1848C127.53 87.9358 126.648 87.9358 124.584 87.9358C122.571 87.9358 120.866 88.3752 118.44 89.203C116.541 89.8079 116.898 91.0483 117.202 91.6256C116.625 92.2879 116.21 93.1129 117.147 93.5522C118.798 94.3518 120.866 95.8129 121.745 96.0598C122.544 96.1963 122.709 97.0504 124.443 96.0598C126.041 94.9581 125.655 95.3989 127.088 95.2334C128.52 94.9581 128.133 94.765 128.961 94.765C128.961 94.765 129.208 94.765 129.374 94.765C129.346 96.0598 129.346 96.94 129.374 97.2994C129.565 98.29 129.923 105.121 127.032 109.278C124.169 113.41 122.765 122.47 122.955 125.389C123.147 128.226 120.865 134.888 118.439 135.633C115.934 136.432 107.643 137.148 104.947 136.294C102.273 135.523 98.5572 134.422 96.2697 132.165C93.9849 129.961 90.7337 127.483 90.7337 127.483V129.548C90.7337 129.548 86.9624 125.004 85.9145 122.278C84.8977 119.551 82.4184 115.256 83.8788 112.723Z" fill="#CD9A2B"/>
<path d="M97.4832 91.6546C97.4832 91.6546 98.3648 93.1143 100.789 93.7751C103.35 94.3532 103.543 93.7751 105.166 93.5268C106.848 93.2791 107.674 92.2886 108.665 92.4527C109.739 92.6728 110.536 94.518 110.536 94.518C110.536 94.518 111.363 104.048 111.557 105.507C111.748 106.937 110.922 109.664 110.922 109.664C110.922 109.664 110.097 109.664 108.252 109.223C106.435 108.81 107.675 105.865 107.675 105.865C107.675 105.865 106.599 107.572 106.435 108.81C106.214 110.077 108.474 111.95 109.491 111.95C110.537 111.95 111.145 112.584 114.283 112.722C117.367 112.998 117.367 112.584 119.02 111.068C120.7 109.692 119.433 107.572 119.433 107.572C119.433 107.572 118.607 108.81 117.751 109.004C116.926 109.251 115.963 109.251 114.448 108.81C113.016 108.399 112.768 104.516 112.768 103.276C112.768 102.036 111.998 92.0954 111.777 90.0839C111.586 87.9641 110.565 88.9836 108.28 88.2124C105.995 87.3308 103.901 86.9438 100.79 87.5501C97.7598 88.1841 95.0322 91.0482 95.0322 91.0482C96.2711 90.664 97.4832 91.6546 97.4832 91.6546Z" fill="#CD9A2B"/>
<path d="M58.086 32.6963C58.6627 32.6093 59.3823 32.3348 59.9653 31.8416C60.8314 31.1093 60.9502 30.2242 60.3913 29.5626C59.8726 28.9499 59.2266 28.8961 58.0535 29.3037C56.6624 29.8294 55.5324 29.8343 54.7506 28.9103C53.8866 27.8893 54.0911 26.4148 55.3654 25.3365C56.0369 24.769 56.6546 24.5129 57.0862 24.4315L57.4372 25.3195C57.1244 25.3839 56.5223 25.5593 55.9287 26.061C55.0336 26.8181 55.1461 27.6409 55.5239 28.0881C56.0426 28.7008 56.6964 28.6647 57.8971 28.2501C59.3681 27.7407 60.3849 27.798 61.1993 28.7617C62.0547 29.7735 62.0462 31.282 60.4995 32.5902C59.8669 33.1244 59.02 33.5242 58.4723 33.5871L58.086 32.6963Z" fill="#CD9A2B"/>
<path d="M58.819 22.8431C59.2011 22.4582 59.7247 21.9862 60.4478 21.4648C61.3365 20.8244 62.1368 20.5612 62.8182 20.6355C63.4387 20.6907 64.031 21.0332 64.4781 21.653C64.9324 22.2834 65.1043 22.9131 65.0138 23.528C64.9034 24.377 64.3147 25.1935 63.4366 25.8275C63.1677 26.0207 62.9123 26.1898 62.6689 26.2867L64.6805 29.0758L63.7812 29.7239L58.819 22.8431ZM62.1389 25.5523C62.3724 25.4624 62.6356 25.3039 62.9349 25.0881C64.0196 24.3063 64.3012 23.3023 63.6085 22.3414C62.9456 21.4216 61.9741 21.4464 60.9828 22.1617C60.5901 22.4447 60.3127 22.6924 60.1875 22.8452L62.1389 25.5523Z" fill="#CD9A2B"/>
<path d="M65.5593 18.0926L70.1584 25.34L69.2231 25.9336L64.6239 18.6862L65.5593 18.0926Z" fill="#CD9A2B"/>
<path d="M67.5186 16.8778L68.4865 16.3379L72.2175 23.0207L75.4199 21.2327L75.8735 22.0443L71.7031 24.3721L67.5186 16.8778Z" fill="#CD9A2B"/>
<path d="M73.2413 13.7837L74.246 13.3167L77.4711 20.2591L80.7981 18.7138L81.1893 19.5572L76.8569 21.5695L73.2413 13.7837Z" fill="#CD9A2B"/>
<path d="M83.1988 10.6408L80.7309 11.4933L80.4231 10.6025L86.4303 8.52873L86.7381 9.41953L84.2588 10.2757L86.7522 17.4983L85.693 17.8641L83.1988 10.6408Z" fill="#CD9A2B"/>
<path d="M88.974 7.82898L89.845 11.3115L93.871 10.3054L93.0007 6.82214L94.0875 6.55045L96.1685 14.8747L95.0817 15.1464L94.1059 11.2436L90.0799 12.2497L91.0556 16.1525L89.9808 16.4214L87.8999 8.09643L88.974 7.82898Z" fill="#CD9A2B"/>
<path d="M101.629 9.87943L98.3365 10.4172L98.8353 13.4709L102.505 12.8716L102.655 13.7886L97.8921 14.5662L96.5102 6.09619L101.085 5.34973L101.234 6.26671L97.7527 6.83487L98.1893 9.51151L101.482 8.97377L101.629 9.87943Z" fill="#CD9A2B"/>
<path d="M108.203 6.40539L105.611 6.09548L105.723 5.16011L112.031 5.91435L111.92 6.84973L109.316 6.53841L108.409 14.124L107.297 13.991L108.203 6.40539Z" fill="#CD9A2B"/>
<path d="M113.47 6.29857C114.042 6.29857 114.841 6.39692 115.59 6.54904C116.751 6.78607 117.457 7.15116 117.884 7.73205C118.232 8.19337 118.351 8.81601 118.22 9.46483C117.993 10.5757 117.143 11.1693 116.197 11.2882L116.188 11.3257C116.791 11.683 117.056 12.3608 117.077 13.275C117.113 14.504 117.146 15.3566 117.255 15.7167L116.132 15.4875C116.043 15.2221 116.003 14.4601 115.98 13.3634C115.967 12.1521 115.608 11.6236 114.63 11.3844L113.606 11.1757L112.862 14.8195L111.776 14.5981L113.47 6.29857ZM113.774 10.3514L114.885 10.5785C116.046 10.8155 116.911 10.3287 117.107 9.3686C117.33 8.28252 116.64 7.64786 115.495 7.40092C114.971 7.29408 114.586 7.2672 114.4 7.28206L113.774 10.3514Z" fill="#CD9A2B"/>
<path d="M121.799 8.06318L120.356 12.9353C119.81 14.7792 120.396 15.803 121.494 16.1285C122.716 16.49 123.736 15.9162 124.275 14.0964L125.718 9.22426L126.793 9.54265L125.371 14.3419C124.623 16.8693 122.984 17.5131 121.201 16.9846C119.517 16.4858 118.532 15.145 119.287 12.5929L120.723 7.74478L121.799 8.06318Z" fill="#CD9A2B"/>
<path d="M130.303 11.8549L127.871 10.9033L128.215 10.0252L134.135 12.3417L133.792 13.2198L131.348 12.2632L128.561 19.3825L127.518 18.9735L130.303 11.8549Z" fill="#CD9A2B"/>
<path d="M136.519 13.4448L134.922 16.6627L138.642 18.5101L140.24 15.2922L141.245 15.791L137.425 23.4827L136.42 22.9839L138.211 19.3775L134.491 17.5294L132.7 21.1358L131.707 20.6426L135.527 12.9509L136.519 13.4448Z" fill="#CD9A2B"/>
<path d="M70.4408 176.652C69.9886 176.595 69.1976 176.312 68.3294 175.733C66.3171 174.388 65.6513 172.107 67.2143 169.765C68.7065 167.531 71.2325 167.028 73.4458 168.505C74.3352 169.1 74.7696 169.665 74.9281 169.955L74.2036 170.559C73.9673 170.156 73.554 169.697 72.9611 169.301C71.2877 168.184 69.4615 168.511 68.2098 170.385C67.043 172.133 67.2992 173.927 69.0362 175.087C69.5973 175.462 70.2469 175.727 70.7379 175.794L70.4408 176.652Z" fill="#CD9A2B"/>
<path d="M75.9944 170.249L76.9723 170.77L73.3715 177.524L76.6086 179.25L76.1713 180.071L71.9564 177.824L75.9944 170.249Z" fill="#CD9A2B"/>
<path d="M82.1665 173.314L78.6881 181.166L77.6749 180.717L81.1533 172.865L82.1665 173.314Z" fill="#CD9A2B"/>
<path d="M86.6716 183.798C86.2202 183.86 85.3831 183.791 84.3939 183.456C82.1028 182.678 80.8689 180.646 81.7731 177.981C82.6363 175.436 84.9458 174.297 87.4669 175.153C88.4801 175.496 89.0455 175.93 89.2733 176.169L88.7292 176.939C88.3966 176.612 87.8787 176.275 87.2037 176.045C85.2982 175.399 83.6184 176.187 82.8946 178.322C82.2196 180.312 82.9314 181.979 84.909 182.649C85.548 182.866 86.2442 182.955 86.736 182.893L86.6716 183.798Z" fill="#CD9A2B"/>
<path d="M90.3006 176.147L91.3875 176.361L90.5837 180.421L90.6212 180.428C90.9106 180.148 91.195 179.893 91.4618 179.66L94.6607 177.009L96.01 177.276L92.2542 180.246L94.58 185.742L93.2936 185.488L91.3386 180.805L90.3565 181.571L89.7212 184.781L88.6343 184.566L90.3006 176.147Z" fill="#CD9A2B"/>
<path d="M102.918 178.497L100.308 178.565L100.284 177.623L106.636 177.457L106.66 178.398L104.039 178.467L104.239 186.105L103.119 186.134L102.918 178.497Z" fill="#CD9A2B"/>
<path d="M114.737 180.521C115.168 183.445 113.62 185.256 111.453 185.576C109.21 185.907 107.378 184.4 107 181.83C106.602 179.133 108.018 177.123 110.286 176.788C112.604 176.446 114.366 178.003 114.737 180.521ZM108.168 181.632C108.436 183.445 109.657 184.926 111.384 184.672C113.123 184.416 113.87 182.67 113.586 180.743C113.336 179.055 112.195 177.42 110.368 177.69C108.554 177.958 107.894 179.767 108.168 181.632Z" fill="#CD9A2B"/>
<path d="M120.094 174.664L124.441 173.092L124.756 173.966L121.452 175.16L122.421 177.843L125.474 176.738L125.786 177.601L122.733 178.705L124.053 182.356L123.011 182.733L120.094 174.664Z" fill="#CD9A2B"/>
<path d="M125.624 172.573L126.629 172.105L129.866 179.041L133.19 177.49L133.584 178.332L129.256 180.352L125.624 172.573Z" fill="#CD9A2B"/>
<path d="M131.82 169.497L135.932 177.028L134.96 177.559L130.848 170.027L131.82 169.497Z" fill="#CD9A2B"/>
<path d="M133.394 168.754C133.798 168.391 134.349 167.951 135.101 167.474C136.026 166.887 136.84 166.673 137.516 166.786C138.132 166.878 138.703 167.254 139.112 167.9C139.529 168.556 139.662 169.194 139.536 169.803C139.375 170.643 138.74 171.424 137.826 172.003C137.545 172.182 137.281 172.334 137.032 172.417L138.874 175.32L137.939 175.915L133.394 168.754ZM136.547 171.655C136.785 171.58 137.058 171.437 137.369 171.239C138.498 170.522 138.838 169.538 138.204 168.538C137.597 167.58 136.626 167.549 135.594 168.203C135.186 168.462 134.894 168.692 134.76 168.837L136.547 171.655Z" fill="#CD9A2B"/>
</svg>
