<svg width="247" height="280" viewBox="0 0 247 280" fill="none" xmlns="http://www.w3.org/2000/svg">
<path fill-rule="evenodd" clip-rule="evenodd" d="M40.1923 203.096C36.7279 201.349 33.7469 199.62 32.4464 195.834C31.449 192.929 32.7241 189.13 36.0797 188.424C36.822 188.268 37.4899 187.753 38.5876 187.207C37.7093 186.966 37.1725 186.755 36.6169 186.675C31.247 185.9 29.4199 181.732 32.4424 177.128C33.2333 175.923 34.0069 174.707 34.7929 173.499C36.6405 170.658 35.9709 168.223 32.8356 166.947C30.0048 165.795 27.0715 164.899 24.2395 163.75C22.666 163.112 21.0159 162.421 19.7309 161.352C15.8613 158.131 15.984 153.776 19.7666 149.034C23.7147 144.083 27.8143 139.234 31.4401 134.051C34.9115 129.088 36.7886 123.311 37.3883 117.291C37.9812 111.339 37.9763 105.329 38.362 99.3529C38.8556 91.709 40.071 84.1679 42.1072 76.782C44.0253 69.8251 46.5417 63.0952 49.9173 56.7046C54.3505 48.3117 59.6254 40.5745 66.143 33.614C72.8932 26.4044 80.5161 20.3687 89.2442 16.0238C96.7614 12.2815 104.633 9.10727 112.614 6.5092C119.331 4.3226 126.367 2.99125 133.562 3.11824C139.495 3.22279 145.474 2.69689 151.355 3.26362C157.983 3.9026 164.441 5.66336 170.824 7.79702C180.876 11.157 190.087 16.0512 198.483 22.3938C206.826 28.696 213.444 36.6891 218.907 45.6378C224.812 55.3108 228.764 65.761 231.428 76.7672C233.471 85.208 233.1 93.7731 233.201 102.334C233.353 115.107 230.474 127.167 224.587 138.419C220.779 145.697 216.322 152.628 212.416 159.856C206.886 170.09 203.123 181.041 200.283 192.305C198.037 201.212 197.777 210.375 198.54 219.403C199.644 232.482 203.428 244.964 210.003 256.372C213.314 262.116 217.37 267.423 221.028 272.969C221.492 273.673 222.012 274.842 221.734 275.411C221.394 276.106 220.237 276.395 219.429 276.853C219.373 276.885 219.283 276.857 219.209 276.858C207.282 277.007 195.355 277.175 183.427 277.302C167.711 277.469 151.993 277.584 136.277 277.77C132.38 277.817 128.485 278.097 124.587 278.189C121.811 278.254 121.304 277.648 120.814 274.847C118.954 264.238 116.618 253.743 111.835 244.018C110.691 241.692 108.844 239.662 107.071 237.728C106.385 236.98 104.948 236.416 103.953 236.547C97.0668 237.451 90.2099 238.585 83.3366 239.595C76.9563 240.532 70.5752 241.469 64.1798 242.291C56.3443 243.298 49.3653 241.396 43.8594 235.469C40.0866 231.407 38.4481 226.343 37.8988 220.885C37.3521 215.451 38.7584 210.269 39.8998 205.052C40.0371 204.42 40.0933 203.769 40.1923 203.096ZM210.731 123.808C212.406 123.808 213.905 123.959 215.361 123.772C217.581 123.487 218.191 121.5 218.918 119.794C220.075 117.081 220.618 114.081 223.59 112.427C224.413 111.969 225.091 110.443 225.081 109.414C225.037 104.947 224.777 100.478 224.465 96.019C224.308 93.7893 223.728 91.5874 223.612 89.3578C223.546 88.0919 224.324 86.7696 224.212 85.519C223.871 81.7291 223.209 77.9693 222.805 74.1835C222.314 69.5756 220.427 65.9553 216.163 63.8145C215.88 63.6727 215.593 63.1378 215.626 62.8197C216.121 58.0776 215.519 53.5671 213.143 49.3528C212.558 48.3149 212.553 46.6147 211.735 46.0982C208.195 43.8672 204.508 41.8498 200.755 40.0001C199.461 39.3621 198.61 38.7383 197.887 37.4128C196.267 34.4455 195.698 30.8239 192.756 28.6503C192.001 28.093 190.928 27.7748 190.467 27.0475C188.69 24.2439 186.067 23.7817 183.075 23.7319C181.213 23.7014 179.045 23.6973 177.569 22.7793C174.901 21.119 172.518 18.9167 170.261 16.6888C168.359 14.8109 166.4 13.5689 163.65 13.9009C161.213 14.1948 158.754 14.3286 156.329 14.6969C154.977 14.9029 153.622 15.8721 152.364 15.7164C151.035 15.5522 149.81 14.4757 148.556 13.7708C145.056 11.8027 141.238 10.6257 137.303 10.8604C132.203 11.1646 127.578 13.0511 123.879 16.8459C123.386 17.352 122.24 17.9587 121.877 17.7339C118.551 15.6747 114.932 16.8109 111.465 16.674C109.863 16.6107 108.125 17.0698 106.635 17.7222C102.507 19.5305 99.5867 22.5109 97.9946 26.9057C97.4868 28.3075 96.0966 29.6904 94.7541 30.3922C93.4892 31.0536 91.7499 30.7655 90.2291 30.9706C87.6391 31.3197 84.7018 31.0751 82.5532 32.2607C79.1005 34.1659 76.2086 37.013 75.2902 41.2992C74.8069 43.5553 74.0471 45.676 71.1834 46.1494C69.5239 46.4235 67.6067 46.8785 66.4167 47.9438C62.4022 51.538 59.6495 55.9337 59.2402 61.5615C59.1751 62.4589 58.558 63.5035 57.879 64.1349C55.4201 66.4224 54.2377 69.2857 53.4752 72.4815C52.2839 77.4744 52.1675 82.5242 52.6736 87.5647C52.9531 90.3512 53.7628 93.1028 54.5301 95.8135C54.9372 97.2516 55.4259 99.2883 56.4741 99.7887C58.4733 100.742 58.2205 102.158 58.4515 103.74C58.756 105.828 59.7115 107.568 61.6928 108.684C62.3193 109.038 62.8209 109.984 62.9814 110.745C63.8798 114.999 68.753 118.616 72.5085 117.929C75.0766 117.46 77.7009 117.345 79.9427 119.238C80.4809 119.693 81.1808 119.983 81.8465 120.248C85.7549 121.805 89.4248 120.244 92.7852 118.734C95.0542 117.714 96.5861 118.274 98.205 119.314C100.981 121.096 104.055 121.645 107.214 122.061C110.669 122.515 114.116 123.04 117.566 123.539C117.985 123.599 118.427 123.83 118.811 123.749C123.477 122.772 128.123 121.692 132.8 120.777C134.164 120.509 135.831 120.21 136.969 120.753C138.702 121.579 140.101 123.118 141.63 124.369C143.782 126.127 145.698 128.357 148.118 129.568C153.01 132.014 156.898 135.558 160.634 139.409C161.428 140.227 162.617 140.641 163.51 141.381C164.518 142.216 165.476 143.144 166.311 144.152C167.135 145.146 167.68 146.377 168.523 147.351C169.728 148.746 171.465 149.796 172.316 151.358C174.357 155.107 179.402 157.021 183.153 155.104C185.415 153.948 186.178 151.841 184.882 149.618C183.988 148.085 182.632 146.829 181.682 145.322C180.454 143.373 179.444 141.287 178.304 139.281C177.302 137.515 178.119 136.292 180.098 135.9C182.103 135.502 184.613 135.141 185.82 133.787C187.96 131.385 190.352 131.395 193.01 131.472C193.826 131.496 194.645 131.447 195.461 131.481C197.856 131.578 199.877 130.804 201.533 129.024C201.963 128.561 202.584 127.929 203.096 127.948C206.508 128.079 208.597 125.882 210.731 123.808Z" fill="white" stroke="black" stroke-width="0.225" stroke-miterlimit="10"/>
<path fill-rule="evenodd" clip-rule="evenodd" d="M210.731 123.808C208.597 125.882 206.508 128.079 203.095 127.947C202.583 127.928 201.962 128.559 201.532 129.022C199.876 130.803 197.855 131.576 195.46 131.48C194.644 131.447 193.825 131.495 193.009 131.471C190.351 131.394 187.959 131.384 185.819 133.785C184.612 135.139 182.102 135.501 180.098 135.898C178.118 136.291 177.301 137.515 178.303 139.279C179.443 141.286 180.453 143.372 181.681 145.32C182.631 146.828 183.987 148.083 184.882 149.617C186.177 151.84 185.414 153.946 183.152 155.102C179.401 157.019 174.356 155.106 172.315 151.357C171.464 149.796 169.727 148.745 168.522 147.35C167.679 146.375 167.134 145.145 166.31 144.151C165.475 143.142 164.517 142.215 163.509 141.38C162.616 140.64 161.427 140.226 160.633 139.408C156.897 135.557 153.009 132.013 148.117 129.566C145.697 128.355 143.781 126.126 141.629 124.368C140.1 123.117 138.701 121.577 136.968 120.751C135.83 120.209 134.163 120.508 132.8 120.775C128.122 121.691 123.476 122.77 118.81 123.748C118.426 123.829 117.984 123.598 117.565 123.537C114.115 123.038 110.669 122.514 107.213 122.059C104.055 121.644 100.98 121.094 98.2041 119.312C96.5852 118.273 95.0532 117.713 92.7843 118.733C89.4238 120.243 85.754 121.804 81.8456 120.247C81.1804 119.982 80.4799 119.691 79.9418 119.237C77.7 117.344 75.0752 117.458 72.5076 117.928C68.7525 118.615 63.8789 114.998 62.9805 110.744C62.82 109.983 62.3184 109.036 61.6919 108.683C59.7105 107.567 58.7551 105.827 58.4505 103.739C58.2196 102.157 58.4724 100.741 56.4732 99.7872C55.425 99.2869 54.9363 97.2502 54.5292 95.812C53.7619 93.1013 52.9527 90.3498 52.6727 87.5633C52.1666 82.5233 52.283 77.4734 53.4743 72.4801C54.2367 69.2843 55.4192 66.421 57.8781 64.1335C58.5567 63.5017 59.1737 62.4575 59.2393 61.5601C59.6486 55.9322 62.4008 51.5366 66.4158 47.9424C67.6058 46.8771 69.5234 46.4221 71.1825 46.1479C74.0467 45.675 74.8059 43.5544 75.2893 41.2978C76.2073 37.0116 79.0991 34.1645 82.5523 32.2592C84.7009 31.0737 87.6382 31.3183 90.2282 30.9692C91.749 30.7641 93.4883 31.0522 94.7532 30.3908C96.0957 29.689 97.4858 28.306 97.9937 26.9042C99.5858 22.5095 102.506 19.5291 106.634 17.7208C108.124 17.0679 109.863 16.6088 111.464 16.6726C114.931 16.8094 118.55 15.6728 121.876 17.7324C122.239 17.9572 123.385 17.351 123.878 16.8444C127.578 13.0496 132.202 11.1632 137.302 10.859C141.237 10.6243 145.055 11.8013 148.555 13.7694C149.809 14.4747 151.034 15.5512 152.363 15.715C153.621 15.8703 154.976 14.9015 156.328 14.6955C158.753 14.3267 161.212 14.1934 163.649 13.8995C166.399 13.5679 168.358 14.8095 170.26 16.6874C172.517 18.9153 174.9 21.118 177.568 22.7778C179.044 23.6959 181.212 23.6999 183.074 23.7304C186.066 23.7803 188.689 24.2424 190.466 27.046C190.927 27.7734 192 28.0915 192.755 28.6488C195.697 30.8224 196.267 34.444 197.886 37.4114C198.609 38.7369 199.459 39.3606 200.755 39.9987C204.507 41.8483 208.195 43.8658 211.734 46.0968C212.552 46.6133 212.558 48.313 213.142 49.3513C215.518 53.5657 216.121 58.0758 215.625 62.8183C215.592 63.1364 215.879 63.6708 216.162 63.8131C220.426 65.9539 222.313 69.5742 222.804 74.1821C223.208 77.9679 223.87 81.7277 224.211 85.5176C224.323 86.7681 223.545 88.0901 223.611 89.3563C223.727 91.586 224.308 93.7879 224.464 96.0176C224.776 100.476 225.036 104.945 225.08 109.412C225.09 110.441 224.412 111.968 223.589 112.425C220.617 114.08 220.074 117.08 218.917 119.793C218.19 121.499 217.58 123.485 215.36 123.771C213.905 123.959 212.405 123.808 210.731 123.808Z" fill="#ED1D61"/>
<path d="M76.918 82.9883V89H73.4023V71.9375H80.0586C81.3398 71.9375 82.4648 72.1719 83.4336 72.6406C84.4102 73.1094 85.1602 73.7773 85.6836 74.6445C86.207 75.5039 86.4688 76.4844 86.4688 77.5859C86.4688 79.2578 85.8945 80.5781 84.7461 81.5469C83.6055 82.5078 82.0234 82.9883 80 82.9883H76.918ZM76.918 80.1406H80.0586C80.9883 80.1406 81.6953 79.9219 82.1797 79.4844C82.6719 79.0469 82.918 78.4219 82.918 77.6094C82.918 76.7734 82.6719 76.0977 82.1797 75.582C81.6875 75.0664 81.0078 74.8008 80.1406 74.7852H76.918V80.1406Z" fill="white"/>
<path d="M96.4414 85.4844H90.2773L89.1055 89H85.3672L91.7188 71.9375H94.9766L101.363 89H97.625L96.4414 85.4844ZM91.2266 82.6367H95.4922L93.3477 76.25L91.2266 82.6367Z" fill="white"/>
<path d="M109.273 82.7539H106.473V89H102.957V71.9375H109.297C111.312 71.9375 112.867 72.3867 113.961 73.2852C115.055 74.1836 115.602 75.4531 115.602 77.0938C115.602 78.2578 115.348 79.2305 114.84 80.0117C114.34 80.7852 113.578 81.4023 112.555 81.8633L116.246 88.8359V89H112.473L109.273 82.7539ZM106.473 79.9062H109.309C110.191 79.9062 110.875 79.6836 111.359 79.2383C111.844 78.7852 112.086 78.1641 112.086 77.375C112.086 76.5703 111.855 75.9375 111.395 75.4766C110.941 75.0156 110.242 74.7852 109.297 74.7852H106.473V79.9062Z" fill="white"/>
<path d="M127.918 85.4844H121.754L120.582 89H116.844L123.195 71.9375H126.453L132.84 89H129.102L127.918 85.4844ZM122.703 82.6367H126.969L124.824 76.25L122.703 82.6367Z" fill="white"/>
<path d="M148.309 89H144.793L137.949 77.7734V89H134.434V71.9375H137.949L144.805 83.1875V71.9375H148.309V89Z" fill="white"/>
<path d="M165.395 80.8555C165.395 82.5352 165.098 84.0078 164.504 85.2734C163.91 86.5391 163.059 87.5156 161.949 88.2031C160.848 88.8906 159.582 89.2344 158.152 89.2344C156.738 89.2344 155.477 88.8945 154.367 88.2148C153.258 87.5352 152.398 86.5664 151.789 85.3086C151.18 84.043 150.871 82.5898 150.863 80.9492V80.1055C150.863 78.4258 151.164 76.9492 151.766 75.6758C152.375 74.3945 153.23 73.4141 154.332 72.7344C155.441 72.0469 156.707 71.7031 158.129 71.7031C159.551 71.7031 160.812 72.0469 161.914 72.7344C163.023 73.4141 163.879 74.3945 164.48 75.6758C165.09 76.9492 165.395 78.4219 165.395 80.0938V80.8555ZM161.832 80.082C161.832 78.293 161.512 76.9336 160.871 76.0039C160.23 75.0742 159.316 74.6094 158.129 74.6094C156.949 74.6094 156.039 75.0703 155.398 75.9922C154.758 76.9062 154.434 78.25 154.426 80.0234V80.8555C154.426 82.5977 154.746 83.9492 155.387 84.9102C156.027 85.8711 156.949 86.3516 158.152 86.3516C159.332 86.3516 160.238 85.8906 160.871 84.9688C161.504 84.0391 161.824 82.6875 161.832 80.9141V80.082Z" fill="white"/>
<path d="M174.266 82.7539H171.465V89H167.949V71.9375H174.289C176.305 71.9375 177.859 72.3867 178.953 73.2852C180.047 74.1836 180.594 75.4531 180.594 77.0938C180.594 78.2578 180.34 79.2305 179.832 80.0117C179.332 80.7852 178.57 81.4023 177.547 81.8633L181.238 88.8359V89H177.465L174.266 82.7539ZM171.465 79.9062H174.301C175.184 79.9062 175.867 79.6836 176.352 79.2383C176.836 78.7852 177.078 78.1641 177.078 77.375C177.078 76.5703 176.848 75.9375 176.387 75.4766C175.934 75.0156 175.234 74.7852 174.289 74.7852H171.465V79.9062Z" fill="white"/>
<path d="M187.016 89H183.5V71.9375H187.016V89Z" fill="white"/>
<path d="M200.129 85.4844H193.965L192.793 89H189.055L195.406 71.9375H198.664L205.051 89H201.312L200.129 85.4844ZM194.914 82.6367H199.18L197.035 76.25L194.914 82.6367Z" fill="white"/>
</svg>
