<svg width="186" height="189" viewBox="0 0 186 189" fill="none" xmlns="http://www.w3.org/2000/svg">
<path d="M102.938 189C57.2703 189 20.2507 146.691 20.2507 94.5C20.2507 42.3092 57.2703 0 102.938 0C148.604 0 185.626 42.3092 185.626 94.5C185.626 146.691 148.604 189 102.938 189Z" fill="#FDC72F"/>
<path d="M20.25 94.5003C20.25 46.2307 51.9248 6.43969 92.8125 0.733318C89.4913 0.267045 86.1163 0.00100709 82.6875 0.00100709C37.021 0.000299542 0 42.3095 0 94.5003C0 146.691 37.021 189 82.6875 189C86.1163 189 89.4906 188.734 92.8125 188.271C51.9248 182.562 20.25 142.77 20.25 94.5003Z" fill="#E3AF24"/>
<path d="M20.2465 97.8792H0.00353241C0.0707494 100.15 0.198815 102.401 0.404712 104.629H20.6653C20.4559 102.404 20.3144 100.153 20.2465 97.8792Z" fill="#CD9A2B"/>
<path d="M21.0163 81.0035H0.780425C0.498821 83.2281 0.3 85.4823 0.154953 87.7542H20.4028C20.5479 85.4866 20.7432 83.2309 21.0163 81.0035Z" fill="#CD9A2B"/>
<path d="M22.1031 114.754H1.84953C2.2882 117.035 2.7941 119.287 3.37146 121.504H23.6179C23.0413 119.29 22.5382 117.038 22.1031 114.754Z" fill="#CD9A2B"/>
<path d="M26.8245 131.628H6.56179C7.42288 133.932 8.37099 136.176 9.38632 138.379H29.6434C28.6266 136.181 27.6856 133.931 26.8245 131.628Z" fill="#CD9A2B"/>
<path d="M24.5476 64.1285H4.31321C3.65873 66.346 3.04458 68.591 2.53161 70.8785H22.8057C23.3144 68.6009 23.8889 66.3417 24.5476 64.1285Z" fill="#CD9A2B"/>
<path d="M31.2665 47.2557H11.013C9.90354 49.454 8.85283 51.7019 7.89481 54.0078H28.1575C29.1163 51.7019 30.1521 49.4498 31.2665 47.2557Z" fill="#CD9A2B"/>
<path d="M45.0396 27.0057H24.7663C22.8453 29.1524 21.0191 31.4045 19.292 33.7571H39.5597C41.2868 31.4045 43.1158 29.1531 45.0396 27.0057Z" fill="#CD9A2B"/>
<path d="M65.6752 10.1285H45.3785C41.9321 12.1196 38.6208 14.3738 35.4679 16.8792H55.7483C58.9033 14.3774 62.2189 12.1224 65.6752 10.1285Z" fill="#CD9A2B"/>
<path d="M37.1894 151.88H16.933C18.4988 154.217 20.1531 156.468 21.9035 158.629H42.1776C40.4229 156.468 38.7616 154.216 37.1894 151.88Z" fill="#CD9A2B"/>
<path d="M31.5028 168.754C34.2127 171.194 37.055 173.461 40.021 175.502H60.3226C57.3347 173.454 54.4705 171.204 51.7429 168.754H31.5028Z" fill="#CD9A2B"/>
<path d="M103.225 170.517H102.938C100.576 170.517 98.1962 170.377 95.8677 170.1C94.0189 169.878 92.6922 168.2 92.9186 166.346C93.1337 164.497 94.7632 163.209 96.6686 163.396C98.7262 163.643 100.84 163.767 102.937 163.767C104.8 163.767 106.452 165.281 106.452 167.142C106.454 169.006 105.092 170.517 103.225 170.517ZM122.855 166.883C121.491 166.883 120.205 166.049 119.692 164.697C119.032 162.954 119.918 161.007 121.658 160.35C123.609 159.614 125.549 158.753 127.418 157.794C129.081 156.938 131.109 157.596 131.966 159.253C132.817 160.909 132.166 162.945 130.501 163.794C128.407 164.876 126.233 165.838 124.039 166.664C123.651 166.811 123.249 166.883 122.855 166.883ZM77.1736 164.304C76.6571 164.304 76.1328 164.187 75.6467 163.937C73.5623 162.881 71.5061 161.689 69.5413 160.401C67.979 159.381 67.5446 157.288 68.567 155.728C69.5922 154.173 71.6781 153.734 73.2403 154.758C74.9993 155.907 76.8347 156.974 78.7019 157.918C80.366 158.762 81.0233 160.794 80.18 162.455C79.5899 163.629 78.404 164.304 77.1736 164.304ZM145.05 152.297C144.186 152.297 143.329 151.973 142.675 151.325C141.349 150.012 141.335 147.875 142.645 146.549C144.12 145.064 145.54 143.469 146.895 141.814C148.069 140.37 150.192 140.15 151.637 141.326C153.088 142.503 153.301 144.63 152.128 146.075C150.645 147.898 149.067 149.656 147.448 151.295C146.786 151.963 145.917 152.297 145.05 152.297ZM56.5557 147.548C55.5771 147.548 54.6113 147.126 53.9469 146.313C52.488 144.541 51.0842 142.651 49.7675 140.697C48.721 139.155 49.1271 137.055 50.6696 136.008C52.2177 134.969 54.3106 135.374 55.3599 136.92C56.562 138.699 57.8441 140.423 59.1708 142.036C60.3488 143.479 60.1429 145.604 58.6946 146.786C58.0677 147.299 57.3071 147.548 56.5557 147.548ZM159.875 130.204C159.425 130.204 158.968 130.113 158.527 129.924C156.819 129.178 156.04 127.192 156.783 125.479C157.631 123.536 158.399 121.524 159.085 119.509C159.682 117.744 161.595 116.796 163.363 117.386C165.127 117.985 166.078 119.897 165.483 121.663C164.737 123.863 163.896 126.053 162.975 128.177C162.416 129.444 161.176 130.204 159.875 130.204ZM43.6896 124.244C42.2858 124.244 40.9684 123.36 40.4936 121.956C39.7465 119.769 39.0821 117.514 38.5182 115.267C38.0738 113.458 39.1733 111.628 40.9797 111.18C42.7861 110.721 44.6186 111.828 45.0736 113.637C45.5837 115.699 46.1936 117.768 46.8792 119.781C47.4863 121.538 46.5382 123.463 44.7757 124.063C44.4198 124.184 44.0512 124.244 43.6896 124.244ZM166.257 104.338C166.177 104.338 166.081 104.335 165.993 104.328C164.135 104.186 162.744 102.563 162.888 100.702C163.051 98.6675 163.125 96.5816 163.125 94.4993C163.125 92.6363 164.636 91.0132 166.5 91.0132C168.367 91.0132 169.875 92.4134 169.875 94.28V94.4993C169.875 96.7578 169.791 99.0191 169.619 101.222C169.479 102.996 168.005 104.338 166.257 104.338ZM39.3729 97.9125C37.5099 97.9125 35.9979 96.4408 35.9979 94.5778V94.5C35.9979 92.221 36.092 89.9101 36.2724 87.629C36.4125 85.7689 38.0745 84.404 39.9 84.53C41.7559 84.6743 43.1469 86.2988 43.0019 88.159C42.8363 90.2639 42.7493 92.3972 42.7493 94.5C42.7486 96.363 41.2394 97.9125 39.3729 97.9125ZM164.04 77.7828C162.53 77.7828 161.15 76.7646 160.764 75.2328C160.252 73.1696 159.635 71.105 158.942 69.0934C158.338 67.3281 159.285 65.4071 161.038 64.8035C162.825 64.1936 164.725 65.1382 165.332 66.9C166.081 69.0913 166.749 71.3406 167.312 73.5856C167.764 75.3962 166.669 77.2274 164.856 77.6788C164.583 77.7531 164.309 77.7828 164.04 77.7828ZM43.6429 71.6561C43.2849 71.6561 42.9177 71.5939 42.5625 71.4722C40.7943 70.875 39.8498 68.9568 40.4505 67.1929C41.1962 64.9854 42.0467 62.7955 42.9743 60.6828C43.7271 58.9755 45.7012 58.1915 47.4156 58.9479C49.1236 59.6979 49.9033 61.6882 49.1576 63.3927C48.3071 65.3307 47.5267 67.3373 46.8389 69.3594C46.3627 70.7675 45.0502 71.6561 43.6429 71.6561ZM153.236 53.4502C152.154 53.4502 151.087 52.9302 150.438 51.9672C149.246 50.2125 147.964 48.4946 146.62 46.8623C145.434 45.4245 145.645 43.2941 147.083 42.1104C148.526 40.9281 150.647 41.134 151.836 42.571C153.31 44.366 154.717 46.2573 156.028 48.1804C157.071 49.7271 156.662 51.8215 155.119 52.8693C154.542 53.2613 153.887 53.4502 153.236 53.4502ZM56.4616 48.3198C55.7087 48.3198 54.9552 48.0729 54.3248 47.5599C52.8792 46.379 52.6705 44.255 53.8486 42.8123C55.3295 40.9967 56.9087 39.2413 58.5354 37.6012C59.855 36.2752 61.9889 36.271 63.3078 37.5807C64.638 38.8932 64.6451 41.03 63.3276 42.3538C61.8531 43.841 60.4259 45.4344 59.0717 47.0823C58.4087 47.8974 57.4359 48.3198 56.4616 48.3198ZM134.363 34.7186C133.729 34.7186 133.09 34.5396 132.521 34.1724C130.755 33.0177 128.916 31.9578 127.054 31.0238C125.392 30.1861 124.724 28.1519 125.565 26.487C126.401 24.8229 128.424 24.1514 130.093 24.9962C132.174 26.0427 134.234 27.2307 136.213 28.5198C137.774 29.5351 138.217 31.6274 137.198 33.191C136.543 34.1788 135.463 34.7186 134.363 34.7186ZM77.0455 31.5163C75.813 31.5163 74.6314 30.8441 74.0314 29.6752C73.1873 28.0111 73.8417 25.9804 75.5024 25.1328C77.6116 24.0601 79.7887 23.0943 81.9722 22.2821C83.734 21.6234 85.6649 22.5142 86.32 24.259C86.971 26.0038 86.0837 27.9467 84.3425 28.6019C82.3953 29.3328 80.4495 30.1854 78.5774 31.1448C78.0842 31.3939 77.5613 31.5163 77.0455 31.5163ZM109.465 25.6097C109.34 25.6097 109.208 25.6033 109.077 25.5856C107.043 25.35 104.981 25.2318 102.938 25.2318C101.075 25.2318 99.4917 23.7198 99.4917 21.8568C99.4917 19.9939 100.929 18.4818 102.793 18.4818H102.938C105.235 18.4818 107.566 18.6156 109.851 18.8823C111.702 19.096 113.029 20.7729 112.814 22.6217C112.618 24.3446 111.16 25.6097 109.465 25.6097Z" fill="#FFD94A"/>
<path d="M101.475 119.193L102.686 119.58C102.686 119.58 109.298 119.193 112.6 119.386C115.879 119.58 117.749 120.653 117.749 121.23C117.749 121.838 116.924 123.132 115.961 123.132C114.915 123.132 113.235 122.938 110.591 122.938C107.837 122.938 106.871 122.718 105.854 122.718C104.835 122.718 104.975 122.938 103.541 122.113C102.054 121.259 101.062 121.534 101.062 121.534C101.062 121.534 101.834 123.105 104.561 123.546C107.258 123.931 107.643 124.536 108.635 125.39C109.709 126.189 111.114 126.437 112.628 126.437C114.06 126.437 115.355 126.629 116.154 125.829C116.951 125.032 117.173 122.966 118.246 122.719C119.181 122.444 120.338 121.81 120.338 120.846C120.338 119.8 120.56 118.754 120.56 118.754C117.475 118.313 114.638 117.736 110.508 117.736C106.379 117.734 101.475 119.193 101.475 119.193Z" fill="#CD9A2B"/>
<path d="M67.9882 82.5403C70.4392 85.8446 67.5474 85.459 65.4552 90.4436C63.4167 95.4014 66.7776 96.1719 68.3462 99.559C70.0542 102.863 72.0085 107.407 73.3033 108.647C74.5422 109.832 73.7158 113.163 75.3962 116.082C77.076 118.946 79.9401 120.241 79.9401 120.241L79.362 129.715C79.362 129.715 77.441 135.785 74.8295 141.859C74.18 143.365 73.4894 144.872 72.7741 146.285C73.067 146.338 73.362 146.393 73.6507 146.44C78.525 147.221 83.5026 147.307 88.4278 147.155C97.0224 146.888 105.558 145.879 114.098 144.962C116.855 144.667 119.616 144.449 122.377 144.248C121.988 143.498 121.716 142.865 121.716 142.547C121.716 141.28 120.45 140.096 122.901 136.709C125.406 133.46 125.764 129.549 125.764 122.939C125.764 116.386 127.308 112.641 130.336 106.141C133.447 99.4493 132.402 95.3738 134.467 92.0689C136.478 88.7639 134.467 82.541 134.88 80.0356C135.348 77.6109 135.348 76.3727 137.387 74.3059C139.506 72.213 135.348 66.4854 134.935 62.2995C134.522 58.1689 131.245 59.821 129.565 59.3809C127.886 58.9953 124.581 54.8632 123.755 49.4668C122.955 44.1241 117.173 45.3361 113.014 43.6833C108.855 42.0318 101.834 42.416 98.1446 44.1241C94.3967 45.83 91.9189 47.4283 85.7222 48.2271C79.5269 49.1073 74.1552 59.3809 74.5415 62.7127C74.9547 66.0715 69.1988 71.359 65.0682 74.3059C60.9382 77.2245 65.4552 79.2368 67.9882 82.5403ZM101.834 49.4943C105.386 46.5743 113.811 48.888 113.811 48.888C113.811 48.888 109.488 44.9781 110.095 44.9781C110.702 44.9781 116.76 44.9781 119.209 49.2736C121.716 53.625 124.388 55.5255 122.901 58.1965C122.901 58.1965 120.203 62.5748 114.252 61.5559C108.222 60.4543 109.903 60.2611 107.232 60.041C104.561 59.8493 102.054 60.4543 102.054 60.4543L106.211 57.9757C106.211 57.9757 102.054 57.9757 100.401 59.0222C98.7757 60.0127 96.0502 63.7592 96.0502 63.7592C96.0502 63.7592 98.3639 52.413 101.834 49.4943ZM83.8776 112.723C85.309 110.271 86.9349 108.811 88.4229 109.5C89.8542 110.077 92.5521 111.096 92.5521 111.096C92.5521 111.096 86.1361 100.165 87.3757 97.8793C88.6146 95.6201 88.3946 92.3144 90.9007 92.0944C93.3785 91.9026 95.1969 88.5984 93.1861 85.6797C91.0925 82.8156 89.8259 81.3276 89.2748 77.8309C88.6408 74.3052 87.4026 70.5877 89.2748 68.9349C91.0925 67.2559 91.7264 65.6031 91.7264 65.6031C91.7264 65.6031 92.5521 67.8609 94.2325 69.7613C95.8564 71.5797 97.73 72.4337 97.73 72.4337C97.73 72.4337 97.2892 66.6502 101.036 66.0439C104.778 65.383 115.107 68.9073 122.68 65.6031C122.68 65.6031 130.556 72.6262 130.172 80.4743C130.033 83.2564 129.867 86.0377 129.703 88.5432C129.345 88.3776 128.96 88.2403 128.519 88.1851C127.528 87.9361 126.646 87.9361 124.581 87.9361C122.57 87.9361 120.864 88.3769 118.439 89.2047C116.539 89.809 116.896 91.0479 117.201 91.6267C116.623 92.2889 116.208 93.1139 117.146 93.554C118.797 94.3535 120.864 95.8139 121.743 96.0609C122.542 96.1981 122.708 97.0521 124.441 96.0609C126.04 94.9592 125.654 95.4007 127.086 95.2344C128.518 94.9592 128.132 94.7668 128.959 94.7668C128.959 94.7668 129.206 94.7668 129.372 94.7668C129.345 96.0609 129.345 96.941 129.372 97.3005C129.564 98.291 129.921 105.122 127.03 109.279C124.167 113.411 122.763 122.471 122.954 125.39C123.146 128.227 120.863 134.89 118.438 135.635C115.932 136.434 107.642 137.15 104.946 136.296C102.272 135.525 98.5557 134.423 96.2682 132.166C93.9835 129.962 90.733 127.484 90.733 127.484V129.549C90.733 129.549 86.9618 125.005 85.9139 122.279C84.8965 119.551 82.4172 115.257 83.8776 112.723Z" fill="#CD9A2B"/>
<path d="M97.4823 91.655C97.4823 91.655 98.3639 93.1146 100.787 93.7755C103.349 94.3535 103.542 93.7755 105.165 93.5271C106.847 93.2802 107.673 92.2889 108.663 92.4538C109.738 92.6731 110.535 94.5184 110.535 94.5184C110.535 94.5184 111.362 104.048 111.555 105.507C111.747 106.937 110.921 109.664 110.921 109.664C110.921 109.664 110.096 109.664 108.25 109.223C106.434 108.81 107.674 105.865 107.674 105.865C107.674 105.865 106.598 107.572 106.434 108.81C106.213 110.077 108.473 111.95 109.489 111.95C110.535 111.95 111.143 112.584 114.282 112.723C117.365 112.998 117.365 112.585 119.018 111.069C120.698 109.692 119.431 107.573 119.431 107.573C119.431 107.573 118.605 108.811 117.749 109.004C116.924 109.252 115.962 109.252 114.446 108.811C113.014 108.399 112.766 104.516 112.766 103.276C112.766 102.037 111.996 92.095 111.776 90.0856C111.584 87.9658 110.564 88.984 108.278 88.2134C105.994 87.3318 103.9 86.9462 100.788 87.5526C97.759 88.1858 95.0307 91.0486 95.0307 91.0486C96.2696 90.663 97.4823 91.655 97.4823 91.655Z" fill="#CD9A2B"/>
<path d="M58.0854 32.6965C58.662 32.6094 59.3816 32.3349 59.9646 31.8417C60.8307 31.1094 60.9495 30.2243 60.3906 29.5627C59.8719 28.95 59.2259 28.8962 58.0528 29.3038C56.6618 29.8295 55.5318 29.8344 54.75 28.9104C53.8861 27.8894 54.0906 26.4149 55.3649 25.3366C56.0363 24.7691 56.654 24.513 57.0856 24.4316L57.4358 25.3203C57.1231 25.3847 56.521 25.5601 55.9274 26.0618C55.0323 26.8189 55.1448 27.6417 55.5226 28.0889C56.0413 28.7016 56.695 28.6656 57.8958 28.2509C59.3667 27.7415 60.3835 27.7988 61.1979 28.7625C62.0533 29.7743 62.0448 31.2828 60.4981 32.591C59.8656 33.1252 59.0186 33.525 58.471 33.588L58.0854 32.6965Z" fill="#CD9A2B"/>
<path d="M58.8184 22.8432C59.2005 22.4583 59.7241 21.9863 60.4472 21.4649C61.3359 20.8245 62.1361 20.5613 62.8175 20.6356C63.438 20.6908 64.0302 21.0333 64.4774 21.6531C64.9316 22.2835 65.1035 22.9132 65.013 23.5281C64.9026 24.3771 64.3139 25.1936 63.4359 25.8276C63.167 26.0208 62.9116 26.1899 62.6682 26.2868L64.6797 29.0759L63.7804 29.7241L58.8184 22.8432ZM62.1382 25.5524C62.3717 25.4625 62.6349 25.304 62.9342 25.0882C64.0189 24.3064 64.3005 23.3024 63.6078 22.3415C62.9448 21.4217 61.9734 21.4465 60.9821 22.1618C60.5894 22.4448 60.312 22.6925 60.1868 22.8453L62.1382 25.5524Z" fill="#CD9A2B"/>
<path d="M65.5585 18.0927L70.1576 25.3401L69.2222 25.9337L64.6231 18.6863L65.5585 18.0927Z" fill="#CD9A2B"/>
<path d="M67.5177 16.8778L68.4856 16.338L72.2165 23.0208L75.4189 21.2328L75.8724 22.0444L71.7021 24.3722L67.5177 16.8778Z" fill="#CD9A2B"/>
<path d="M73.2403 13.7837L74.2451 13.3167L77.4701 20.2592L80.7969 18.7139L81.1882 19.5573L76.8559 21.5696L73.2403 13.7837Z" fill="#CD9A2B"/>
<path d="M83.1976 10.6408L80.7297 11.4934L80.4219 10.6026L86.429 8.52878L86.7368 9.41958L84.2575 10.2757L86.751 17.4984L85.6917 17.8642L83.1976 10.6408Z" fill="#CD9A2B"/>
<path d="M88.9727 7.82901L89.8436 11.3116L93.8696 10.3054L92.9993 6.82217L94.0861 6.55048L96.1677 14.8748L95.0809 15.1465L94.1045 11.2436L90.0785 12.2498L91.0543 16.1526L89.9795 16.4215L87.8986 8.09647L88.9727 7.82901Z" fill="#CD9A2B"/>
<path d="M101.627 9.87948L98.3349 10.4172L98.833 13.471L102.503 12.8717L102.653 13.7887L97.8906 14.5663L96.508 6.09622L101.082 5.34976L101.232 6.26674L97.7512 6.8349L98.1877 9.51155L101.48 8.97382L101.627 9.87948Z" fill="#CD9A2B"/>
<path d="M108.201 6.40542L105.609 6.09552L105.721 5.16014L112.029 5.91439L111.918 6.84976L109.313 6.53844L108.407 14.1241L107.295 13.991L108.201 6.40542Z" fill="#CD9A2B"/>
<path d="M113.468 6.29858C114.04 6.29858 114.839 6.39693 115.588 6.54906C116.749 6.78608 117.454 7.15118 117.881 7.73207C118.229 8.1934 118.349 8.81604 118.217 9.46486C117.991 10.5757 117.141 11.1693 116.194 11.2882L116.186 11.3257C116.789 11.683 117.054 12.3608 117.075 13.275C117.11 14.504 117.144 15.3566 117.253 15.7167L116.13 15.4875C116.041 15.2222 116.001 14.4601 115.978 13.3634C115.965 12.1521 115.605 11.6236 114.627 11.3844L113.604 11.1757L112.859 14.8196L111.774 14.5981L113.468 6.29858ZM113.771 10.3514L114.882 10.5785C116.043 10.8156 116.909 10.3288 117.105 9.36863C117.327 8.28255 116.638 7.64788 115.492 7.40094C114.969 7.2941 114.584 7.26722 114.398 7.28207L113.771 10.3514Z" fill="#CD9A2B"/>
<path d="M121.796 8.06321L120.354 12.9354C119.808 14.7792 120.395 15.8031 121.493 16.1285C122.714 16.4901 123.734 15.9163 124.274 14.0965L125.716 9.22429L126.791 9.54269L125.37 14.342C124.621 16.8693 122.982 17.5132 121.199 16.9847C119.515 16.4859 118.53 15.145 119.286 12.5929L120.722 7.74481L121.796 8.06321Z" fill="#CD9A2B"/>
<path d="M130.301 11.855L127.869 10.9033L128.212 10.0252L134.133 12.3417L133.789 13.2198L131.345 12.2632L128.559 19.3826L127.515 18.9736L130.301 11.855Z" fill="#CD9A2B"/>
<path d="M136.518 13.4448L134.919 16.6627L138.64 18.5101L140.238 15.2922L141.242 15.791L137.423 23.4828L136.418 22.984L138.209 19.3776L134.488 17.5295L132.698 21.1358L131.705 20.6427L135.525 12.9509L136.518 13.4448Z" fill="#CD9A2B"/>
</svg>
