<svg width="19" height="25" viewBox="0 0 19 25" fill="none" xmlns="http://www.w3.org/2000/svg">
<path fill-rule="evenodd" clip-rule="evenodd" d="M2.42327 17.8724C2.12821 17.7187 1.87431 17.5666 1.76354 17.2334C1.67859 16.9778 1.7872 16.6434 2.07299 16.5813C2.13622 16.5675 2.19311 16.5222 2.2866 16.4742C2.21179 16.4529 2.16607 16.4344 2.11875 16.4274C1.66139 16.3592 1.50577 15.9924 1.7632 15.5873C1.83056 15.4812 1.89645 15.3742 1.9634 15.2679C2.12077 15.0179 2.06373 14.8036 1.79669 14.6913C1.55559 14.59 1.30575 14.5111 1.06454 14.41C0.930526 14.3538 0.789982 14.293 0.680539 14.1989C0.350957 13.9155 0.3614 13.5322 0.683577 13.1149C1.01984 12.6793 1.36902 12.2525 1.67783 11.7965C1.9735 11.3597 2.13337 10.8514 2.18445 10.3216C2.23496 9.79778 2.23454 9.26897 2.26739 8.74304C2.30943 8.07038 2.41294 7.40676 2.58637 6.7568C2.74974 6.14459 2.96407 5.55236 3.25158 4.98998C3.62916 4.25142 4.07844 3.57054 4.63355 2.95801C5.20849 2.32357 5.85774 1.79243 6.60113 1.41008C7.24139 1.08075 7.91187 0.801422 8.59161 0.572791C9.16367 0.38037 9.76298 0.263212 10.3758 0.274387C10.8811 0.283587 11.3904 0.237308 11.8912 0.287181C12.4557 0.34341 13.0058 0.498358 13.5495 0.686119C14.4056 0.981799 15.1901 1.41249 15.9052 1.97064C16.6158 2.52523 17.1795 3.22862 17.6448 4.01611C18.1477 4.86734 18.4844 5.78695 18.7113 6.75549C18.8853 7.49829 18.8536 8.25202 18.8623 9.00535C18.8752 10.1294 18.63 11.1907 18.1286 12.1808C17.8043 12.8213 17.4246 13.4312 17.0919 14.0673C16.6209 14.9679 16.3005 15.9316 16.0585 16.9228C15.8672 17.7067 15.8451 18.513 15.9101 19.3074C16.0042 20.4584 16.3264 21.5568 16.8864 22.5607C17.1684 23.0662 17.5139 23.5332 17.8255 24.0213C17.865 24.0832 17.9093 24.186 17.8855 24.2362C17.8566 24.2973 17.7581 24.3228 17.6893 24.3631C17.6845 24.3659 17.6768 24.3634 17.6705 24.3635C16.6547 24.3766 15.6388 24.3914 14.6229 24.4025C13.2843 24.4173 11.9456 24.4273 10.607 24.4438C10.2751 24.4479 9.94332 24.4726 9.61135 24.4806C9.37492 24.4863 9.33178 24.433 9.28997 24.1866C9.13161 23.2529 8.93263 22.3293 8.52523 21.4736C8.42779 21.2688 8.2705 21.0903 8.11951 20.9201C8.06107 20.8542 7.93864 20.8046 7.85396 20.8161C7.2674 20.8956 6.68339 20.9955 6.09797 21.0843C5.55455 21.1668 5.01106 21.2493 4.46635 21.3216C3.79898 21.4102 3.20456 21.2428 2.73561 20.7212C2.41427 20.3638 2.27472 19.9181 2.22793 19.4378C2.18137 18.9597 2.30115 18.5037 2.39836 18.0445C2.41006 17.9889 2.41484 17.9317 2.42327 17.8724ZM16.9484 10.8951C17.0911 10.8951 17.2187 10.9084 17.3428 10.8919C17.5319 10.8668 17.5838 10.692 17.6458 10.5419C17.7443 10.3031 17.7905 10.0391 18.0437 9.89354C18.1138 9.85326 18.1715 9.71893 18.1707 9.62838C18.1669 9.23529 18.1448 8.84204 18.1182 8.44965C18.1048 8.25344 18.0554 8.05968 18.0456 7.86346C18.0399 7.75207 18.1062 7.6357 18.0966 7.52565C18.0676 7.19214 18.0112 6.86128 17.9768 6.52813C17.9349 6.12263 17.7743 5.80405 17.4111 5.61566C17.387 5.60318 17.3625 5.55611 17.3653 5.52811C17.4075 5.11081 17.3562 4.71389 17.1539 4.34303C17.1041 4.25169 17.1036 4.10208 17.0339 4.05663C16.7325 3.8603 16.4184 3.68276 16.0988 3.51999C15.9885 3.46384 15.9161 3.40896 15.8545 3.29231C15.7165 3.03118 15.668 2.71248 15.4174 2.52121C15.3532 2.47216 15.2618 2.44417 15.2225 2.38016C15.0711 2.13344 14.8478 2.09277 14.5929 2.08839C14.4343 2.0857 14.2497 2.08535 14.124 2.00456C13.8967 1.85845 13.6937 1.66465 13.5015 1.4686C13.3395 1.30334 13.1727 1.19404 12.9385 1.22326C12.7309 1.24913 12.5215 1.26089 12.3149 1.29331C12.1997 1.31144 12.0844 1.39673 11.9772 1.38303C11.864 1.36858 11.7597 1.27385 11.6529 1.21181C11.3547 1.03862 11.0296 0.935047 10.6944 0.955698C10.26 0.982471 9.86612 1.14847 9.55108 1.48242C9.50904 1.52696 9.41149 1.58035 9.3805 1.56056C9.09725 1.37936 8.78904 1.47934 8.49372 1.46729C8.35731 1.46173 8.20925 1.50212 8.08234 1.55954C7.73073 1.71867 7.48203 1.98094 7.34642 2.36768C7.30317 2.49104 7.18477 2.61274 7.07042 2.6745C6.96269 2.7327 6.81455 2.70735 6.68502 2.72539C6.46442 2.75612 6.21425 2.73459 6.03125 2.83892C5.73717 3.00658 5.49087 3.25713 5.41264 3.63431C5.37148 3.83285 5.30677 4.01947 5.06285 4.06113C4.92151 4.08525 4.75822 4.12529 4.65687 4.21904C4.31494 4.53533 4.08049 4.92214 4.04563 5.41739C4.04008 5.49637 3.98753 5.58829 3.92969 5.64385C3.72026 5.84516 3.61955 6.09712 3.55461 6.37835C3.45315 6.81773 3.44323 7.26211 3.48634 7.70567C3.51015 7.95089 3.57911 8.19302 3.64446 8.43157C3.67913 8.55812 3.72075 8.73736 3.81003 8.78138C3.98031 8.86529 3.95878 8.98988 3.97845 9.12911C4.00439 9.31288 4.08577 9.46593 4.25453 9.56422C4.30788 9.59529 4.3506 9.67861 4.36427 9.74554C4.44079 10.1199 4.85585 10.4382 5.17572 10.3778C5.39445 10.3364 5.61797 10.3264 5.80891 10.493C5.85474 10.533 5.91436 10.5585 5.97106 10.5818C6.30394 10.7188 6.61651 10.5815 6.90273 10.4486C7.09598 10.3588 7.22646 10.4081 7.36435 10.4996C7.60082 10.6564 7.86261 10.7048 8.13163 10.7413C8.42597 10.7813 8.71951 10.8275 9.01336 10.8714C9.04902 10.8767 9.08669 10.897 9.11939 10.8899C9.51683 10.8039 9.91253 10.7089 10.3109 10.6283C10.4271 10.6048 10.569 10.5785 10.666 10.6262C10.8136 10.6989 10.9327 10.8344 11.063 10.9445C11.2463 11.0992 11.4094 11.2954 11.6156 11.4019C12.0322 11.6172 12.3633 11.9291 12.6816 12.268C12.7492 12.3399 12.8504 12.3764 12.9265 12.4415C13.0124 12.515 13.0939 12.5966 13.1651 12.6854C13.2352 12.7729 13.2817 12.8811 13.3535 12.9669C13.4561 13.0896 13.604 13.1821 13.6765 13.3195C13.8504 13.6494 14.28 13.8178 14.5995 13.6491C14.7922 13.5474 14.8572 13.362 14.7469 13.1664C14.6707 13.0314 14.5552 12.9209 14.4743 12.7883C14.3697 12.6168 14.2836 12.4332 14.1866 12.2567C14.1012 12.1013 14.1708 11.9937 14.3394 11.9592C14.5101 11.9242 14.7239 11.8924 14.8267 11.7732C15.009 11.5619 15.2127 11.5627 15.4391 11.5695C15.5086 11.5716 15.5783 11.5674 15.6478 11.5703C15.8518 11.5789 16.0239 11.5108 16.165 11.3541C16.2017 11.3133 16.2545 11.2577 16.2981 11.2594C16.5888 11.271 16.7667 11.0776 16.9484 10.8951Z" fill="white" stroke="black" stroke-width="0.225" stroke-miterlimit="10"/>
<path fill-rule="evenodd" clip-rule="evenodd" d="M16.9485 10.8951C16.7667 11.0776 16.5888 11.271 16.2981 11.2593C16.2545 11.2576 16.2016 11.3132 16.165 11.3539C16.0239 11.5107 15.8518 11.5787 15.6478 11.5702C15.5783 11.5673 15.5086 11.5715 15.439 11.5694C15.2127 11.5626 15.009 11.5618 14.8266 11.7731C14.7239 11.8923 14.51 11.9241 14.3393 11.959C14.1708 11.9936 14.1011 12.1013 14.1865 12.2566C14.2836 12.4331 14.3696 12.6167 14.4742 12.7882C14.5551 12.9208 14.6706 13.0313 14.7468 13.1663C14.8572 13.3619 14.7922 13.5472 14.5995 13.649C14.28 13.8177 13.8503 13.6493 13.6765 13.3194C13.604 13.182 13.4561 13.0895 13.3534 12.9667C13.2817 12.881 13.2352 12.7727 13.1651 12.6852C13.0939 12.5965 13.0123 12.5149 12.9265 12.4414C12.8504 12.3763 12.7491 12.3399 12.6815 12.2679C12.3633 11.929 12.0322 11.6172 11.6155 11.4018C11.4094 11.2953 11.2462 11.0991 11.0629 10.9443C10.9326 10.8343 10.8135 10.6988 10.6659 10.6261C10.569 10.5784 10.427 10.6047 10.3109 10.6282C9.91249 10.7088 9.51675 10.8038 9.11935 10.8898C9.08669 10.8969 9.04898 10.8766 9.01332 10.8713C8.71948 10.8274 8.42593 10.7812 8.13159 10.7412C7.86261 10.7046 7.60078 10.6563 7.36431 10.4995C7.22642 10.408 7.09594 10.3587 6.90269 10.4485C6.61648 10.5814 6.30391 10.7187 5.97102 10.5817C5.91436 10.5584 5.8547 10.5328 5.80887 10.4928C5.61793 10.3262 5.39437 10.3363 5.17568 10.3777C4.85586 10.4381 4.44075 10.1198 4.36423 9.74543C4.35056 9.67853 4.30784 9.59518 4.25449 9.5641C4.08573 9.46586 4.00435 9.3128 3.97841 9.12899C3.95874 8.9898 3.98027 8.86518 3.80999 8.78127C3.72072 8.73724 3.6791 8.55801 3.64442 8.43145C3.57907 8.19291 3.51015 7.95077 3.4863 7.70556C3.4432 7.26204 3.45311 6.81765 3.55458 6.37823C3.61951 6.09701 3.72022 5.84504 3.92965 5.64373C3.98745 5.58814 4.04001 5.49625 4.04559 5.41727C4.08045 4.92203 4.31487 4.53521 4.65683 4.21892C4.75818 4.12518 4.92151 4.08514 5.06282 4.06101C5.30677 4.01939 5.37144 3.83277 5.4126 3.63419C5.49079 3.25701 5.7371 3.00646 6.03121 2.8388C6.21421 2.73448 6.46439 2.756 6.68498 2.72528C6.81451 2.70723 6.96265 2.73258 7.07039 2.67438C7.18473 2.61262 7.30313 2.49092 7.34639 2.36756C7.48199 1.98082 7.73069 1.71855 8.0823 1.55942C8.20921 1.50196 8.35731 1.46157 8.49368 1.46718C8.78901 1.47922 9.09717 1.3792 9.38046 1.56044C9.41141 1.58023 9.50901 1.52688 9.55105 1.4823C9.86612 1.14836 10.26 0.982352 10.6944 0.95558C11.0295 0.934928 11.3547 1.0385 11.6528 1.21169C11.7597 1.27377 11.864 1.3685 11.9771 1.38291C12.0843 1.39657 12.1997 1.31132 12.3149 1.29319C12.5214 1.26074 12.7308 1.24901 12.9384 1.22314C13.1726 1.19396 13.3395 1.30322 13.5015 1.46848C13.6937 1.66453 13.8966 1.85837 14.1239 2.00444C14.2497 2.08523 14.4343 2.08558 14.5929 2.08827C14.8477 2.09265 15.0711 2.13332 15.2225 2.38004C15.2617 2.44405 15.3531 2.47205 15.4174 2.52109C15.668 2.71236 15.7165 3.03106 15.8544 3.29219C15.916 3.40884 15.9884 3.46373 16.0988 3.51988C16.4184 3.68264 16.7325 3.86018 17.0339 4.05651C17.1036 4.10196 17.1041 4.25153 17.1538 4.34291C17.3562 4.71377 17.4075 5.11066 17.3653 5.528C17.3625 5.55599 17.387 5.60302 17.4111 5.61554C17.7742 5.80393 17.9349 6.12252 17.9768 6.52801C18.0112 6.86116 18.0676 7.19203 18.0966 7.52553C18.1062 7.63559 18.0399 7.75191 18.0455 7.86335C18.0554 8.05956 18.1048 8.25332 18.1181 8.44953C18.1448 8.84192 18.1669 9.23517 18.1706 9.62827C18.1715 9.71881 18.1137 9.85315 18.0436 9.89342C17.7905 10.039 17.7442 10.303 17.6457 10.5418C17.5838 10.6919 17.5318 10.8667 17.3427 10.8918C17.2188 10.9084 17.0911 10.8951 16.9485 10.8951Z" fill="#222222"/>
</svg>
