<svg width="186" height="189" viewBox="0 0 186 189" fill="none" xmlns="http://www.w3.org/2000/svg">
<path d="M102.936 189C57.2693 189 20.2491 146.691 20.2491 94.5004C20.2491 42.3099 57.2693 0.000732422 102.936 0.000732422C148.603 0.000732422 185.623 42.3099 185.623 94.5004C185.623 146.691 148.603 189 102.936 189Z" fill="#FDC72F"/>
<path d="M20.2491 94.5004C20.2491 46.2313 51.9234 6.43995 92.8117 0.732745C89.4906 0.267042 86.1148 0 82.6872 0C37.0195 0.000719789 0 42.3099 0 94.5004C0 146.691 37.0202 189 82.6872 189C86.1155 189 89.4906 188.734 92.8117 188.27C51.9234 182.561 20.2491 142.77 20.2491 94.5004Z" fill="#E3AF24"/>
<path d="M20.2462 97.8791H0.00287628C0.0705364 100.15 0.197939 102.401 0.404519 104.629H20.6644C20.455 102.404 20.3132 100.154 20.2462 97.8791Z" fill="#CD9A2B"/>
<path d="M21.0157 81.0036H0.779524C0.498806 83.2278 0.300144 85.4829 0.154747 87.7538H20.401C20.5464 85.4865 20.7421 83.2314 21.0157 81.0036Z" fill="#CD9A2B"/>
<path d="M22.1026 114.754H1.84841C2.28748 117.036 2.79349 119.286 3.37076 121.504H23.6177C23.0397 119.29 22.5373 117.039 22.1026 114.754Z" fill="#CD9A2B"/>
<path d="M26.8237 131.629H6.56088C7.42103 133.93 8.36971 136.175 9.38533 138.379H29.6424C28.626 136.181 27.6845 133.93 26.8237 131.629Z" fill="#CD9A2B"/>
<path d="M24.5455 64.1289H4.31298C3.65797 66.3466 3.04327 68.5909 2.53006 70.8791H22.8036C23.314 68.6016 23.8876 66.343 24.5455 64.1289Z" fill="#CD9A2B"/>
<path d="M31.2655 47.257H11.0113C9.9007 49.4545 8.85197 51.7017 7.89321 54.0072H28.1567C29.1155 51.7017 30.1512 49.451 31.2655 47.257Z" fill="#CD9A2B"/>
<path d="M45.0386 27.0065H24.765C22.8447 29.1529 21.0185 31.4037 19.2911 33.7574H39.5581C41.2849 31.4044 43.1146 29.1536 45.0386 27.0065Z" fill="#CD9A2B"/>
<path d="M65.6735 10.1289H45.3762C41.9306 12.1205 38.6196 14.3742 35.4676 16.8791H55.7477C58.9032 14.3785 62.2178 12.1234 65.6735 10.1289Z" fill="#CD9A2B"/>
<path d="M37.1886 151.879H16.9316C18.4979 154.218 20.1519 156.468 21.9025 158.629H42.176C40.4219 156.468 38.7606 154.218 37.1886 151.879Z" fill="#CD9A2B"/>
<path d="M31.5016 168.753C34.2116 171.194 37.0533 173.461 40.0195 175.503H60.3205C57.3341 173.455 54.4679 171.203 51.7413 168.753H31.5016Z" fill="#CD9A2B"/>
<path d="M103.223 170.518H102.937C100.575 170.518 98.195 170.377 95.8665 170.1C94.0174 169.877 92.6908 168.199 92.9161 166.346C93.1328 164.498 94.7616 163.209 96.6662 163.396C98.7248 163.643 100.838 163.768 102.933 163.768C104.8 163.768 106.45 165.281 106.45 167.143C106.452 169.006 105.09 170.518 103.223 170.518ZM122.852 166.884C121.487 166.884 120.203 166.05 119.689 164.698C119.031 162.954 119.915 161.009 121.657 160.351C123.607 159.615 125.547 158.754 127.414 157.795C129.078 156.938 131.107 157.596 131.964 159.253C132.815 160.91 132.163 162.946 130.499 163.796C128.403 164.876 126.229 165.839 124.036 166.664C123.649 166.813 123.247 166.884 122.852 166.884ZM77.1714 164.305C76.6546 164.305 76.1321 164.187 75.6462 163.936C73.5603 162.88 71.5045 161.69 69.541 160.4C67.9783 159.38 67.5436 157.288 68.5657 155.728C69.5921 154.173 71.6773 153.734 73.24 154.757C74.9984 155.908 76.8346 156.974 78.7003 157.919C80.3651 158.763 81.023 160.794 80.1794 162.456C79.5885 163.63 78.403 164.305 77.1714 164.305ZM145.046 152.297C144.185 152.297 143.328 151.973 142.673 151.325C141.346 150.012 141.333 147.875 142.643 146.549C144.118 145.064 145.538 143.468 146.892 141.814C148.066 140.37 150.189 140.149 151.634 141.325C153.085 142.502 153.298 144.629 152.127 146.074C150.642 147.896 149.065 149.654 147.446 151.295C146.784 151.963 145.913 152.297 145.046 152.297ZM56.5538 147.547C55.5756 147.547 54.6097 147.126 53.9453 146.313C52.487 144.541 51.0834 142.651 49.7662 140.696C48.7203 139.154 49.1249 137.054 50.6681 136.008C52.2164 134.97 54.3095 135.374 55.359 136.92C56.561 138.699 57.843 140.424 59.1695 142.036C60.3478 143.478 60.142 145.604 58.6937 146.785C58.0661 147.299 57.306 147.547 56.5538 147.547ZM159.873 130.205C159.424 130.205 158.968 130.114 158.526 129.924C156.818 129.178 156.039 127.191 156.781 125.479C157.629 123.536 158.397 121.524 159.083 119.509C159.679 117.744 161.593 116.795 163.362 117.386C165.123 117.983 166.075 119.897 165.481 121.662C164.734 123.863 163.892 126.053 162.973 128.176C162.414 129.445 161.175 130.205 159.873 130.205ZM43.689 124.244C42.2847 124.244 40.9689 123.36 40.4924 121.955C39.7467 119.768 39.0824 117.513 38.5188 115.266C38.0732 113.457 39.1731 111.628 40.979 111.179C42.7842 110.719 44.6176 111.827 45.0732 113.635C45.5828 115.698 46.1939 117.767 46.8791 119.779C47.4873 121.536 46.5379 123.46 44.7766 124.061C44.4174 124.184 44.0504 124.244 43.689 124.244ZM166.254 104.338C166.174 104.338 166.079 104.335 165.991 104.328C164.131 104.187 162.741 102.563 162.886 100.703C163.048 98.6686 163.122 96.582 163.122 94.5004C163.122 92.6368 164.634 91.0144 166.497 91.0144C168.364 91.0144 169.872 92.4144 169.872 94.2808V94.5004C169.872 96.759 169.787 99.0192 169.615 101.224C169.478 102.995 168.003 104.338 166.254 104.338ZM39.3717 97.9129C37.5089 97.9129 35.9974 96.4409 35.9974 94.5781V94.5004C35.9974 92.2222 36.0924 89.9103 36.2709 87.6292C36.4127 85.7693 38.0732 84.4053 39.8993 84.5298C41.755 84.6752 43.1456 86.2991 43.0009 88.1583C42.8361 90.2644 42.7475 92.3978 42.7475 94.5004C42.7468 96.3632 41.2389 97.9129 39.3717 97.9129ZM164.037 77.7833C162.528 77.7833 161.148 76.7648 160.763 75.2323C160.25 73.1701 159.633 71.1051 158.941 69.0932C158.336 67.3276 159.282 65.4079 161.036 64.804C162.821 64.1922 164.722 65.138 165.329 66.8993C166.079 69.0904 166.747 71.3411 167.311 73.5847C167.763 75.395 166.666 77.2276 164.854 77.6789C164.58 77.753 164.307 77.7833 164.037 77.7833ZM43.6415 71.6557C43.2838 71.6557 42.916 71.5945 42.5618 71.4736C40.7933 70.8762 39.8482 68.9586 40.4485 67.1937C41.195 64.9868 42.045 62.7965 42.9736 60.6832C43.7257 58.9759 45.6994 58.1928 47.4147 58.9493C49.1227 59.6978 49.9022 61.6895 49.1565 63.3947C48.3057 65.3302 47.5255 67.3384 46.8374 69.3603C46.3616 70.7675 45.0487 71.6557 43.6415 71.6557ZM153.233 53.4508C152.151 53.4508 151.084 52.9304 150.435 51.9687C149.245 50.2139 147.962 48.4958 146.618 46.8626C145.431 45.4244 145.643 43.2953 147.081 42.1098C148.523 40.9286 150.645 41.1352 151.834 42.5726C153.309 44.3671 154.716 46.2579 156.024 48.1812C157.068 49.7273 156.659 51.8241 155.117 52.8699C154.54 53.2615 153.886 53.4508 153.233 53.4508ZM56.4595 48.3209C55.7066 48.3209 54.9544 48.0747 54.3232 47.5608C52.8786 46.3789 52.6691 44.2569 53.8474 42.8123C55.3287 40.9963 56.9087 39.2414 58.5347 37.601C59.8548 36.2745 61.9875 36.2709 63.3076 37.5816C64.6378 38.8945 64.6442 41.0301 63.327 42.3538C61.8529 43.8416 60.4256 45.4352 59.0716 47.0821C58.4065 47.8983 57.4356 48.3209 56.4595 48.3209ZM134.362 34.719C133.727 34.719 133.089 34.5405 132.518 34.172C130.753 33.0174 128.913 31.9579 127.051 31.0236C125.39 30.1865 124.722 28.1516 125.562 26.4868C126.399 24.8226 128.421 24.1518 130.092 24.9954C132.174 26.0419 134.233 27.2296 136.21 28.5195C137.773 29.5351 138.215 31.6275 137.196 33.1902C136.542 34.1792 135.461 34.719 134.362 34.719ZM77.044 31.5167C75.8118 31.5167 74.6299 30.8444 74.0296 29.6762C73.186 28.0127 73.8403 25.9815 75.5015 25.1336C77.6105 24.0611 79.7872 23.0951 81.971 22.2818C83.7323 21.6239 85.6628 22.5143 86.3178 24.259C86.9685 26.0045 86.0817 27.948 84.3398 28.6022C82.3928 29.3328 80.4486 30.1858 78.575 31.1445C78.0827 31.3943 77.5601 31.5167 77.044 31.5167ZM109.463 25.6101C109.339 25.6101 109.207 25.6036 109.076 25.587C107.041 25.351 104.978 25.2329 102.937 25.2329C101.073 25.2329 99.4914 23.7199 99.4914 21.8578C99.4914 19.9957 100.929 18.4827 102.792 18.4827H102.937C105.235 18.4827 107.564 18.618 109.848 18.8851C111.701 19.0981 113.028 20.7753 112.813 22.6244C112.616 24.344 111.158 25.6101 109.463 25.6101Z" fill="#FFD94A"/>
<path d="M147.688 119.711C147.935 118.201 148.145 116.676 148.213 115.15C148.273 113.84 148.081 112.52 148.061 111.202C148.056 110.907 148.221 110.523 148.44 110.323C149.268 109.571 150.17 108.9 151.006 108.155C152.011 107.263 151.995 106.255 151.028 105.345C150.453 104.803 149.905 104.231 149.321 103.699C148.767 103.192 148.187 102.741 147.363 102.721C147.18 102.717 146.956 102.423 146.835 102.214C146.563 101.741 146.353 101.234 146.1 100.75C145.949 100.462 145.765 100.192 145.575 99.8801C147.663 99.0264 148.326 97.1427 149.331 95.5757C149.718 94.9725 148.994 93.8281 148.256 93.7467C147.522 93.6669 146.827 93.5308 146.25 93.0183C146.128 92.9103 145.939 92.8585 145.77 92.8211C144.857 92.6124 143.948 92.3763 143.024 92.228C142.324 92.1164 141.597 92.0416 140.894 92.0992C140.244 92.1524 139.729 92.1035 139.199 91.6536C138.538 91.0936 137.755 90.6797 137.049 90.1701C136.113 89.4949 136.044 89.243 136.38 88.1626C136.425 88.0158 136.455 87.8589 136.525 87.7257C137.141 86.551 136.633 85.5584 136.007 84.5961C135.93 84.4751 135.717 84.3737 135.569 84.3765C134.43 84.4017 133.29 84.4248 132.155 84.5097C131.333 84.5702 130.647 84.9754 130.116 85.6052C129.597 86.2199 129.014 86.3826 128.243 86.0767C127.063 85.6067 125.867 85.1748 124.66 84.7753C123.894 84.5212 123.1 84.3477 122.312 84.1556C121.788 84.026 121.505 83.7021 121.346 83.1903C120.83 81.5305 119.743 80.9115 118.072 81.3779C117.337 81.583 116.59 81.8458 115.944 82.2395C114.616 83.0456 113.266 83.1032 111.827 82.6706C111.04 82.4338 110.28 82.1546 109.39 82.4403C109.024 82.5584 108.507 82.1272 108.042 82.0394C107.639 81.9638 107.212 82.0257 106.795 82.0185C106.007 82.0041 105.206 82.0617 104.438 81.9271C104.164 81.8789 103.899 81.3894 103.775 81.0482C103.72 80.8978 103.979 80.5235 104.182 80.4112C104.664 80.1449 104.77 79.7512 104.643 79.302C104.531 78.9112 104.378 78.4822 104.109 78.1964C103.9 77.9747 103.682 77.7703 103.457 77.5832C103.393 77.6724 103.328 77.7602 103.265 77.8481C103.216 77.9179 103.104 77.8452 103.154 77.7761C103.221 77.6832 103.288 77.5918 103.354 77.5004C102.322 76.6806 101.119 76.2436 99.7044 76.3883C98.3951 76.5222 97.0902 76.7173 95.7888 76.9253C95.169 77.0239 94.7307 76.908 94.4615 76.2868C94.3147 75.9478 94.0555 75.6613 93.8684 75.3381C93.6208 74.9063 93.777 74.6212 94.2686 74.573C95.4224 74.4622 96.582 74.3931 97.7264 74.2174C98.0712 74.1649 98.3635 73.8021 98.6953 73.6078C98.9458 73.4617 99.2618 73.2054 99.4784 73.263C100.371 73.4991 101.194 73.2486 101.872 72.7987C102.017 72.703 102.16 72.6195 102.303 72.5454C102.463 72.0574 102.64 71.5758 102.83 71.0993C102.669 70.774 102.514 70.4465 102.367 70.1161C101.117 69.8202 99.87 69.4978 98.6557 69.0897C97.7027 68.7686 96.8253 68.2166 95.8694 67.9114C94.9833 67.6285 94.0037 67.6342 93.1227 67.342C90.8553 66.5898 88.6226 65.7376 86.3718 64.9379C86.009 64.8084 85.6304 64.6687 85.2525 64.6486C84.4579 64.6061 83.7258 64.4643 82.9931 64.0958C82.2589 63.7258 81.4333 63.525 80.6329 63.3054C79.9059 63.1061 79.1595 62.9823 78.4224 62.821C78.1482 62.7613 77.8761 62.6886 77.6033 62.6252C77.2139 62.5353 76.8123 62.4784 76.4373 62.3481C76.1738 62.2567 75.96 62.0278 75.6987 61.927C74.0188 61.28 72.3316 60.6516 70.6473 60.0174C70.6502 60.0081 70.653 59.9994 70.6552 59.9908C70.273 59.8922 69.8901 59.7979 69.5071 59.6971C68.2748 59.3711 67.3075 60.1053 66.258 60.5091C65.2309 60.9049 64.6579 61.8068 64.3146 62.7138C63.517 64.822 62.9009 66.9972 62.2113 69.1458C61.4937 71.3815 60.7696 73.6157 60.0599 75.8535C59.5553 77.445 59.1897 79.0918 58.5483 80.625C57.3369 83.5178 56.4394 86.487 55.8095 89.5504C55.7059 90.0542 55.4129 90.5185 55.2244 91.0058C55.0602 91.4305 54.894 91.8537 54.7306 92.2784C54.7263 92.3115 54.7219 92.3453 54.7176 92.3784C54.904 92.6275 55.0199 92.9147 55.0315 93.2429C55.2496 93.5085 55.4792 93.7647 55.7268 94.0023C55.7786 94.0512 55.716 94.1203 55.6584 94.1066C55.7404 94.1822 55.852 94.2945 55.8808 94.3499C56.8828 96.302 58.4116 97.8164 59.9678 99.3114C61.5031 100.787 62.9671 102.345 64.5802 103.73C65.924 104.883 67.4385 105.838 68.8802 106.876C69.004 106.965 69.1552 107.092 69.2854 107.083C70.1413 107.024 70.5062 107.703 71.0496 108.154C71.5233 108.548 72.1149 108.824 72.6915 109.061C73.9237 109.566 75.169 110.038 76.4279 110.472C77.3629 110.796 78.2554 111.3 79.3279 111.125C79.618 111.079 79.9549 111.389 80.2838 111.495C80.8604 111.679 81.4419 111.946 82.0315 111.975C84.0008 112.076 85.9759 112.116 87.9488 112.124C90.7582 112.137 93.5697 112.067 96.3797 112.092C100.773 112.131 105.096 111.507 109.402 110.746C112.321 110.229 115.239 109.698 118.122 109.023C119.424 108.718 120.695 108.877 121.978 108.803C122.577 108.768 123.212 108.882 123.701 108.339C123.773 108.261 124.197 108.385 124.357 108.528C124.84 108.955 125.278 109.171 125.857 108.675C126.013 108.54 126.311 108.525 126.542 108.532C127.067 108.548 127.592 108.622 128.117 108.656C128.663 108.691 129.091 108.793 129.353 109.404C129.491 109.728 129.959 109.975 130.331 110.126C132.512 111.009 134.298 112.391 135.911 114.105C137.82 116.133 139.879 118.022 141.893 119.952C142.35 120.39 142.913 120.717 143.39 121.137C144.883 122.453 147.371 121.638 147.688 119.711ZM147.609 104.333C147.796 104.277 148.099 104.249 148.21 104.356C148.901 105.031 149.561 105.737 150.205 106.455C150.28 106.537 150.26 106.825 150.176 106.91C149.609 107.482 149.013 108.025 148.424 108.577C148.327 108.568 148.229 108.56 148.131 108.551C147.87 107.272 147.6 105.994 147.362 104.711C147.341 104.598 147.494 104.37 147.609 104.333ZM145.415 94.0037C145.991 94.2384 146.614 94.3751 147.228 94.4939C147.781 94.6011 148.218 95.1554 148.028 95.7622C147.896 96.1832 147.663 96.6432 147.335 96.9181C146.402 97.7085 145.41 98.4304 144.407 99.1279C144.265 99.2272 143.834 99.1272 143.694 98.9753C142.503 97.6926 141.343 96.3812 140.188 95.0661C139.817 94.6436 139.487 94.1865 139.086 93.6784C141.295 93.163 143.368 93.1666 145.415 94.0037ZM132.337 85.9435C132.97 85.6772 133.695 85.5728 134.387 85.5246C134.791 85.4965 135.212 85.7254 135.625 85.8384C135.552 85.909 135.48 85.9795 135.409 86.0508C135.343 86.2984 135.268 86.5445 135.217 86.7957C135.14 87.1772 135.128 87.5796 134.999 87.9424C134.826 88.4304 134.479 88.8666 134.909 89.4071C134.975 89.4899 134.818 89.8124 134.696 89.9729C133.764 91.1973 132.461 91.614 131.058 91.1958C129.364 90.6898 127.741 89.9405 126.09 89.2913C126.037 89.2718 126.004 89.1977 125.902 89.0782C126.278 88.8327 126.617 88.5535 127.003 88.3728C128.772 87.5407 130.537 86.7 132.337 85.9435ZM116.129 83.1802C117.174 82.7844 118.359 82.7556 119.479 82.5598C119.876 82.4907 120.028 82.6858 120.079 83.0557C120.198 83.8813 120.275 84.7213 120.488 85.5239C120.834 86.8166 120.301 87.712 119.304 88.3958C118.06 89.2495 116.707 89.8865 115.173 89.9736C114.829 89.9945 114.47 89.7361 114.112 89.626C113.804 89.5324 113.432 89.3229 113.188 89.4194C112.416 89.7217 111.706 89.6389 111.048 89.2257C110.165 88.673 109.325 88.0518 108.345 87.3773C109.223 86.7295 109.902 86.0752 110.706 85.6642C112.476 84.7602 114.273 83.8835 116.129 83.1802ZM97.0311 78.1547C98.362 78.0798 99.6936 77.9891 101.026 77.9279C101.796 77.8927 102.528 78.6161 102.675 79.5295C102.839 80.5444 102.647 81.5399 102.157 82.4C101.204 84.0728 100.136 85.6794 99.1149 87.3133C98.8961 87.6645 98.606 87.7466 98.2152 87.5961C97.7848 87.4313 97.3392 87.3082 97.0175 87.2039C94.7012 86.6187 93.1731 85.1093 91.6881 83.5329C91.3606 83.1846 91.0072 82.8527 90.6286 82.5612C90.1471 82.1898 89.8577 81.7839 90.1176 81.1555C90.16 81.0562 90.1931 80.9417 90.1895 80.8366C90.1694 80.417 89.9772 79.9678 90.4443 79.6518C91.198 79.1408 91.8393 78.4289 92.8456 78.3829C94.2412 78.3188 95.6362 78.2339 97.0311 78.1547ZM92.1481 71.7673C92.5181 71.3116 92.703 70.8438 92.5922 70.2528C92.526 69.8937 92.5418 69.5899 93.0435 69.4726C93.2738 69.4193 93.4329 69.0558 93.5697 68.8953C96.0508 69.5856 98.5592 70.2838 101.117 70.9949C100.75 71.596 100.345 71.9638 99.631 71.9775C99.274 71.9854 98.9213 72.2042 98.5664 72.3323C98.4685 72.3683 98.3627 72.477 98.2836 72.4576C97.6163 72.2956 97.1305 72.7728 96.5654 72.9045C94.8487 73.3069 93.0968 73.6373 91.2131 73.137C91.5413 72.6505 91.8105 72.1804 92.1481 71.7673ZM85.2158 67.1412C85.1841 67.3075 84.8293 67.5284 84.6421 67.5126C84.4651 67.4975 84.1923 67.2196 84.1707 67.0318C84.121 66.6093 84.1995 66.1724 84.229 65.698C85.4396 65.788 85.4188 66.1004 85.2158 67.1412ZM145.981 120.324C145.604 120.079 145.237 119.89 144.927 119.633C141.883 117.083 138.827 114.543 135.821 111.949C134.911 111.164 134.181 110.173 133.29 109.365C132.892 109.004 132.294 108.87 131.796 108.615C131.356 108.392 130.794 108.245 130.521 107.887C129.725 106.837 128.645 106.596 127.478 106.719C125.472 106.93 123.48 107.278 121.478 107.517C120.637 107.617 119.78 107.59 118.931 107.608C118.229 107.624 117.527 107.596 116.826 107.631C116.381 107.652 116.001 107.795 115.736 108.245C115.61 108.461 115.24 108.623 114.966 108.649C114.094 108.729 113.213 108.713 112.341 108.784C112.144 108.8 111.966 109.031 111.772 109.15C111.597 109.256 111.407 109.434 111.233 109.424C110.909 109.408 110.593 109.28 110.275 109.193C109.892 109.09 109.582 109.15 109.388 109.539C109.178 109.961 108.88 109.96 108.527 109.708C108.423 109.633 108.252 109.521 108.176 109.558C107.652 109.812 107.05 109.753 106.543 109.92C105.34 110.316 104.189 110.624 102.902 110.326C102.31 110.19 101.608 110.182 101.036 110.365C98.9076 111.045 96.7497 110.926 94.5731 110.851C93.6884 110.822 92.7988 111.035 91.9091 111.093C90.6185 111.178 89.3013 111.538 88.0849 110.726C87.9164 110.614 87.6292 110.642 87.404 110.664C87.1902 110.685 86.8843 110.903 86.79 110.826C85.8931 110.09 84.9135 110.966 83.9943 110.64C83.2932 110.392 82.5641 110.21 81.8328 110.068C81.4484 109.993 81.0338 110.067 80.6336 110.072C80.4846 110.072 80.2824 110.133 80.1967 110.059C79.3286 109.324 78.2029 109.455 77.2125 109.145C76.7943 109.013 76.3307 108.98 75.95 108.784C75.5238 108.564 75.0891 108.268 74.8041 107.895C74.4694 107.455 74.149 107.055 73.5862 106.982C72.0602 106.785 70.8747 105.883 69.6496 105.085C67.3413 103.582 65.2863 101.764 63.2961 99.8678C62.8073 99.4021 62.2452 99.0077 61.6945 98.6111C61.01 98.1173 60.3867 97.6523 60.3053 96.6669C60.2751 96.2955 59.7878 95.8341 59.397 95.6477C58.521 95.2324 57.9776 94.6234 57.6421 93.7216C57.3909 93.0485 56.9806 92.4339 56.6323 91.7997C56.2788 91.1555 56.3695 90.2507 56.8151 89.6713C57.0217 89.4028 57.2218 89.0976 57.3153 88.7773C58.0366 86.2955 58.7096 83.7978 59.4488 81.321C59.6669 80.5926 60.0858 79.9261 60.3521 79.2085C60.694 78.2922 61.1266 77.3701 61.2425 76.4185C61.4052 75.0905 61.7946 73.905 62.5237 72.8002C62.695 72.5389 62.8426 72.1848 62.8203 71.8875C62.7145 70.4997 63.1341 69.2718 63.702 68.0273C64.3901 66.5157 64.8645 64.9077 65.5274 63.3825C66.168 61.909 67.7523 60.7955 69.5359 61.2116C71.8652 61.7565 73.9936 62.7541 76.1983 63.6085C77.9517 64.2879 79.7699 64.9861 81.7183 65.0336C81.8925 65.038 82.0689 65.0516 82.2395 65.0869C83.6805 65.3928 83.6747 65.3943 83.7064 66.8598C83.7194 67.4478 83.6423 68.1741 84.3398 68.3735C85.0215 68.5671 85.4389 67.9653 85.8262 67.4896C85.9615 67.324 86.0875 67.116 86.122 66.9116C86.2437 66.2184 86.6748 66.2155 87.1952 66.3847C88.8817 66.9332 90.566 67.491 92.2532 68.0337C92.667 68.1683 92.7326 68.3699 92.4518 68.6959C92.1956 68.9954 91.9638 69.3214 91.6802 69.5942C91.2894 69.9714 91.0065 70.3515 91.3952 70.9338C90.4515 71.2497 90.4386 71.2512 90.5962 72.2373C90.6624 72.6569 90.589 72.9578 90.1823 73.1629C89.2409 73.6409 88.8291 74.568 88.3332 75.4173C88.2742 75.5152 88.254 75.6916 88.3023 75.7887C88.5902 76.361 88.267 76.7425 87.8675 77.021C86.8663 77.7207 86.7655 78.6341 87.1657 79.8073C87.3413 79.5237 87.4803 79.2948 87.6242 79.0703C87.987 78.5045 88.2375 77.8531 88.9911 77.6307C89.1566 77.5825 89.2538 77.2528 89.3546 77.0404C89.654 76.4085 89.8815 75.7333 90.2471 75.1424C90.6603 74.473 91.2325 74.3916 91.7882 74.9509C92.3957 75.5634 92.8844 76.2947 93.5373 77.1146C92.5145 77.4284 91.6709 77.7012 90.8172 77.9438C89.1905 78.4066 89.2128 78.4009 89.0847 80.1032C88.9515 81.863 89.4942 83.3494 90.7668 84.5608C92.5879 86.2941 94.6637 87.635 97.0498 88.4354C99.0401 89.1034 100.221 88.5549 101.114 86.6655C101.49 85.8723 101.826 85.056 102.269 84.301C103.03 83.0053 103.908 82.7318 105.332 83.1846C106.893 83.6805 108.49 83.7863 110.115 83.574C110.286 83.5509 110.558 83.7158 110.647 83.8712C110.704 83.9727 110.566 84.2765 110.43 84.3837C109.509 85.115 108.553 85.8024 107.638 86.5402C107.375 86.7526 107.211 87.0873 107.01 87.3557C109.138 90.0024 114.508 91.7565 116.408 90.4177C116.513 90.5019 116.648 90.5782 116.741 90.6891C116.988 90.9828 117.209 90.9993 117.409 90.656C117.601 90.3263 117.821 90.209 118.222 90.3486C118.399 90.4091 118.704 90.2925 118.874 90.1579C119.717 89.4921 120.555 88.8169 121.349 88.0935C121.536 87.9229 121.626 87.5494 121.61 87.2773C121.584 86.8454 121.412 86.4243 121.34 85.9932C121.3 85.7564 121.253 85.3576 121.362 85.2935C121.596 85.1553 121.962 85.0877 122.217 85.169C122.905 85.3864 123.561 85.7045 124.236 85.9687C124.869 86.2149 125.512 86.433 126.144 86.6842C126.417 86.7929 126.668 86.9541 126.94 87.0973C125.941 87.7408 125.011 88.3397 123.987 89.0012C125.297 90.0715 126.229 91.4189 127.975 91.6809C129.6 91.925 131.203 92.3086 132.818 92.6167C133.074 92.6649 133.343 92.6555 133.606 92.6455C134.369 92.6188 134.478 92.4993 134.445 91.7198C134.942 91.8451 135.151 91.6054 135.238 91.1346C135.32 90.6891 135.776 90.507 136.201 90.7164C136.456 90.8417 136.697 91.0015 136.938 91.1505C138.151 91.8998 138.14 91.8947 137.534 93.1493C137.458 93.3077 137.485 93.6064 137.589 93.7467C138.487 94.9625 139.387 96.1789 140.34 97.3514C141.127 98.3188 141.971 99.2416 142.823 100.153C143.19 100.547 143.619 100.778 144.233 100.525C144.783 100.299 144.999 100.55 145.014 101.152C145.019 101.375 145.15 101.7 145.322 101.792C145.98 102.142 146.165 102.723 146.204 103.378C146.25 104.144 146.301 104.917 146.259 105.68C146.183 107.087 146.326 108.44 146.972 109.715C147.154 110.073 147.249 110.416 146.946 110.814C146.828 110.968 146.936 111.352 147.03 111.597C147.281 112.246 147.731 112.872 146.867 113.442C146.74 113.527 146.704 113.922 146.781 114.111C147.421 115.686 146.961 117.181 146.507 118.68C146.351 119.201 146.177 119.717 145.981 120.324Z" fill="#FFD94A"/>
<path fill-rule="evenodd" clip-rule="evenodd" d="M91.3966 70.9352C90.453 71.2512 90.44 71.2527 90.5977 72.2388C90.6639 72.6584 90.5905 72.9593 90.1838 73.1644C89.2423 73.6424 88.8306 74.5694 88.3346 75.4188C88.2756 75.5167 88.2555 75.693 88.3037 75.7902C88.5916 76.3624 88.2684 76.7439 87.8689 77.0225C86.8677 77.7221 86.7669 78.6355 87.1671 79.8088C87.3428 79.5252 87.4817 79.2963 87.6257 79.0717C87.9884 78.506 88.2389 77.8546 88.9925 77.6321C89.1581 77.5839 89.2553 77.2543 89.356 77.0419C89.6555 76.4099 89.8829 75.7348 90.2486 75.1438C90.6617 74.4744 91.234 74.3931 91.7896 74.9524C92.3971 75.5649 92.8859 76.2962 93.5387 77.1161C92.5159 77.4299 91.6723 77.7027 90.8186 77.9452C89.1919 78.4081 89.2142 78.4023 89.0861 80.1046C88.9529 81.8645 89.4957 83.3509 90.7682 84.5623C92.5893 86.2955 94.6652 87.6365 97.0513 88.4369C99.0415 89.1049 100.222 88.5564 101.116 86.6669C101.491 85.8737 101.827 85.0575 102.27 84.3024C103.031 83.0068 103.909 82.7333 105.334 83.186C106.894 83.682 108.492 83.7878 110.117 83.5754C110.287 83.5524 110.56 83.7172 110.648 83.8727C110.706 83.9742 110.567 84.278 110.431 84.3852C109.511 85.1165 108.554 85.8039 107.639 86.5417C107.377 86.754 107.213 87.0887 107.011 87.3572C109.139 90.0039 114.51 91.758 116.409 90.4192C116.514 90.5034 116.65 90.5797 116.743 90.6906C116.989 90.9842 117.21 91.0008 117.411 90.6574C117.602 90.3278 117.822 90.2104 118.223 90.3501C118.4 90.4105 118.705 90.2939 118.875 90.1593C119.719 89.4935 120.557 88.8184 121.351 88.095C121.538 87.9244 121.628 87.5508 121.611 87.2788C121.585 86.8469 121.413 86.4258 121.341 85.9946C121.302 85.7578 121.255 85.3591 121.364 85.295C121.598 85.1568 121.963 85.0892 122.219 85.1705C122.907 85.3879 123.563 85.706 124.238 85.9702C124.87 86.2163 125.514 86.4344 126.145 86.6856C126.418 86.7943 126.67 86.9556 126.941 87.0988C125.942 87.7423 125.013 88.3412 123.989 89.0026C125.298 90.073 126.23 91.4204 127.976 91.6824C129.602 91.9264 131.205 92.3101 132.82 92.6181C133.075 92.6664 133.344 92.657 133.608 92.6469C134.371 92.6203 134.48 92.5008 134.446 91.7213C134.943 91.8465 135.153 91.6068 135.24 91.1361C135.322 90.6906 135.777 90.5084 136.203 90.7179C136.458 90.8431 136.698 91.0029 136.939 91.1519C138.153 91.9012 138.142 91.8962 137.536 93.1508C137.46 93.3091 137.487 93.6079 137.591 93.7482C138.489 94.9639 139.389 96.1804 140.342 97.3529C141.128 98.3203 141.973 99.2431 142.824 100.154C143.191 100.548 143.621 100.779 144.235 100.526C144.785 100.3 145 100.552 145.016 101.153C145.02 101.377 145.151 101.702 145.324 101.793C145.981 102.143 146.166 102.724 146.206 103.38C146.252 104.146 146.302 104.919 146.26 105.682C146.185 107.089 146.327 108.441 146.973 109.716C147.155 110.074 147.251 110.418 146.947 110.815C146.83 110.97 146.937 111.354 147.031 111.598C147.282 112.248 147.732 112.874 146.869 113.444C146.742 113.528 146.705 113.924 146.782 114.112C147.422 115.687 146.963 117.182 146.508 118.681C146.349 119.203 146.175 119.718 145.98 120.324C145.602 120.08 145.235 119.891 144.925 119.633C141.881 117.084 138.826 114.544 135.819 111.95C134.909 111.165 134.179 110.174 133.288 109.365C132.891 109.005 132.293 108.87 131.795 108.616C131.355 108.392 130.792 108.246 130.52 107.888C129.723 106.838 128.644 106.596 127.477 106.72C125.471 106.93 123.479 107.279 121.477 107.518C120.635 107.618 119.779 107.591 118.929 107.609C118.227 107.624 117.526 107.597 116.825 107.631C116.38 107.652 116 107.796 115.735 108.245C115.609 108.462 115.239 108.624 114.965 108.65C114.093 108.73 113.212 108.713 112.34 108.785C112.142 108.8 111.965 109.031 111.77 109.151C111.596 109.257 111.405 109.435 111.231 109.425C110.908 109.409 110.591 109.281 110.274 109.194C109.891 109.091 109.581 109.151 109.387 109.54C109.176 109.962 108.878 109.961 108.525 109.709C108.421 109.634 108.25 109.522 108.174 109.559C107.65 109.813 107.048 109.754 106.542 109.92C105.338 110.317 104.187 110.625 102.9 110.327C102.309 110.191 101.607 110.183 101.035 110.365C98.9062 111.045 96.7483 110.927 94.5716 110.852C93.687 110.822 92.7973 111.036 91.9077 111.094C90.6171 111.179 89.2999 111.539 88.0834 110.727C87.915 110.614 87.6278 110.643 87.4025 110.665C87.1887 110.686 86.8828 110.904 86.7885 110.827C85.8917 110.091 84.9121 110.967 83.9929 110.641C83.2918 110.393 82.5627 110.211 81.8314 110.069C81.447 109.994 81.0324 110.067 80.6322 110.072C80.4832 110.073 80.2809 110.133 80.1953 110.059C79.3272 109.325 78.2015 109.456 77.211 109.146C76.7928 109.014 76.3293 108.981 75.9485 108.785C75.5224 108.564 75.0877 108.269 74.8026 107.896C74.4679 107.456 74.1476 107.056 73.5847 106.982C72.0588 106.786 70.8733 105.884 69.6482 105.086C67.3398 103.583 65.2848 101.765 63.2946 99.8686C62.8059 99.4029 62.2437 99.0084 61.6931 98.6118C61.0086 98.1181 60.3852 97.6531 60.3039 96.6677C60.2737 96.2963 59.7864 95.8349 59.3955 95.6485C58.5195 95.2331 57.9761 94.6242 57.6407 93.7223C57.3895 93.0493 56.9792 92.4346 56.6308 91.8005C56.2774 91.1562 56.3681 90.2515 56.8136 89.6721C57.0202 89.4036 57.2203 89.0984 57.3139 88.7781C58.0351 86.2962 58.7081 83.7986 59.4474 81.3218C59.6655 80.5934 60.0844 79.9268 60.3507 79.2092C60.6926 78.2929 61.1252 77.3709 61.2411 76.4193C61.4037 75.0913 61.7931 73.9058 62.5223 72.8009C62.6936 72.5396 62.8412 72.1855 62.8189 71.8882C62.713 70.5005 63.1327 69.2725 63.7006 68.028C64.3887 66.5164 64.8631 64.9084 65.526 63.3832C66.1666 61.9098 67.7508 60.7963 69.5345 61.2123C71.8637 61.7572 73.9921 62.7548 76.1968 63.6092C77.9503 64.2887 79.7684 64.9869 81.7169 65.0344C81.8911 65.0387 82.0674 65.0524 82.238 65.0877C83.679 65.3936 83.6733 65.395 83.705 66.8605C83.7179 67.4486 83.6409 68.1748 84.3384 68.3742C85.02 68.5678 85.4375 67.9661 85.8247 67.4903C85.9601 67.3248 86.086 67.1167 86.1206 66.9123C86.2422 66.2192 86.6734 66.2163 87.1938 66.3854C88.8802 66.9339 90.5646 67.4918 92.2517 68.0345C92.6656 68.1691 92.7311 68.3706 92.4504 68.6967C92.1942 68.9961 91.9624 69.3222 91.6788 69.595C91.2908 69.9729 91.0079 70.3522 91.3966 70.9352ZM79.6777 70.6487C79.5727 70.8445 79.4409 70.9993 79.4726 71.0482C79.9455 71.7759 79.325 72.1466 78.9565 72.549C77.9402 73.6611 77.4191 73.5689 76.7432 72.2013C76.4848 71.6773 76.1112 71.1238 77.1527 70.6286C76.7468 70.4969 76.4675 70.3234 76.3732 70.3954C76.2256 70.5077 76.1652 70.7783 76.1371 70.9921C76.0925 71.3059 76.1565 71.637 76.091 71.9429C75.8787 72.937 76.9303 74.0944 77.9452 73.9727C79.2682 73.8158 80.3378 71.9501 79.6777 70.6487ZM76.7597 69.4561C76.777 69.5165 76.795 69.5763 76.8123 69.6367C76.9973 69.5914 77.201 69.5799 77.3629 69.4928C77.6695 69.3272 77.9582 69.1271 78.2418 68.9234C78.6477 68.6312 78.9673 68.6506 79.3006 69.0695C79.5856 69.428 79.9585 69.7152 80.3421 70.0816C80.6286 69.5295 80.6682 69.1358 80.2082 68.8701C79.6432 68.5448 79.0695 68.1029 78.4606 68.0302C78.1201 67.9891 77.6976 68.588 77.3219 68.9119C77.1239 69.081 76.9469 69.274 76.7597 69.4561ZM82.0955 81.5096C82.8607 81.681 82.9593 82.1215 82.7721 82.7563C82.6857 83.0486 82.7592 83.3897 82.762 83.8706C83.0334 83.6589 83.15 83.597 83.227 83.5027C83.6531 82.9809 83.538 82.1423 82.9686 81.3463C82.6303 80.8712 82.3748 80.9194 82.0955 81.5096ZM81.8796 84.0318C81.7407 83.5855 81.5276 83.1464 81.4837 82.6915C81.4455 82.2863 81.596 81.8645 81.6672 81.4254C80.6567 82.0509 80.6869 82.9687 81.8796 84.0318Z" fill="#FFD94A"/>
<path fill-rule="evenodd" clip-rule="evenodd" d="M97.0182 87.2032C94.7019 86.618 93.1738 85.1086 91.6889 83.5322C91.3614 83.1839 91.0079 82.852 90.6293 82.5605C90.1478 82.1891 89.8584 81.7832 90.1183 81.1548C90.1608 81.0555 90.1939 80.941 90.1903 80.8359C90.1701 80.4163 89.9779 79.9671 90.4451 79.6511C91.1987 79.1401 91.84 78.4282 92.8463 78.3822C94.242 78.3174 95.6369 78.2332 97.0319 78.154C98.3628 78.0791 99.6944 77.9884 101.027 77.9272C101.797 77.892 102.529 78.6154 102.676 79.5288C102.84 80.5437 102.648 81.5392 102.157 82.3993C101.205 84.0721 100.137 85.6787 99.1156 87.3126C98.8968 87.6638 98.6068 87.7459 98.2159 87.5955C97.7855 87.4313 97.3399 87.3075 97.0182 87.2032Z" fill="#FFD94A"/>
<path fill-rule="evenodd" clip-rule="evenodd" d="M108.345 87.3773C109.224 86.7295 109.902 86.0753 110.706 85.6643C112.476 84.7595 114.273 83.8828 116.129 83.1803C117.173 82.7844 118.358 82.7556 119.478 82.5598C119.875 82.4907 120.027 82.6858 120.079 83.0557C120.197 83.8813 120.274 84.7213 120.488 85.5239C120.833 86.8166 120.3 87.7121 119.304 88.3959C118.059 89.2495 116.706 89.8865 115.173 89.9736C114.828 89.9945 114.469 89.7361 114.111 89.626C113.804 89.5324 113.432 89.3229 113.187 89.4194C112.415 89.7217 111.705 89.6389 111.047 89.2258C110.166 88.6737 109.326 88.0525 108.345 87.3773Z" fill="#FFD94A"/>
<path fill-rule="evenodd" clip-rule="evenodd" d="M135.409 86.0508C135.343 86.2984 135.268 86.5445 135.217 86.7958C135.14 87.1772 135.128 87.5796 134.999 87.9424C134.826 88.4304 134.479 88.8666 134.909 89.4071C134.975 89.4899 134.818 89.8124 134.696 89.9729C133.764 91.1973 132.461 91.614 131.058 91.1958C129.364 90.6898 127.741 89.9405 126.09 89.2913C126.037 89.2718 126.004 89.1977 125.902 89.0782C126.278 88.8328 126.617 88.5535 127.003 88.3728C128.771 87.5415 130.537 86.7007 132.336 85.9442C132.969 85.6779 133.694 85.5736 134.387 85.5253C134.79 85.4973 135.211 85.7262 135.624 85.8392C135.552 85.9083 135.479 85.9795 135.409 86.0508Z" fill="#FFD94A"/>
<path fill-rule="evenodd" clip-rule="evenodd" d="M139.086 93.6784C141.295 93.1623 143.368 93.1666 145.415 94.003C145.991 94.2377 146.614 94.3744 147.228 94.4932C147.781 94.6005 148.218 95.1547 148.028 95.7615C147.896 96.1825 147.663 96.6425 147.335 96.9174C146.402 97.7078 145.41 98.4297 144.407 99.1272C144.265 99.2265 143.834 99.1265 143.694 98.9746C142.503 97.6919 141.344 96.3805 140.188 95.0654C139.817 94.6436 139.487 94.1866 139.086 93.6784Z" fill="#FFD94A"/>
<path fill-rule="evenodd" clip-rule="evenodd" d="M101.117 70.995C100.75 71.596 100.346 71.9638 99.6317 71.9775C99.2747 71.9854 98.922 72.2042 98.5672 72.3323C98.4693 72.3683 98.3635 72.477 98.2843 72.4576C97.617 72.2956 97.1312 72.7728 96.5662 72.9046C94.8495 73.3069 93.0975 73.6373 91.2138 73.1371C91.5406 72.6498 91.8098 72.1805 92.1474 71.7673C92.5173 71.3117 92.7023 70.8438 92.5915 70.2529C92.5253 69.8937 92.5411 69.5899 93.0428 69.4726C93.2731 69.4193 93.4322 69.0559 93.5689 68.8953C96.0515 69.5856 98.5592 70.2831 101.117 70.995Z" fill="#FFD94A"/>
<path fill-rule="evenodd" clip-rule="evenodd" d="M148.131 108.551C147.87 107.272 147.6 105.995 147.362 104.711C147.341 104.599 147.494 104.37 147.609 104.334C147.796 104.278 148.099 104.25 148.21 104.357C148.901 105.032 149.561 105.738 150.205 106.456C150.28 106.538 150.26 106.826 150.176 106.911C149.609 107.483 149.013 108.026 148.424 108.578C148.328 108.569 148.229 108.56 148.131 108.551Z" fill="#FFD94A"/>
<path fill-rule="evenodd" clip-rule="evenodd" d="M84.229 65.698C85.4397 65.788 85.4181 66.1004 85.2158 67.1412C85.1841 67.3075 84.8293 67.5285 84.6421 67.5126C84.4651 67.4975 84.1923 67.2197 84.1707 67.0318C84.121 66.6093 84.1995 66.1724 84.229 65.698Z" fill="#FFD94A"/>
<path fill-rule="evenodd" clip-rule="evenodd" d="M91.3527 71.0727C90.4091 71.388 90.3954 71.3901 90.553 72.3763C90.62 72.7952 90.5458 73.096 90.1399 73.3012C89.1984 73.7798 88.786 74.7062 88.29 75.5548C88.231 75.6542 88.2116 75.8305 88.2598 75.9277C88.5484 76.4992 88.2238 76.8807 87.8258 77.1592C86.8238 77.8589 86.7238 78.773 87.1232 79.9455C87.2996 79.6627 87.4378 79.4338 87.5825 79.2085C87.9438 78.6434 88.195 77.9913 88.9486 77.7696C89.1142 77.7207 89.2113 77.3917 89.3121 77.1794C89.6116 76.5467 89.8383 75.8723 90.2039 75.2813C90.6185 74.6119 91.1908 74.5306 91.745 75.0891C92.3525 75.7024 92.8412 76.433 93.4941 77.2535C92.472 77.5659 91.6284 77.8402 90.774 78.082C89.148 78.5456 89.171 78.5398 89.0422 80.2421C88.9083 82.002 89.4518 83.4884 90.7251 84.6998C92.5454 86.4323 94.6206 87.774 97.0081 88.5744C98.999 89.2423 100.179 88.6939 101.073 86.8044C101.448 86.0105 101.784 85.1943 102.227 84.4399C102.989 83.1436 103.867 82.8708 105.29 83.3235C106.851 83.8187 108.448 83.9253 110.074 83.7122C110.244 83.6892 110.515 83.8547 110.604 84.0095C110.662 84.111 110.524 84.4147 110.388 84.5212C109.467 85.254 108.51 85.9414 107.595 86.6792C107.333 86.8915 107.169 87.2262 106.968 87.494C109.095 90.1406 114.467 91.8948 116.365 90.5567C116.471 90.6409 116.606 90.7165 116.699 90.8273C116.946 91.1217 117.167 91.1376 117.367 90.7949C117.558 90.4653 117.778 90.3472 118.179 90.4861C118.356 90.548 118.662 90.4314 118.831 90.2968C119.676 89.631 120.514 88.9551 121.306 88.2318C121.493 88.0612 121.585 87.6869 121.567 87.4155C121.542 86.9836 121.369 86.5626 121.297 86.1314C121.258 85.8946 121.21 85.4966 121.32 85.4318C121.554 85.2943 121.92 85.2259 122.175 85.3073C122.863 85.5246 123.519 85.8435 124.194 86.1069C124.827 86.3545 125.471 86.5719 126.102 86.8231C126.374 86.9311 126.626 87.0931 126.897 87.2356C125.898 87.8791 124.969 88.4779 123.945 89.1394C125.255 90.2097 126.186 91.5572 127.932 91.8199C129.558 92.0632 131.161 92.4468 132.776 92.7549C133.031 92.8039 133.301 92.7938 133.564 92.7844C134.327 92.7578 134.436 92.6376 134.403 91.8581C134.899 91.9833 135.109 91.7436 135.196 91.2729C135.278 90.8273 135.733 90.6452 136.159 90.854C136.414 90.9792 136.654 91.139 136.895 91.2887C138.109 92.0373 138.098 92.0322 137.492 93.2876C137.416 93.4452 137.443 93.7439 137.546 93.885C138.445 95.1007 139.345 96.3164 140.298 97.489C141.084 98.4556 141.929 99.3791 142.779 100.292C143.147 100.684 143.577 100.915 144.191 100.664C144.74 100.437 144.956 100.688 144.971 101.291C144.976 101.513 145.107 101.838 145.279 101.93C145.937 102.28 146.122 102.859 146.162 103.516C146.208 104.282 146.258 105.054 146.216 105.818C146.14 107.226 146.283 108.577 146.928 109.852C147.111 110.211 147.207 110.554 146.903 110.952C146.786 111.106 146.893 111.49 146.987 111.734C147.239 112.384 147.688 113.01 146.825 113.581C146.697 113.664 146.661 114.061 146.738 114.249C147.378 115.823 146.919 117.319 146.464 118.818C146.305 119.338 146.131 119.854 145.936 120.461C145.559 120.216 145.191 120.028 144.881 119.769C141.837 117.22 138.782 114.68 135.775 112.085C134.865 111.3 134.136 110.31 133.244 109.502C132.847 109.141 132.249 109.007 131.751 108.753C131.311 108.528 130.748 108.383 130.476 108.024C129.679 106.974 128.6 106.732 127.434 106.855C125.428 107.067 123.435 107.415 121.432 107.654C120.591 107.755 119.735 107.728 118.885 107.745C118.184 107.76 117.482 107.733 116.781 107.767C116.336 107.789 115.956 107.932 115.692 108.382C115.565 108.598 115.196 108.761 114.92 108.787C114.049 108.867 113.168 108.849 112.296 108.921C112.098 108.937 111.921 109.168 111.726 109.287C111.552 109.393 111.361 109.571 111.187 109.562C110.865 109.545 110.548 109.417 110.23 109.33C109.847 109.226 109.537 109.288 109.344 109.676C109.132 110.098 108.835 110.097 108.482 109.845C108.376 109.771 108.207 109.658 108.131 109.695C107.606 109.95 107.004 109.89 106.498 110.056C105.294 110.454 104.143 110.761 102.856 110.464C102.264 110.328 101.564 110.319 100.991 110.502C98.863 111.182 96.7036 111.063 94.5284 110.989C93.6438 110.958 92.7542 111.172 91.8638 111.231C90.5746 111.315 89.256 111.675 88.0403 110.863C87.8718 110.751 87.5853 110.78 87.3593 110.801C87.1456 110.822 86.8396 111.04 86.7446 110.963C85.8478 110.227 84.8681 111.104 83.9497 110.778C83.2486 110.529 82.5202 110.347 81.7882 110.205C81.4038 110.13 80.9892 110.204 80.589 110.208C80.4407 110.21 80.2377 110.27 80.1514 110.197C79.284 109.462 78.1576 109.593 77.1678 109.282C76.7489 109.151 76.2861 109.119 75.9039 108.922C75.4792 108.701 75.0437 108.406 74.7594 108.032C74.424 107.593 74.1044 107.192 73.5408 107.12C72.0149 106.924 70.8301 106.021 69.6043 105.223C67.2959 103.719 65.2409 101.902 63.2514 100.005C62.762 99.5396 62.1998 99.1459 61.6492 98.7486C60.9654 98.2555 60.3413 97.7898 60.26 96.8037C60.2298 96.4338 59.7418 95.9716 59.3516 95.7859C58.4756 95.3699 57.9322 94.761 57.5968 93.8598C57.3456 93.1861 56.9346 92.5721 56.5869 91.938C56.2335 91.293 56.3242 90.389 56.7705 89.8095C56.9763 89.5411 57.1764 89.2359 57.2693 88.9156C57.9912 86.433 58.6642 83.9353 59.4034 81.4593C59.6215 80.7294 60.0405 80.0643 60.3075 79.346C60.648 78.4297 61.0806 77.5083 61.1972 76.5553C61.3598 75.2281 61.75 74.0433 62.4777 72.9384C62.6497 72.6778 62.7973 72.323 62.7742 72.025C62.6691 70.638 63.0895 69.4093 63.656 68.1655C64.3448 66.6532 64.8191 65.0452 65.4821 63.5207C66.1227 62.0466 67.7062 60.9338 69.4899 61.3498C71.8191 61.894 73.9489 62.8916 76.1529 63.746C77.9071 64.4262 79.7245 65.1237 81.673 65.1704C81.8472 65.1755 82.0235 65.1899 82.1941 65.2251C83.6351 65.5303 83.6294 65.5325 83.6611 66.998C83.674 67.5853 83.597 68.3116 84.2952 68.511C84.9761 68.7053 85.3929 68.1036 85.7808 67.6278C85.9162 67.4623 86.0421 67.2542 86.0774 67.0484C86.1983 66.3559 86.6302 66.3538 87.1499 66.5229C88.8371 67.0707 90.5199 67.6285 92.2078 68.172C92.6224 68.3058 92.6872 68.5081 92.4072 68.8342C92.1502 69.1336 91.9178 69.4589 91.6356 69.7317C91.2455 70.1096 90.9633 70.4897 91.3527 71.0727ZM79.6331 70.787C79.5287 70.982 79.397 71.1375 79.428 71.1857C79.9002 71.9141 79.2804 72.2834 78.9119 72.6872C77.8955 73.7986 77.3751 73.7064 76.6985 72.3388C76.4394 71.8148 76.0666 71.262 77.1081 70.7654C76.7021 70.6344 76.4229 70.4616 76.3293 70.5329C76.1817 70.6452 76.1213 70.9158 76.0918 71.1296C76.0479 71.4434 76.1119 71.7745 76.0464 72.0811C75.8341 73.0737 76.8842 74.2326 77.8991 74.1109C79.2243 73.9533 80.2932 72.0876 79.6331 70.787ZM76.7151 69.5928C76.7331 69.6526 76.7511 69.713 76.7684 69.7735C76.9541 69.7281 77.157 69.7173 77.3197 69.6303C77.6256 69.4647 77.9143 69.2639 78.1979 69.0609C78.6045 68.7687 78.9227 68.7881 79.2574 69.207C79.5424 69.564 79.9153 69.852 80.2982 70.2183C80.584 69.6662 80.6235 69.2732 80.1643 69.0084C79.5986 68.6823 79.0249 68.2396 78.4167 68.1669C78.0755 68.1252 77.6537 68.7255 77.278 69.0479C77.0793 69.2185 76.9015 69.4114 76.7151 69.5928ZM82.0516 81.6478C82.8175 81.8192 82.9161 82.2597 82.7275 82.8945C82.6418 83.1868 82.7153 83.5272 82.7181 84.008C82.9895 83.7964 83.1068 83.7352 83.1838 83.6409C83.6092 83.1191 83.4941 82.2805 82.9247 81.4845C82.5857 81.0094 82.3309 81.0569 82.0516 81.6478ZM81.835 84.1686C81.696 83.7223 81.483 83.2839 81.4398 82.8283C81.4002 82.4231 81.5514 82.0013 81.6226 81.5629C80.6135 82.1884 80.643 83.1061 81.835 84.1686Z" fill="#CD9A2B"/>
<path fill-rule="evenodd" clip-rule="evenodd" d="M96.9728 87.3414C94.6573 86.7555 93.1292 85.2461 91.645 83.6697C91.3167 83.3213 90.9633 82.9902 90.5847 82.698C90.1032 82.3266 89.8131 81.9214 90.0737 81.293C90.1161 81.1929 90.1492 81.0792 90.1449 80.9734C90.1255 80.5545 89.934 80.1053 90.4004 79.7893C91.1533 79.2783 91.794 78.5664 92.8009 78.5189C94.1959 78.4556 95.5923 78.3714 96.9865 78.2922C98.3181 78.2173 99.649 78.1259 100.982 78.0654C101.752 78.0302 102.484 78.7543 102.63 79.6663C102.794 80.6812 102.602 81.6773 102.112 82.5361C101.159 84.2088 100.092 85.8161 99.071 87.4501C98.8515 87.8006 98.5614 87.8834 98.1698 87.7336C97.7408 87.5688 97.296 87.445 96.9728 87.3414Z" fill="#CD9A2B"/>
<path fill-rule="evenodd" clip-rule="evenodd" d="M108.302 87.5141C109.18 86.8663 109.858 86.2127 110.662 85.8017C112.432 84.8977 114.23 84.0203 116.085 83.3177C117.13 82.9226 118.314 82.8938 119.435 82.698C119.831 82.6289 119.982 82.824 120.035 83.1939C120.152 84.0195 120.23 84.8595 120.443 85.6614C120.788 86.9548 120.257 87.8495 119.26 88.5333C118.015 89.387 116.663 90.0247 115.129 90.1118C114.784 90.132 114.426 89.8729 114.067 89.7635C113.76 89.6706 113.388 89.4611 113.142 89.5569C112.372 89.8592 111.662 89.7764 111.004 89.364C110.122 88.8119 109.281 88.19 108.302 87.5141Z" fill="#CD9A2B"/>
<path fill-rule="evenodd" clip-rule="evenodd" d="M135.364 86.1875C135.299 86.4359 135.223 86.682 135.172 86.9325C135.095 87.314 135.083 87.7171 134.955 88.0792C134.781 88.5672 134.434 89.0041 134.864 89.5439C134.929 89.6274 134.773 89.9499 134.652 90.1097C133.719 91.334 132.416 91.7508 131.015 91.3326C129.32 90.8266 127.697 90.0773 126.045 89.428C125.992 89.4072 125.959 89.3345 125.857 89.2143C126.234 88.9695 126.573 88.6895 126.959 88.5089C128.726 87.6775 130.492 86.8368 132.291 86.0796C132.925 85.814 133.65 85.7096 134.342 85.6614C134.745 85.634 135.166 85.8615 135.579 85.9752C135.507 86.0465 135.435 86.117 135.364 86.1875Z" fill="#CD9A2B"/>
<path fill-rule="evenodd" clip-rule="evenodd" d="M139.042 93.8159C141.251 93.3005 143.324 93.3048 145.371 94.1405C145.947 94.3751 146.57 94.5119 147.184 94.6307C147.737 94.7372 148.174 95.2929 147.984 95.8997C147.852 96.3207 147.619 96.7792 147.29 97.0556C146.358 97.8452 145.366 98.5672 144.363 99.2654C144.221 99.364 143.79 99.2647 143.65 99.1128C142.459 97.8294 141.299 96.5187 140.144 95.2029C139.772 94.7811 139.443 94.324 139.042 93.8159Z" fill="#CD9A2B"/>
<path fill-rule="evenodd" clip-rule="evenodd" d="M101.073 71.1317C100.707 71.732 100.301 72.1006 99.5878 72.1142C99.2308 72.1214 98.8774 72.341 98.5233 72.4691C98.4246 72.5051 98.3188 72.6138 98.2389 72.5951C97.5724 72.4324 97.0873 72.9103 96.5222 73.042C94.8055 73.4437 93.0529 73.7748 91.1685 73.2738C91.496 72.7872 91.7659 72.3179 92.1027 71.9041C92.4727 71.4492 92.6577 70.9806 92.5469 70.3896C92.4806 70.0297 92.4957 69.7253 92.9982 69.6094C93.2285 69.5561 93.3876 69.1926 93.5243 69.0321C96.0069 69.7231 98.5153 70.4206 101.073 71.1317Z" fill="#CD9A2B"/>
<path fill-rule="evenodd" clip-rule="evenodd" d="M148.087 108.689C147.826 107.41 147.556 106.131 147.317 104.848C147.297 104.736 147.45 104.508 147.565 104.472C147.752 104.414 148.055 104.387 148.166 104.494C148.857 105.168 149.517 105.875 150.161 106.593C150.236 106.676 150.216 106.963 150.132 107.048C149.565 107.619 148.968 108.163 148.38 108.715C148.283 108.705 148.185 108.698 148.087 108.689Z" fill="#CD9A2B"/>
<path fill-rule="evenodd" clip-rule="evenodd" d="M84.1843 65.8362C85.395 65.9255 85.3742 66.2386 85.1726 67.2794C85.1402 67.445 84.7861 67.6659 84.5982 67.6508C84.4212 67.6357 84.1491 67.3572 84.1268 67.1693C84.0764 66.7468 84.1556 66.3091 84.1843 65.8362Z" fill="#CD9A2B"/>
<path fill-rule="evenodd" clip-rule="evenodd" d="M79.6777 70.6487C80.3378 71.9501 79.2682 73.8151 77.9452 73.9727C76.9303 74.0944 75.8787 72.937 76.091 71.9429C76.1573 71.637 76.0932 71.3052 76.1371 70.9921C76.1652 70.7783 76.2256 70.5077 76.3732 70.3954C76.4675 70.3234 76.7468 70.4976 77.1527 70.6286C76.1112 71.1238 76.484 71.6773 76.7432 72.2013C77.419 73.5689 77.9402 73.6611 78.9565 72.549C79.325 72.1466 79.9455 71.7759 79.4726 71.0482C79.4409 71 79.5727 70.8452 79.6777 70.6487Z" fill="#FFD94A"/>
<path fill-rule="evenodd" clip-rule="evenodd" d="M76.7597 69.4561C76.9469 69.2739 77.1239 69.081 77.3219 68.9119C77.6976 68.5887 78.1201 67.9898 78.4606 68.0301C79.0695 68.1028 79.6432 68.5448 80.2082 68.8701C80.6682 69.135 80.6286 69.5295 80.3421 70.0815C79.9585 69.7152 79.5856 69.428 79.3006 69.0695C78.9673 68.6506 78.6484 68.6312 78.2418 68.9234C77.9582 69.1271 77.6695 69.3272 77.3629 69.4928C77.201 69.5799 76.9973 69.5914 76.8123 69.6367C76.795 69.5763 76.7777 69.5165 76.7597 69.4561Z" fill="#FFD94A"/>
<path fill-rule="evenodd" clip-rule="evenodd" d="M82.0955 81.5096C82.3748 80.9194 82.6303 80.8712 82.9693 81.3462C83.5387 82.1423 83.6539 82.9809 83.2277 83.5027C83.1507 83.597 83.0334 83.6589 82.7628 83.8706C82.7599 83.3897 82.6865 83.0485 82.7728 82.7563C82.96 82.1215 82.8614 81.681 82.0955 81.5096Z" fill="#FFD94A"/>
<path fill-rule="evenodd" clip-rule="evenodd" d="M81.8796 84.0318C80.6876 82.9686 80.6574 82.0509 81.6672 81.4254C81.596 81.8638 81.4455 82.2856 81.4837 82.6915C81.5269 83.1464 81.7399 83.5855 81.8796 84.0318Z" fill="#FFD94A"/>
<path d="M58.6254 156.581C59.1105 156.843 59.7202 157.219 60.4363 157.776C61.3159 158.459 61.8011 159.165 61.9234 159.851C62.0472 160.472 61.8824 161.148 61.4052 161.762C60.92 162.385 60.3543 162.733 59.7288 162.821C58.8686 162.956 57.9027 162.615 57.0339 161.939C56.7683 161.732 56.5308 161.531 56.3659 161.321L54.2188 164.082L53.3299 163.391L58.6254 156.581ZM56.9303 160.595C57.085 160.797 57.3139 161.009 57.6105 161.24C58.6837 162.075 59.7439 162.063 60.4831 161.111C61.1907 160.201 60.8884 159.26 59.9073 158.497C59.5186 158.194 59.1983 157.995 59.0133 157.916L56.9303 160.595Z" fill="#CD9A2B"/>
<path d="M60.92 165.678L58.6232 167.434L57.6601 166.777L65.0329 161.24L66.1565 162.006L63.6941 170.897L62.6994 170.218L63.4775 167.424L60.92 165.678ZM63.7812 166.564L64.4924 164.007C64.6529 163.427 64.8379 162.926 65.0164 162.435L64.9948 162.42C64.596 162.775 64.1785 163.133 63.7402 163.477L61.6103 165.081L63.7812 166.564Z" fill="#CD9A2B"/>
<path d="M65.6685 170.481C65.9456 171.005 66.4487 171.605 67.1174 172.001C68.11 172.587 68.9997 172.407 69.4481 171.649C69.8641 170.947 69.7007 170.309 68.9176 169.317C67.9481 168.157 67.5666 167.072 68.1935 166.013C68.8867 164.842 70.3709 164.547 71.832 165.412C72.6008 165.867 73.0528 166.376 73.2752 166.764L72.5396 167.397C72.374 167.118 72.0041 166.598 71.3239 166.195C70.2982 165.587 69.5453 165.97 69.2415 166.482C68.8255 167.185 69.0774 167.801 69.8771 168.816C70.8574 170.059 71.141 171.055 70.4882 172.159C69.8015 173.318 68.349 173.813 66.5761 172.764C65.8513 172.335 65.1855 171.655 64.9422 171.149L65.6685 170.481Z" fill="#CD9A2B"/>
<path d="M71.4124 173.815C71.7205 174.322 72.2596 174.889 72.952 175.243C73.9785 175.769 74.8559 175.534 75.2575 174.75C75.6297 174.023 75.4267 173.396 74.5838 172.455C73.5466 171.355 73.0989 170.296 73.6603 169.201C74.28 167.989 75.7448 167.604 77.2557 168.378C78.051 168.785 78.5326 169.266 78.7787 169.639L78.082 170.316C77.8991 170.047 77.4982 169.551 76.795 169.191C75.734 168.647 75.0056 169.075 74.7335 169.605C74.3614 170.332 74.6515 170.931 75.5109 171.896C76.5661 173.078 76.9094 174.054 76.325 175.196C75.7103 176.395 74.2901 176.979 72.4568 176.039C71.7068 175.655 71.0007 175.016 70.7272 174.526L71.4124 173.815Z" fill="#CD9A2B"/>
<path d="M80.6207 179.739L81.5787 170.782L82.6965 171.196L82.1329 175.698C81.9976 176.809 81.8378 177.91 81.691 178.754L81.7155 178.763C82.1502 177.999 82.7664 177.122 83.4372 176.169L86.0616 172.443L87.1664 172.853L86.623 177.377C86.4927 178.434 86.3516 179.487 86.1537 180.394L86.1774 180.404C86.6806 179.568 87.2492 178.742 87.8826 177.816L90.4947 174.087L91.5759 174.488L86.2213 181.815L85.1157 181.406L85.6642 176.759C85.7967 175.62 85.9234 174.755 86.1206 173.889L86.0968 173.879C85.6491 174.64 85.1697 175.373 84.4744 176.318L81.7277 180.149L80.6207 179.739Z" fill="#CD9A2B"/>
<path d="M93.4768 174.818L91.1965 183.25L90.1082 182.956L92.3878 174.524L93.4768 174.818Z" fill="#CD9A2B"/>
<path d="M96.5985 176.541L93.9936 176.026L94.18 175.085L100.521 176.34L100.335 177.28L97.7171 176.762L96.2077 184.387L95.0891 184.165L96.5985 176.541Z" fill="#CD9A2B"/>
<path d="M102.221 176.505L101.957 180.15L106.172 180.455L106.434 176.81L107.572 176.892L106.943 185.604L105.805 185.522L106.1 181.437L101.886 181.133L101.592 185.218L100.467 185.137L101.096 176.425L102.221 176.505Z" fill="#CD9A2B"/>
<path d="M118.805 184.267C118.424 184.529 117.631 184.849 116.579 184.994C114.141 185.333 112.094 184.048 111.7 181.213C111.325 178.505 112.905 176.417 115.586 176.045C116.663 175.896 117.375 176.032 117.692 176.145L117.549 177.093C117.097 176.947 116.473 176.877 115.755 176.976C113.728 177.257 112.561 178.739 112.876 181.01C113.169 183.127 114.576 184.318 116.68 184.026C117.36 183.931 118.033 183.694 118.452 183.413L118.805 184.267Z" fill="#CD9A2B"/>
<path d="M126.65 177.589C127.562 180.453 126.305 182.526 124.181 183.203C121.983 183.903 119.898 182.69 119.096 180.172C118.255 177.53 119.346 175.279 121.569 174.571C123.839 173.847 125.863 175.12 126.65 177.589ZM120.236 179.781C120.802 181.559 122.273 182.844 123.964 182.306C125.667 181.763 126.131 179.889 125.53 178C125.004 176.346 123.588 174.894 121.798 175.464C120.02 176.029 119.654 177.954 120.236 179.781Z" fill="#CD9A2B"/>
<path d="M130.073 180.925L126.276 173.064L127.384 172.528L131.825 175.289C132.853 175.929 133.708 176.537 134.47 177.162L134.488 177.139C133.887 176.134 133.401 175.189 132.81 173.964L131.221 170.676L132.178 170.214L135.975 178.075L134.948 178.57L130.525 175.788C129.554 175.177 128.595 174.533 127.788 173.873L127.758 173.902C128.295 174.865 128.775 175.798 129.406 177.105L131.029 180.464L130.073 180.925Z" fill="#CD9A2B"/>
<path d="M133.543 169.378L137.522 166.87L138.026 167.671L135.001 169.576L136.548 172.032L139.343 170.27L139.841 171.06L137.045 172.821L139.152 176.165L138.199 176.766L133.543 169.378Z" fill="#CD9A2B"/>
<path d="M139.539 165.379L144.683 172.433L143.773 173.098L138.628 166.042L139.539 165.379Z" fill="#CD9A2B"/>
<path d="M141.033 164.478C141.486 163.952 142.054 163.36 142.731 162.777C143.958 161.719 145.078 161.251 146.122 161.292C147.177 161.325 148.179 161.795 149.101 162.865C150.032 163.946 150.46 165.117 150.365 166.258C150.279 167.41 149.545 168.623 148.259 169.731C147.65 170.255 147.114 170.666 146.64 170.989L141.033 164.478ZM146.928 169.595C147.178 169.448 147.501 169.187 147.835 168.899C149.661 167.326 149.773 165.451 148.234 163.664C146.9 162.094 145.161 161.864 143.355 163.42C142.913 163.8 142.613 164.127 142.43 164.371L146.928 169.595Z" fill="#CD9A2B"/>
<path d="M153.638 158.805L151.293 161.256L153.567 163.431L156.18 160.699L156.864 161.352L153.471 164.899L147.164 158.865L150.421 155.46L151.105 156.113L148.626 158.706L150.619 160.612L152.964 158.16L153.638 158.805Z" fill="#CD9A2B"/>
<path d="M158.167 159.896L151.349 154.441L152.118 153.48L157.316 154.055C158.52 154.189 159.553 154.37 160.51 154.604L160.517 154.575C159.542 153.928 158.696 153.285 157.634 152.435L154.781 150.152L155.445 149.322L162.263 154.778L161.551 155.668L156.359 155.064C155.22 154.932 154.077 154.765 153.063 154.517L153.049 154.556C153.949 155.194 154.784 155.829 155.917 156.735L158.83 159.066L158.167 159.896Z" fill="#CD9A2B"/>
<path d="M166.828 147.539C166.771 147.999 166.485 148.805 165.898 149.689C164.534 151.742 162.214 152.425 159.827 150.84C157.55 149.326 157.031 146.757 158.53 144.5C159.132 143.593 159.707 143.15 160.001 142.988L160.617 143.723C160.208 143.965 159.741 144.386 159.339 144.991C158.206 146.697 158.544 148.554 160.455 149.824C162.236 151.008 164.062 150.742 165.238 148.971C165.618 148.399 165.887 147.737 165.955 147.237L166.828 147.539Z" fill="#CD9A2B"/>
<path d="M166.63 140.177L164.965 143.135L167.709 144.68L169.566 141.383L170.39 141.848L167.98 146.126L160.37 141.841L162.685 137.731L163.509 138.195L161.748 141.323L164.153 142.678L165.819 139.72L166.63 140.177Z" fill="#CD9A2B"/>
</svg>
