<svg width="187" height="190" viewBox="0 0 187 190" fill="none" xmlns="http://www.w3.org/2000/svg">
<path d="M103.353 189.576C57.6834 189.576 20.6627 147.267 20.6627 95.0765C20.6627 42.8853 57.6834 0.57663 103.353 0.57663C149.019 0.57663 186.042 42.8853 186.042 95.0765C186.042 147.267 149.02 189.576 103.353 189.576Z" fill="#FDC72F"/>
<path d="M20.6627 95.0768C20.6627 46.8079 52.3377 7.01656 93.227 1.30983C89.9059 0.843889 86.5302 0.577637 83.1014 0.577637C37.4335 0.577637 0.412041 42.8863 0.412041 95.0775C0.412041 147.268 37.4328 189.577 83.1014 189.577C86.5302 189.577 89.9052 189.31 93.227 188.847C52.3377 183.136 20.6627 143.346 20.6627 95.0768Z" fill="#E3AF24"/>
<path d="M20.6598 98.4549H0.415512C0.482785 100.726 0.610958 102.978 0.817026 105.204H21.0776C20.868 102.98 20.727 100.73 20.6598 98.4549Z" fill="#CD9A2B"/>
<path d="M21.4289 81.579H1.19241C0.911987 83.8032 0.713 86.0586 0.567123 88.3295H20.8142C20.9594 86.0614 21.1555 83.8068 21.4289 81.579Z" fill="#CD9A2B"/>
<path d="M22.5159 115.329H2.2617C2.70075 117.612 3.20707 119.861 3.7842 122.078H24.0313C23.4535 119.866 22.9514 117.614 22.5159 115.329Z" fill="#CD9A2B"/>
<path d="M27.2377 132.204H6.97436C7.83475 134.507 8.78294 136.75 9.79841 138.954H30.0554C29.0399 136.757 28.0981 134.507 27.2377 132.204Z" fill="#CD9A2B"/>
<path d="M24.9597 64.7046H4.72602C4.07099 66.9217 3.45703 69.1664 2.94363 71.455H23.2176C23.7282 69.177 24.3018 66.9188 24.9597 64.7046Z" fill="#CD9A2B"/>
<path d="M31.6799 47.8322H11.425C10.3146 50.0302 9.26589 52.2771 8.30708 54.5827H28.5712C29.5293 52.2778 30.5653 50.026 31.6799 47.8322Z" fill="#CD9A2B"/>
<path d="M45.4532 27.5829H25.1792C23.2587 29.7299 21.4324 31.9803 19.7046 34.3341H39.9729C41.6993 31.9803 43.5285 29.7299 45.4532 27.5829Z" fill="#CD9A2B"/>
<path d="M66.0883 10.7048H45.7903C42.3445 12.6968 39.0339 14.9507 35.882 17.4553H56.1624C59.3178 14.9543 62.6326 12.6989 66.0883 10.7048Z" fill="#CD9A2B"/>
<path d="M37.6021 152.455H17.345C18.9107 154.794 20.565 157.043 22.3162 159.204H42.5902C40.8361 157.043 39.1748 154.794 37.6021 152.455Z" fill="#CD9A2B"/>
<path d="M31.9157 169.329C34.6257 171.769 37.4675 174.037 40.4339 176.078H60.7355C57.7486 174.03 54.8827 171.778 52.1564 169.329H31.9157Z" fill="#CD9A2B"/>
<path d="M103.64 171.094H103.353C100.991 171.094 98.611 170.953 96.2819 170.676C94.433 170.452 93.1067 168.774 93.3318 166.922C93.5485 165.073 95.178 163.784 97.0821 163.972C99.1407 164.219 101.254 164.342 103.35 164.342C105.217 164.342 106.867 165.856 106.867 167.719C106.869 169.583 105.505 171.094 103.64 171.094ZM123.269 167.459C121.904 167.459 120.619 166.625 120.106 165.272C119.447 163.53 120.332 161.584 122.074 160.925C124.024 160.189 125.964 159.329 127.832 158.369C129.496 157.513 131.523 158.171 132.381 159.829C133.231 161.485 132.58 163.522 130.916 164.371C128.821 165.451 126.647 166.414 124.453 167.239C124.064 167.389 123.664 167.459 123.269 167.459ZM77.5871 164.881C77.0709 164.881 76.5475 164.762 76.0618 164.512C73.9756 163.457 71.9199 162.266 69.9562 160.976C68.3933 159.957 67.9585 157.864 68.9804 156.305C70.0072 154.75 72.0926 154.311 73.6555 155.333C75.4138 156.484 77.25 157.552 79.116 158.496C80.7808 159.34 81.438 161.371 80.5953 163.031C80.004 164.207 78.8185 164.881 77.5871 164.881ZM145.464 152.872C144.602 152.872 143.746 152.549 143.09 151.9C141.764 150.587 141.749 148.451 143.059 147.125C144.534 145.64 145.956 144.043 147.308 142.39C148.484 140.946 150.607 140.725 152.051 141.901C153.503 143.079 153.715 145.205 152.543 146.65C151.059 148.471 149.482 150.23 147.863 151.871C147.201 152.539 146.33 152.872 145.464 152.872ZM56.9682 148.123C55.9903 148.123 55.0237 147.701 54.3594 146.889C52.9007 145.116 51.4979 143.227 50.1807 141.273C49.1348 139.73 49.5399 137.631 51.0822 136.584C52.6309 135.545 54.7234 135.95 55.7729 137.497C56.9753 139.274 58.257 141 59.5834 142.613C60.7617 144.054 60.5557 146.18 59.1075 147.361C58.4801 147.874 57.7203 148.123 56.9682 148.123ZM160.291 130.78C159.841 130.78 159.385 130.69 158.944 130.5C157.236 129.753 156.457 127.767 157.198 126.055C158.046 124.112 158.815 122.1 159.501 120.086C160.097 118.32 162.011 117.371 163.78 117.961C165.542 118.559 166.494 120.473 165.899 122.238C165.153 124.438 164.31 126.629 163.392 128.752C162.831 130.02 161.592 130.78 160.291 130.78ZM44.1028 124.82C42.6985 124.82 41.3828 123.937 40.9055 122.532C40.1599 120.345 39.4956 118.091 38.9319 115.843C38.4865 114.034 39.5863 112.204 41.392 111.757C43.1971 111.298 45.0304 112.406 45.4858 114.213C45.9956 116.275 46.6067 118.345 47.2915 120.357C47.8991 122.115 46.9509 124.038 45.1891 124.639C44.8314 124.759 44.4646 124.82 44.1028 124.82ZM166.672 104.914C166.592 104.914 166.496 104.911 166.407 104.904C164.549 104.761 163.159 103.139 163.304 101.279C163.466 99.2444 163.54 97.1576 163.54 95.0757C163.54 93.2127 165.052 91.5904 166.915 91.5904C168.783 91.5904 170.29 92.9903 170.29 94.8562V95.0764C170.29 97.3346 170.206 99.595 170.033 101.799C169.896 103.571 168.42 104.914 166.672 104.914ZM39.786 98.4882C37.9228 98.4882 36.411 97.0167 36.411 95.1536V95.0764C36.411 92.7984 36.5059 90.4857 36.6843 88.2049C36.8266 86.3446 38.4865 84.9808 40.3135 85.1054C42.1695 85.2506 43.5596 86.8743 43.4145 88.7345C43.2495 90.8398 43.1617 92.9733 43.1617 95.0764C43.1609 96.9395 41.6526 98.4882 39.786 98.4882ZM164.455 78.3592C162.946 78.3592 161.566 77.3409 161.18 75.8085C160.668 73.7451 160.051 71.6802 159.359 69.6692C158.754 67.9031 159.7 65.9834 161.454 65.3787C163.239 64.7676 165.14 65.7136 165.747 67.474C166.497 69.6663 167.165 71.916 167.73 74.1593C168.182 75.97 167.085 77.8026 165.272 78.2544C164.998 78.3287 164.724 78.3592 164.455 78.3592ZM44.0553 72.2304C43.6977 72.2304 43.3302 72.1695 42.9754 72.0492C41.2065 71.4515 40.2618 69.5332 40.8623 67.7686C41.6087 65.5614 42.4585 63.3704 43.3875 61.2588C44.1396 59.5509 46.1132 58.7677 47.8283 59.5247C49.5363 60.2731 50.316 62.2644 49.5703 63.9695C48.7198 65.9055 47.9395 67.9137 47.2512 69.9347C46.776 71.3432 45.4624 72.2304 44.0553 72.2304ZM153.65 54.0261C152.569 54.0261 151.501 53.5064 150.853 52.5447C149.661 50.7893 148.38 49.0721 147.036 47.4385C145.848 46.0003 146.06 43.8717 147.498 42.6863C148.941 41.5052 151.062 41.7112 152.25 43.148C153.726 44.9431 155.133 46.8338 156.441 48.7577C157.486 50.3042 157.076 52.3996 155.534 53.4462C154.957 53.8378 154.303 54.0261 153.65 54.0261ZM56.874 48.8958C56.1213 48.8958 55.3693 48.6494 54.7376 48.1367C53.293 46.9541 53.0834 44.8326 54.2617 43.3888C55.7431 41.5717 57.323 39.8177 58.9489 38.1777C60.2689 36.8514 62.4018 36.8472 63.7217 38.1572C65.0516 39.4707 65.0587 41.6064 63.7416 42.9299C62.2672 44.4184 60.8396 46.0116 59.4857 47.6587C58.8214 48.4745 57.8499 48.8958 56.874 48.8958ZM134.778 35.295C134.143 35.295 133.505 35.1165 132.934 34.7476C131.169 33.5941 129.329 32.5333 127.466 31.6C125.806 30.763 125.139 28.7272 125.978 27.0638C126.815 25.3997 128.836 24.7284 130.507 25.5725C132.588 26.6191 134.648 27.8066 136.626 29.0961C138.189 30.113 138.631 32.2054 137.612 33.7668C136.959 34.7547 135.878 35.295 134.778 35.295ZM77.4589 32.0922C76.2268 32.0922 75.0449 31.4201 74.4451 30.2525C73.6017 28.5884 74.256 26.5575 75.9173 25.7099C78.0261 24.6371 80.2037 23.6719 82.3876 22.859C84.1487 22.2004 86.0791 23.0913 86.7348 24.8354C87.3849 26.5809 86.4983 28.5239 84.7563 29.1797C82.8096 29.9097 80.8651 30.763 78.9913 31.7218C78.4978 31.9704 77.9752 32.0922 77.4589 32.0922ZM109.88 26.1864C109.755 26.1864 109.623 26.1794 109.492 26.1631C107.456 25.9266 105.394 25.809 103.353 25.809C101.488 25.809 99.9062 24.2958 99.9062 22.4327C99.9062 20.5696 101.344 19.0571 103.208 19.0571H103.353C105.651 19.0571 107.979 19.1931 110.264 19.4586C112.116 19.6718 113.444 21.3493 113.228 23.1982C113.032 24.9196 111.574 26.1864 109.88 26.1864Z" fill="#FFD94A"/>
<path d="M148.106 120.286C148.353 118.777 148.563 117.252 148.631 115.727C148.691 114.415 148.499 113.096 148.479 111.778C148.475 111.484 148.638 111.099 148.858 110.9C149.686 110.147 150.588 109.477 151.425 108.733C152.429 107.839 152.413 106.832 151.447 105.922C150.871 105.378 150.324 104.807 149.739 104.275C149.186 103.767 148.606 103.316 147.781 103.297C147.597 103.293 147.373 102.998 147.253 102.789C146.98 102.316 146.77 101.809 146.517 101.326C146.366 101.037 146.182 100.768 145.993 100.456C148.082 99.6028 148.744 97.7177 149.75 96.1507C150.137 95.5474 149.412 94.4038 148.674 94.3223C147.941 94.2423 147.245 94.1063 146.668 93.593C146.545 93.4853 146.357 93.4336 146.188 93.3954C145.275 93.1865 144.365 92.9514 143.441 92.802C142.741 92.6915 142.014 92.6165 141.311 92.6731C140.661 92.7269 140.145 92.6774 139.615 92.2277C138.954 91.6676 138.171 91.254 137.464 90.7449C136.53 90.0701 136.46 89.8166 136.797 88.7367C136.842 88.5901 136.871 88.4336 136.94 88.2998C137.559 87.1257 137.049 86.1322 136.423 85.1699C136.346 85.0495 136.133 84.9482 135.985 84.9511C134.847 84.9759 133.707 84.9992 132.572 85.0842C131.75 85.1451 131.064 85.5501 130.533 86.1797C130.015 86.7936 129.429 86.9572 128.659 86.6513C127.481 86.1811 126.284 85.7498 125.077 85.3497C124.311 85.0969 123.517 84.922 122.73 84.7301C122.206 84.6013 121.922 84.2762 121.765 83.765C121.248 82.1051 120.16 81.487 118.49 81.9529C117.756 82.159 117.008 82.4217 116.361 82.8147C115.035 83.6212 113.684 83.6793 112.245 83.2459C111.458 83.0094 110.697 82.7297 109.808 83.0151C109.443 83.1326 108.926 82.7028 108.461 82.6143C108.058 82.5399 107.63 82.6015 107.212 82.5938C106.425 82.5796 105.623 82.6369 104.855 82.5024C104.581 82.4542 104.316 81.9642 104.193 81.6243C104.137 81.4735 104.396 81.1003 104.599 80.987C105.082 80.7215 105.187 80.3271 105.059 79.8781C104.947 79.4879 104.795 79.0595 104.525 78.7727C104.316 78.5511 104.098 78.3465 103.872 78.1602C103.809 78.2487 103.744 78.3372 103.681 78.4243C103.632 78.4952 103.521 78.4215 103.571 78.3521C103.637 78.2594 103.704 78.168 103.77 78.0767C102.739 77.2581 101.535 76.8197 100.12 76.9649C98.8107 77.0987 97.5063 77.2942 96.2041 77.5017C95.5844 77.6015 95.1468 77.4854 94.877 76.8644C94.7304 76.5252 94.4712 76.2391 94.2836 75.9155C94.0357 75.4842 94.1922 75.1975 94.6837 75.1493C95.8372 75.0388 96.9972 74.9694 98.1415 74.7938C98.4864 74.7414 98.7781 74.3789 99.1103 74.1855C99.3609 74.039 99.6775 73.7833 99.8927 73.8414C100.786 74.0765 101.608 73.8265 102.287 73.3769C102.432 73.2813 102.576 73.1984 102.717 73.1241C102.878 72.6362 103.055 72.1547 103.244 71.6788C103.084 71.3524 102.93 71.0259 102.782 70.6952C101.531 70.3992 100.286 70.0756 99.0713 69.6692C98.1167 69.347 97.2394 68.7954 96.2834 68.4909C95.3968 68.209 94.4181 68.214 93.5365 67.9208C91.269 67.1681 89.037 66.3162 86.7851 65.5168C86.4225 65.3865 86.0437 65.247 85.6662 65.2278C84.8724 65.1847 84.1395 65.0423 83.408 64.6748C82.6737 64.3059 81.848 64.1034 81.0471 63.8853C80.3205 63.6863 79.5741 63.5616 78.8362 63.4009C78.5622 63.34 78.2903 63.2678 78.0169 63.2048C77.6275 63.1148 77.2259 63.0582 76.8513 62.9279C76.5872 62.8365 76.3741 62.6071 76.1127 62.5058C74.4323 61.8586 72.7456 61.2305 71.0616 60.596C71.0644 60.5875 71.0673 60.5783 71.0694 60.5698C70.687 60.4714 70.3039 60.3779 69.9215 60.2767C68.6893 59.9502 67.722 60.6846 66.6726 61.0882C65.6458 61.484 65.0729 62.3855 64.7287 63.2926C63.9314 65.4006 63.3153 67.576 62.6255 69.7237C61.9075 71.9599 61.1838 74.194 60.4735 76.4317C59.9686 78.0236 59.6032 79.6706 58.9623 81.203C57.7514 84.0964 56.8535 87.0655 56.2233 90.1288C56.1199 90.6323 55.8267 91.0968 55.6383 91.5854C55.4748 92.0103 55.3083 92.4316 55.1448 92.8565C55.1405 92.8898 55.1363 92.9245 55.132 92.9578C55.3183 93.207 55.4344 93.4931 55.4457 93.8224C55.6638 94.0879 55.8933 94.3443 56.1411 94.5822C56.1928 94.6303 56.1305 94.6997 56.0724 94.6856C56.1546 94.7614 56.2658 94.8739 56.2948 94.9292C57.2968 96.8807 58.825 98.3954 60.3815 99.8903C61.9167 101.366 63.3811 102.923 64.9943 104.307C66.3383 105.461 67.8523 106.416 69.2941 107.455C69.418 107.544 69.5688 107.67 69.6998 107.661C70.556 107.602 70.9214 108.281 71.4645 108.733C71.9383 109.126 72.5303 109.402 73.1067 109.639C74.3389 110.144 75.5845 110.617 76.8435 111.051C77.7783 111.375 78.6713 111.878 79.7441 111.702C80.0344 111.657 80.3708 111.967 80.7001 112.073C81.2765 112.257 81.8586 112.524 82.4478 112.553C84.4171 112.654 86.3928 112.694 88.365 112.702C91.1741 112.715 93.9862 112.644 96.7954 112.67C101.19 112.709 105.513 112.084 109.819 111.324C112.738 110.807 115.656 110.276 118.539 109.601C119.841 109.297 121.112 109.455 122.394 109.381C122.994 109.346 123.629 109.46 124.117 108.918C124.19 108.839 124.614 108.963 124.775 109.106C125.258 109.534 125.696 109.749 126.274 109.254C126.43 109.119 126.729 109.104 126.959 109.111C127.485 109.127 128.009 109.201 128.536 109.234C129.081 109.27 129.509 109.372 129.771 109.982C129.909 110.307 130.376 110.554 130.75 110.705C132.931 111.588 134.717 112.97 136.329 114.684C138.239 116.712 140.298 118.602 142.311 120.531C142.768 120.97 143.33 121.296 143.807 121.717C145.299 123.029 147.788 122.214 148.106 120.286ZM148.026 104.909C148.212 104.853 148.516 104.825 148.627 104.931C149.317 105.606 149.978 106.313 150.622 107.031C150.697 107.114 150.676 107.4 150.593 107.486C150.026 108.059 149.43 108.601 148.841 109.153C148.744 109.145 148.646 109.137 148.548 109.127C148.286 107.847 148.016 106.571 147.778 105.288C147.758 105.174 147.91 104.946 148.026 104.909ZM145.833 94.5801C146.409 94.8138 147.031 94.9504 147.645 95.0694C148.198 95.177 148.635 95.7308 148.446 96.3376C148.313 96.7582 148.081 97.2185 147.753 97.494C146.82 98.2835 145.828 99.0058 144.823 99.704C144.683 99.8024 144.251 99.7026 144.11 99.5504C142.919 98.268 141.76 96.9558 140.605 95.6415C140.233 95.2195 139.904 94.7621 139.502 94.2543C141.713 93.7388 143.786 93.7424 145.833 94.5801ZM132.753 86.5188C133.387 86.2533 134.111 86.1485 134.804 86.0996C135.206 86.072 135.628 86.3015 136.04 86.4133C135.968 86.4842 135.897 86.5543 135.824 86.6251C135.759 86.8729 135.683 87.1186 135.633 87.3707C135.556 87.7524 135.545 88.1546 135.416 88.5172C135.242 89.0051 134.895 89.4413 135.324 89.9815C135.391 90.0644 135.233 90.388 135.111 90.5473C134.181 91.7724 132.876 92.1888 131.474 91.7717C129.779 91.2654 128.155 90.5162 126.505 89.8661C126.451 89.847 126.42 89.7734 126.317 89.653C126.693 89.408 127.032 89.129 127.418 88.9477C129.189 88.1164 130.954 87.2758 132.753 86.5188ZM116.545 83.7558C117.591 83.3599 118.774 83.3309 119.896 83.1362C120.291 83.0668 120.443 83.2608 120.496 83.6311C120.614 84.4582 120.689 85.2981 120.904 86.0996C121.249 87.3913 120.717 88.2877 119.721 88.9711C118.476 89.8243 117.122 90.4617 115.59 90.5495C115.244 90.5714 114.886 90.3129 114.528 90.2025C114.221 90.1083 113.849 89.8994 113.604 89.995C112.832 90.2981 112.122 90.2152 111.464 89.8031C110.582 89.2501 109.742 88.629 108.762 87.9542C109.639 87.3056 110.318 86.6527 111.123 86.2406C112.893 85.3349 114.69 84.4596 116.545 83.7558ZM97.4468 78.7295C98.7774 78.6552 100.11 78.5638 101.442 78.5029C102.213 78.4683 102.944 79.1919 103.092 80.1047C103.255 81.1202 103.063 82.1158 102.574 82.9761C101.621 84.648 100.553 86.2554 99.5323 87.8891C99.3135 88.2403 99.0232 88.3217 98.6323 88.1723C98.2017 88.008 97.7563 87.8834 97.4341 87.7793C95.1178 87.1944 93.5896 85.684 92.1054 84.1084C91.7775 83.76 91.4234 83.4279 91.046 83.1376C90.5637 82.7658 90.2741 82.3587 90.534 81.7313C90.5772 81.6314 90.6098 81.5181 90.6062 81.4119C90.5857 80.9927 90.3938 80.543 90.8604 80.2279C91.6139 79.716 92.2555 79.005 93.2617 78.9597C94.6568 78.8945 96.0518 78.8103 97.4468 78.7295ZM92.5635 72.343C92.9324 71.8877 93.1187 71.4189 93.0075 70.8284C92.9417 70.4686 92.9579 70.1641 93.4593 70.048C93.6894 69.9942 93.8488 69.6302 93.9855 69.4702C96.4675 70.1606 98.9757 70.8588 101.533 71.5698C101.166 72.1717 100.761 72.5392 100.047 72.5533C99.6902 72.5618 99.3376 72.7799 98.9835 72.9088C98.8851 72.9449 98.7788 73.0526 98.7002 73.0334C98.0332 72.8713 97.5474 73.3486 96.9816 73.4803C95.2658 73.8825 93.5138 74.2132 91.6295 73.7139C91.9573 73.2253 92.2264 72.7566 92.5635 72.343ZM85.6315 67.7162C85.5997 67.8833 85.2442 68.1035 85.0572 68.0879C84.8802 68.0731 84.6076 67.7948 84.5856 67.6064C84.5361 67.1844 84.6147 66.7461 84.6437 66.273C85.8546 66.3637 85.8334 66.6767 85.6315 67.7162ZM146.399 120.899C146.022 120.654 145.655 120.467 145.344 120.209C142.3 117.658 139.245 115.118 136.238 112.525C135.328 111.741 134.598 110.749 133.707 109.941C133.31 109.58 132.713 109.446 132.214 109.191C131.774 108.968 131.212 108.822 130.94 108.463C130.142 107.413 129.063 107.173 127.895 107.296C125.89 107.506 123.898 107.854 121.895 108.094C121.054 108.194 120.197 108.167 119.347 108.185C118.646 108.2 117.944 108.172 117.244 108.207C116.798 108.229 116.418 108.371 116.154 108.821C116.028 109.038 115.657 109.2 115.383 109.225C114.512 109.305 113.631 109.288 112.757 109.359C112.561 109.375 112.382 109.606 112.188 109.725C112.014 109.832 111.823 110.009 111.649 109.999C111.325 109.983 111.008 109.856 110.691 109.769C110.308 109.665 109.998 109.725 109.803 110.114C109.593 110.538 109.294 110.536 108.941 110.284C108.838 110.21 108.667 110.097 108.59 110.133C108.066 110.387 107.464 110.328 106.958 110.496C105.755 110.892 104.604 111.2 103.316 110.902C102.724 110.766 102.023 110.758 101.45 110.94C99.3227 111.62 97.1636 111.501 94.9875 111.427C94.103 111.398 93.2136 111.611 92.3227 111.669C91.0325 111.753 89.7154 112.115 88.4995 111.302C88.331 111.189 88.0435 111.218 87.8183 111.24C87.6044 111.261 87.2985 111.479 87.2043 111.402C86.3078 110.666 85.3278 111.542 84.4093 111.217C83.7082 110.967 82.9789 110.787 82.2474 110.644C81.8628 110.569 81.4479 110.642 81.0485 110.647C80.8991 110.648 80.6972 110.709 80.6116 110.634C79.7427 109.901 78.6181 110.031 77.6267 109.721C77.2082 109.589 76.7451 109.557 76.3641 109.36C75.9378 109.14 75.503 108.844 75.2184 108.471C74.8834 108.031 74.5633 107.631 74.0004 107.558C72.4743 107.36 71.2889 106.458 70.0638 105.661C67.7553 104.158 65.701 102.341 63.7097 100.443C63.2218 99.9774 62.6588 99.5829 62.1086 99.1878C61.4238 98.6942 60.8007 98.2283 60.7199 97.2433C60.6902 96.873 60.203 96.4106 59.8121 96.2243C58.9361 95.8094 58.393 95.1997 58.0566 94.2975C57.806 93.6248 57.3952 93.0095 57.0468 92.3764C56.6928 91.732 56.7841 90.827 57.2295 90.2478C57.4363 89.9794 57.6367 89.6735 57.7302 89.3527C58.4518 86.8715 59.1238 84.374 59.8638 81.897C60.0819 81.1683 60.5004 80.5013 60.7667 79.7853C61.1087 78.8683 61.5414 77.9471 61.6575 76.9961C61.8197 75.6669 62.2092 74.4815 62.9393 73.3769C63.1106 73.1156 63.2586 72.7615 63.236 72.4641C63.1297 71.0769 63.5497 69.849 64.1176 68.6042C64.8059 67.0923 65.2804 65.4856 65.9432 63.9596C66.5833 62.4853 68.1681 61.3721 69.9519 61.7885C72.2817 62.3338 74.4097 63.3308 76.6141 64.1855C78.3675 64.866 80.186 65.5642 82.134 65.6116C82.3083 65.6159 82.4853 65.6293 82.6552 65.6655C84.0963 65.9714 84.0906 65.9728 84.1218 67.4386C84.1352 68.0263 84.0574 68.7522 84.7556 68.9518C85.4375 69.1452 85.8553 68.5426 86.2427 68.0681C86.3779 67.9024 86.504 67.6949 86.5387 67.4903C86.6598 66.797 87.091 66.7949 87.6122 66.9634C89.299 67.5108 90.983 68.0702 92.6712 68.6119C93.0847 68.7458 93.1506 68.9483 92.8694 69.2747C92.6131 69.575 92.3822 69.9 92.0976 70.1741C91.7067 70.5501 91.4248 70.9303 91.8136 71.5131C90.8704 71.8296 90.8562 71.8311 91.0141 72.8175C91.08 73.2367 91.007 73.5369 90.5998 73.743C89.6587 74.2202 89.2466 75.1479 88.7502 75.9976C88.6914 76.0946 88.6716 76.2717 88.7197 76.368C89.0072 76.9408 88.6843 77.3225 88.2857 77.6001C87.2843 78.2997 87.1831 79.2139 87.5846 80.3872C87.7602 80.104 87.8983 79.8739 88.042 79.6501C88.4046 79.0829 88.6546 78.4314 89.4095 78.2105C89.5752 78.1623 89.6722 77.8317 89.7727 77.6199C90.073 76.9876 90.3003 76.3113 90.6664 75.7222C91.0793 75.053 91.6514 74.9708 92.2073 75.5303C92.8142 76.1428 93.3042 76.8743 93.9557 77.695C92.9339 78.0073 92.0898 78.2813 91.2357 78.5235C89.6092 78.9866 89.6318 78.9809 89.5029 80.684C89.3698 82.4429 89.9129 83.93 91.1855 85.1416C93.0068 86.8743 95.0824 88.2162 97.4688 89.0157C99.4594 89.6834 100.641 89.1361 101.534 87.2468C101.91 86.453 102.246 85.6372 102.688 84.8817C103.449 83.5858 104.327 83.3132 105.752 83.7657C107.312 84.2621 108.909 84.3676 110.535 84.1544C110.705 84.1325 110.977 84.2968 111.066 84.4519C111.124 84.5545 110.986 84.8569 110.85 84.9652C109.928 85.6953 108.972 86.3843 108.058 87.1215C107.795 87.3346 107.63 87.6688 107.428 87.9372C109.557 90.5827 114.927 92.3382 116.827 90.9991C116.932 91.0834 117.067 91.1584 117.161 91.2703C117.407 91.5635 117.628 91.5805 117.827 91.237C118.019 90.9078 118.239 90.7902 118.64 90.9297C118.817 90.9906 119.123 90.8731 119.293 90.7385C120.135 90.0736 120.973 89.3966 121.769 88.6737C121.956 88.5037 122.045 88.1298 122.028 87.8579C122.002 87.4267 121.831 87.006 121.759 86.5741C121.718 86.3362 121.672 85.9382 121.781 85.8745C122.014 85.7364 122.381 85.6684 122.637 85.7498C123.324 85.9672 123.979 86.2852 124.655 86.5493C125.289 86.7957 125.932 87.0138 126.563 87.2659C126.836 87.375 127.087 87.5357 127.36 87.6795C126.36 88.3224 125.43 88.9215 124.407 89.5829C125.717 90.6536 126.649 92.0004 128.395 92.2617C130.02 92.5067 131.624 92.8898 133.238 93.1978C133.494 93.246 133.764 93.2368 134.026 93.2269C134.79 93.1992 134.897 93.0803 134.866 92.2999C135.363 92.426 135.572 92.1866 135.659 91.715C135.74 91.2696 136.197 91.0869 136.621 91.2972C136.877 91.4219 137.116 91.5805 137.358 91.7299C138.571 92.4798 138.56 92.4741 137.954 93.7296C137.879 93.8875 137.906 94.1864 138.01 94.3273C138.908 95.5431 139.808 96.759 140.761 97.9316C141.548 98.8982 142.392 99.8223 143.244 100.732C143.612 101.127 144.042 101.357 144.654 101.104C145.204 100.877 145.42 101.129 145.436 101.731C145.44 101.954 145.571 102.279 145.745 102.371C146.402 102.721 146.586 103.301 146.626 103.957C146.671 104.723 146.723 105.496 146.681 106.258C146.605 107.666 146.747 109.019 147.393 110.294C147.576 110.652 147.672 110.995 147.367 111.394C147.25 111.547 147.357 111.932 147.451 112.176C147.703 112.825 148.152 113.451 147.289 114.021C147.162 114.105 147.126 114.502 147.202 114.69C147.842 116.264 147.383 117.759 146.928 119.258C146.768 119.778 146.594 120.293 146.399 120.899Z" fill="#FFD94A"/>
<path fill-rule="evenodd" clip-rule="evenodd" d="M91.8129 71.5103C90.8696 71.8268 90.8555 71.8282 91.0134 72.8146C91.0793 73.2338 91.0063 73.5341 90.5991 73.7401C89.658 74.2174 89.2459 75.145 88.7495 75.9948C88.6907 76.0918 88.6709 76.2688 88.719 76.3651C89.0065 76.938 88.6836 77.3197 88.2849 77.5973C87.2836 78.2969 87.1824 79.2111 87.5839 80.3844C87.7595 80.1012 87.8976 79.871 88.0413 79.6473C88.4039 79.0801 88.6539 78.4286 89.4088 78.2077C89.5745 78.1595 89.6715 77.8288 89.772 77.6171C90.0723 76.9847 90.2996 76.3085 90.6657 75.7193C91.0786 75.0502 91.6507 74.968 92.2066 75.5274C92.8135 76.1399 93.3035 76.8714 93.955 77.6921C92.9332 78.0044 92.0891 78.2785 91.235 78.5206C89.6085 78.9838 89.6311 78.9781 89.5022 80.6811C89.3691 82.4401 89.9122 83.9271 91.1848 85.1387C93.0061 86.8715 95.0817 88.2134 97.4681 89.0128C99.4587 89.6806 100.64 89.1332 101.533 87.244C101.909 86.4502 102.245 85.6344 102.688 84.8788C103.448 83.583 104.326 83.3104 105.751 83.7628C107.311 84.2592 108.909 84.3647 110.534 84.1516C110.704 84.1297 110.977 84.2939 111.065 84.449C111.123 84.5517 110.985 84.8541 110.849 84.9624C109.928 85.6925 108.971 86.3815 108.057 87.1186C107.794 87.3318 107.629 87.666 107.427 87.9344C109.556 90.5799 114.927 92.3353 116.826 90.9963C116.931 91.0805 117.066 91.1556 117.16 91.2675C117.406 91.5606 117.627 91.5776 117.826 91.2342C118.018 90.9049 118.238 90.7874 118.639 90.9269C118.816 90.9878 119.122 90.8702 119.292 90.7357C120.134 90.0708 120.973 89.3938 121.768 88.6708C121.955 88.5009 122.045 88.127 122.028 87.8551C122.002 87.4238 121.83 87.0032 121.758 86.5712C121.718 86.3333 121.671 85.9354 121.78 85.8716C122.014 85.7335 122.38 85.6656 122.636 85.747C123.324 85.9644 123.979 86.2823 124.654 86.5465C125.288 86.7929 125.931 87.011 126.563 87.2631C126.835 87.3721 127.087 87.5329 127.359 87.6766C126.359 88.3196 125.43 88.9187 124.406 89.58C125.716 90.6507 126.648 91.9976 128.394 92.2589C130.019 92.5039 131.624 92.8869 133.238 93.195C133.493 93.2431 133.763 93.2339 134.026 93.224C134.789 93.1964 134.897 93.0774 134.866 92.2971C135.362 92.4231 135.571 92.1838 135.658 91.7122C135.739 91.2668 136.196 91.0841 136.62 91.2944C136.876 91.419 137.115 91.5776 137.358 91.7271C138.571 92.4769 138.559 92.4713 137.954 93.7268C137.878 93.8847 137.906 94.1835 138.009 94.3244C138.907 95.5403 139.807 96.7561 140.76 97.9288C141.547 98.8953 142.391 99.8194 143.243 100.729C143.611 101.124 144.041 101.355 144.653 101.101C145.204 100.875 145.42 101.126 145.435 101.728C145.44 101.952 145.571 102.277 145.744 102.368C146.401 102.718 146.585 103.298 146.625 103.954C146.67 104.72 146.722 105.494 146.68 106.256C146.604 107.663 146.747 109.016 147.393 110.291C147.575 110.649 147.671 110.992 147.366 111.391C147.249 111.544 147.356 111.929 147.451 112.173C147.702 112.822 148.152 113.449 147.288 114.018C147.161 114.102 147.126 114.499 147.201 114.687C147.842 116.261 147.383 117.756 146.927 119.255C146.768 119.776 146.594 120.293 146.399 120.898C146.022 120.653 145.655 120.465 145.344 120.208C142.3 117.657 139.245 115.117 136.238 112.523C135.328 111.739 134.598 110.747 133.707 109.94C133.31 109.579 132.713 109.445 132.214 109.19C131.774 108.966 131.212 108.821 130.94 108.461C130.142 107.412 129.063 107.171 127.895 107.294C125.89 107.505 123.898 107.853 121.895 108.092C121.054 108.192 120.197 108.166 119.347 108.184C118.646 108.199 117.944 108.171 117.244 108.206C116.798 108.228 116.418 108.37 116.154 108.82C116.028 109.037 115.657 109.198 115.383 109.223C114.512 109.303 113.631 109.287 112.757 109.357C112.561 109.373 112.382 109.605 112.188 109.724C112.014 109.83 111.823 110.007 111.649 109.998C111.325 109.982 111.008 109.854 110.691 109.767C110.308 109.664 109.998 109.724 109.803 110.113C109.593 110.536 109.294 110.535 108.941 110.283C108.838 110.208 108.667 110.096 108.59 110.132C108.066 110.386 107.464 110.326 106.958 110.494C105.755 110.89 104.604 111.198 103.316 110.901C102.724 110.764 102.023 110.757 101.45 110.938C99.3227 111.619 97.1636 111.5 94.9875 111.425C94.103 111.396 93.2136 111.61 92.3227 111.668C91.0325 111.752 89.7154 112.113 88.4995 111.301C88.331 111.188 88.0435 111.217 87.8183 111.239C87.6044 111.259 87.2985 111.478 87.2043 111.401C86.3078 110.665 85.3278 111.54 84.4093 111.215C83.7082 110.966 82.9789 110.785 82.2474 110.642C81.8628 110.568 81.4479 110.641 81.0485 110.645C80.8991 110.647 80.6972 110.707 80.6116 110.632C79.7427 109.899 78.6181 110.029 77.6268 109.72C77.2082 109.588 76.7451 109.555 76.3641 109.358C75.9378 109.138 75.503 108.842 75.2184 108.469C74.8834 108.029 74.5633 107.629 74.0004 107.556C72.4743 107.359 71.2889 106.457 70.0638 105.66C67.7553 104.157 65.701 102.34 63.7097 100.442C63.2218 99.9759 62.6588 99.5815 62.1086 99.1864C61.4238 98.6928 60.8007 98.2269 60.7199 97.2419C60.6902 96.8715 60.203 96.4091 59.8121 96.2229C58.9361 95.8079 58.393 95.1983 58.0566 94.2961C57.806 93.6234 57.3952 93.008 57.0468 92.375C56.6928 91.7306 56.7841 90.8256 57.2295 90.2464C57.4363 89.978 57.6367 89.6721 57.7302 89.3513C58.4518 86.8701 59.1238 84.3725 59.8638 81.8955C60.0819 81.1669 60.5004 80.4998 60.7667 79.7839C61.1087 78.8669 61.5414 77.9456 61.6575 76.9946C61.8197 75.6655 62.2092 74.4801 62.9393 73.3755C63.1106 73.1142 63.2586 72.7601 63.236 72.4627C63.1297 71.0755 63.5497 69.8476 64.1176 68.6027C64.8059 67.0909 65.2804 65.4842 65.9432 63.9582C66.5833 62.4839 68.1681 61.3707 69.9519 61.7871C72.2817 62.3323 74.4097 63.3294 76.6141 64.1841C78.3675 64.8646 80.186 65.5628 82.1341 65.6102C82.3083 65.6145 82.4853 65.6279 82.6552 65.664C84.0963 65.97 84.0906 65.9714 84.1218 67.4372C84.1352 68.0249 84.0574 68.7507 84.7556 68.9504C85.4375 69.1437 85.8553 68.5411 86.2427 68.0667C86.3779 67.901 86.504 67.6935 86.5387 67.4889C86.6598 66.7956 87.091 66.7935 87.6122 66.962C89.299 67.5094 90.983 68.0688 92.6712 68.6105C93.0847 68.7444 93.1506 68.9469 92.8694 69.2733C92.6131 69.5736 92.3822 69.8986 92.0976 70.1726C91.706 70.5479 91.4241 70.9282 91.8129 71.5103ZM80.0925 71.2242C79.9891 71.4203 79.856 71.5754 79.8878 71.6236C80.3609 72.3508 79.7398 72.7219 79.3716 73.1241C78.3547 74.2358 77.8342 74.1445 77.158 72.7771C76.8995 72.2531 76.5256 71.6986 77.568 71.2044C77.1615 71.0727 76.8825 70.8985 76.7883 70.9707C76.641 71.0826 76.5801 71.3538 76.5525 71.5669C76.5079 71.8806 76.5716 72.2127 76.5058 72.5186C76.2933 73.5128 77.3456 74.6706 78.3604 74.5488C79.6832 74.3909 80.7525 72.5257 80.0925 71.2242ZM77.175 70.0317C77.1927 70.0926 77.2097 70.1521 77.2274 70.213C77.4122 70.1677 77.6161 70.1549 77.7776 70.0678C78.0842 69.9021 78.3731 69.7024 78.6564 69.4992C79.0629 69.2061 79.3815 69.2252 79.715 69.6444C80.0004 70.0041 80.3729 70.2902 80.7574 70.657C81.0435 70.1054 81.0832 69.7109 80.6236 69.4468C80.0585 69.1204 79.4856 68.6792 78.8759 68.6056C78.536 68.5652 78.1132 69.1643 77.7372 69.4879C77.5389 69.6571 77.3619 69.849 77.175 70.0317ZM82.5115 82.0853C83.2763 82.2567 83.3747 82.6964 83.1878 83.333C83.1014 83.6248 83.175 83.9668 83.1778 84.4462C83.4491 84.2345 83.5659 84.1736 83.6431 84.0794C84.0694 83.5568 83.9533 82.7184 83.3846 81.9217C83.0461 81.4473 82.7898 81.4947 82.5115 82.0853ZM82.2941 84.6076C82.1553 84.1608 81.9421 83.7211 81.8982 83.2672C81.86 82.8607 82.0101 82.4387 82.0824 82.0003C81.0718 82.627 81.1023 83.544 82.2941 84.6076Z" fill="#FFD94A"/>
<path fill-rule="evenodd" clip-rule="evenodd" d="M97.4334 87.7793C95.1171 87.1944 93.5889 85.684 92.1046 84.1084C91.7768 83.76 91.4227 83.4279 91.0453 83.1376C90.563 82.7658 90.2734 82.3586 90.5333 81.7313C90.5765 81.6314 90.609 81.5181 90.6055 81.4119C90.585 80.9927 90.3931 80.543 90.8597 80.2279C91.6132 79.716 92.2548 79.005 93.261 78.9597C94.6575 78.8945 96.0518 78.8103 97.4468 78.7303C98.7774 78.6559 100.11 78.5646 101.442 78.5037C102.213 78.469 102.944 79.1927 103.092 80.1054C103.255 81.1209 103.063 82.1165 102.574 82.9768C101.621 84.6487 100.553 86.2561 99.5323 87.8898C99.3135 88.241 99.0232 88.3224 98.6323 88.173C98.201 88.0073 97.7556 87.8827 97.4334 87.7793Z" fill="#FFD94A"/>
<path fill-rule="evenodd" clip-rule="evenodd" d="M108.762 87.9535C109.639 87.3049 110.318 86.652 111.123 86.2398C112.893 85.3356 114.69 84.4596 116.545 83.7558C117.591 83.3599 118.774 83.3309 119.896 83.1362C120.291 83.0668 120.443 83.2608 120.496 83.6311C120.614 84.4582 120.689 85.2981 120.904 86.0996C121.249 87.3913 120.717 88.2877 119.721 88.9711C118.476 89.8243 117.122 90.4617 115.59 90.5495C115.244 90.5714 114.886 90.3129 114.528 90.2025C114.221 90.1083 113.849 89.8994 113.604 89.995C112.832 90.2981 112.122 90.2152 111.464 89.8031C110.582 89.2494 109.743 88.6283 108.762 87.9535Z" fill="#FFD94A"/>
<path fill-rule="evenodd" clip-rule="evenodd" d="M135.825 86.6258C135.76 86.8736 135.684 87.1193 135.634 87.3714C135.557 87.7531 135.545 88.1553 135.417 88.5179C135.242 89.0058 134.895 89.442 135.325 89.9822C135.392 90.0651 135.234 90.3887 135.112 90.548C134.182 91.7731 132.877 92.1895 131.474 91.7724C129.78 91.2661 128.156 90.5169 126.506 89.8668C126.452 89.8477 126.42 89.7741 126.318 89.6537C126.694 89.4087 127.033 89.1297 127.419 88.9484C129.188 88.1171 130.952 87.2765 132.752 86.5196C133.386 86.254 134.11 86.1492 134.803 86.1004C135.205 86.0727 135.627 86.3022 136.039 86.4141C135.969 86.4842 135.897 86.555 135.825 86.6258Z" fill="#FFD94A"/>
<path fill-rule="evenodd" clip-rule="evenodd" d="M139.502 94.255C141.713 93.7388 143.786 93.7431 145.833 94.5801C146.408 94.8137 147.03 94.9504 147.645 95.0694C148.198 95.177 148.635 95.7308 148.446 96.3376C148.312 96.7582 148.08 97.2185 147.752 97.494C146.819 98.2835 145.827 99.0058 144.823 99.704C144.682 99.8024 144.25 99.7026 144.109 99.5503C142.918 98.2679 141.759 96.9558 140.604 95.6415C140.233 95.2202 139.904 94.7621 139.502 94.255Z" fill="#FFD94A"/>
<path fill-rule="evenodd" clip-rule="evenodd" d="M101.533 71.5698C101.166 72.1717 100.761 72.5392 100.047 72.5533C99.6902 72.5618 99.3376 72.7799 98.9835 72.9088C98.8851 72.9449 98.7788 73.0526 98.7002 73.0334C98.0332 72.8713 97.5474 73.3486 96.9816 73.4803C95.2658 73.8825 93.5138 74.2132 91.6295 73.7139C91.9566 73.2261 92.2257 72.7566 92.5628 72.343C92.9318 71.8877 93.118 71.4189 93.0068 70.8284C92.941 70.4686 92.9572 70.1641 93.4586 70.048C93.6887 69.9942 93.8481 69.6302 93.9847 69.4702C96.4675 70.1606 98.9757 70.8588 101.533 71.5698Z" fill="#FFD94A"/>
<path fill-rule="evenodd" clip-rule="evenodd" d="M148.548 109.127C148.287 107.847 148.017 106.571 147.779 105.288C147.759 105.174 147.911 104.946 148.027 104.91C148.213 104.853 148.516 104.826 148.628 104.932C149.318 105.607 149.979 106.314 150.623 107.032C150.697 107.114 150.677 107.401 150.594 107.487C150.027 108.06 149.431 108.602 148.841 109.154C148.744 109.145 148.646 109.136 148.548 109.127Z" fill="#FFD94A"/>
<path fill-rule="evenodd" clip-rule="evenodd" d="M84.6437 66.2737C85.8546 66.3637 85.8334 66.6759 85.6315 67.7162C85.5997 67.8833 85.2442 68.1035 85.0572 68.0879C84.8802 68.0731 84.6076 67.7948 84.5856 67.6064C84.5361 67.1851 84.6147 66.7468 84.6437 66.2737Z" fill="#FFD94A"/>
<path fill-rule="evenodd" clip-rule="evenodd" d="M91.7683 71.6484C90.825 71.9635 90.8102 71.9663 90.9674 72.9513C91.0346 73.3705 90.9603 73.6722 90.5545 73.8768C89.6134 74.3555 89.2006 75.2817 88.7049 76.13C88.6454 76.2299 88.6263 76.4069 88.6744 76.5032C88.9633 77.0747 88.6383 77.4563 88.2403 77.7339C87.239 78.4336 87.1385 79.3477 87.5386 80.5211C87.7149 80.2393 87.853 80.0091 87.9974 79.7839C88.3593 79.2181 88.6093 78.5653 89.3641 78.3443C89.5298 78.2962 89.6269 77.9669 89.7274 77.7538C90.0277 77.1214 90.2543 76.4466 90.6197 75.856C91.0346 75.1868 91.6075 75.1047 92.1606 75.6641C92.7682 76.278 93.2575 77.0081 93.9104 77.8288C92.8885 78.1411 92.0444 78.4166 91.1897 78.6587C89.5631 79.1204 89.5865 79.1155 89.4576 80.8178C89.3245 82.5782 89.8676 84.0638 91.1401 85.2768C92.9615 87.0082 95.0363 88.35 97.4235 89.1509C99.4155 89.8187 100.595 89.2699 101.49 87.3806C101.864 86.5868 102.201 85.7711 102.643 85.0169C103.404 83.7197 104.283 83.447 105.705 83.8995C107.267 84.3945 108.863 84.5028 110.489 84.2897C110.659 84.2663 110.932 84.432 111.02 84.5871C111.078 84.6884 110.94 84.9907 110.804 85.0977C109.883 85.8306 108.926 86.5181 108.011 87.2567C107.75 87.4684 107.585 87.8027 107.384 88.071C109.511 90.7166 114.883 92.472 116.781 91.1329C116.887 91.2172 117.022 91.2937 117.116 91.4042C117.363 91.6987 117.585 91.7143 117.782 91.3723C117.974 91.0416 118.195 90.9241 118.595 91.0621C118.772 91.1244 119.078 91.0083 119.247 90.8738C120.092 90.2074 120.93 89.5312 121.723 88.8075C121.909 88.6375 122.001 88.2637 121.984 87.9917C121.959 87.5605 121.786 87.1399 121.714 86.7079C121.674 86.4714 121.627 86.0734 121.736 86.0083C121.971 85.8716 122.336 85.8022 122.592 85.8837C123.28 86.1011 123.936 86.4204 124.61 86.6845C125.244 86.931 125.889 87.1491 126.519 87.3997C126.791 87.5088 127.043 87.671 127.315 87.8133C126.316 88.4563 125.386 89.0553 124.362 89.7167C125.673 90.7874 126.604 92.1342 128.35 92.3969C129.975 92.6405 131.58 93.0236 133.194 93.3317C133.449 93.3812 133.719 93.3706 133.982 93.3607C134.745 93.3345 134.853 93.2141 134.822 92.4338C135.318 92.5598 135.528 92.3205 135.614 91.8503C135.696 91.4034 136.152 91.2222 136.576 91.4311C136.832 91.5557 137.071 91.7157 137.314 91.8651C138.527 92.6136 138.515 92.6094 137.91 93.8642C137.834 94.0221 137.862 94.3209 137.964 94.4618C138.863 95.6791 139.763 96.8935 140.718 98.0661C141.503 99.0327 142.347 99.9568 143.199 100.868C143.567 101.261 143.997 101.492 144.61 101.24C145.158 101.013 145.374 101.265 145.39 101.868C145.396 102.09 145.527 102.414 145.699 102.507C146.357 102.857 146.541 103.435 146.581 104.092C146.626 104.858 146.677 105.63 146.636 106.394C146.559 107.802 146.703 109.153 147.347 110.428C147.53 110.787 147.627 111.129 147.322 111.528C147.205 111.683 147.313 112.066 147.407 112.311C147.657 112.961 148.108 113.586 147.245 114.157C147.117 114.241 147.082 114.637 147.157 114.824C147.798 116.399 147.339 117.895 146.883 119.393C146.724 119.914 146.55 120.43 146.355 121.037C145.978 120.792 145.609 120.604 145.3 120.345C142.256 117.794 139.201 115.255 136.194 112.66C135.284 111.875 134.554 110.884 133.663 110.077C133.266 109.716 132.669 109.582 132.17 109.329C131.73 109.104 131.168 108.958 130.896 108.599C130.098 107.551 129.019 107.308 127.853 107.43C125.846 107.643 123.855 107.99 121.851 108.23C121.01 108.331 120.153 108.304 119.304 108.321C118.602 108.336 117.9 108.31 117.2 108.343C116.754 108.365 116.374 108.507 116.11 108.957C115.984 109.174 115.613 109.337 115.338 109.362C114.467 109.442 113.587 109.424 112.713 109.496C112.515 109.512 112.338 109.742 112.144 109.861C111.97 109.967 111.779 110.145 111.603 110.137C111.282 110.12 110.966 109.992 110.647 109.904C110.264 109.801 109.954 109.863 109.761 110.25C109.549 110.673 109.251 110.672 108.897 110.42C108.793 110.346 108.623 110.233 108.548 110.271C108.022 110.525 107.419 110.465 106.914 110.632C105.709 111.029 104.56 111.337 103.272 111.04C102.68 110.903 101.98 110.894 101.407 111.077C99.2788 111.756 97.119 111.639 94.9436 111.564C94.0591 111.534 93.1697 111.747 92.2788 111.806C90.9893 111.891 89.6701 112.25 88.4556 111.438C88.2871 111.326 88.0003 111.355 87.7744 111.376C87.5605 111.396 87.2546 111.615 87.1604 111.538C86.2625 110.802 85.2838 111.679 84.3654 111.353C83.6643 111.103 82.9349 110.923 82.2034 110.78C81.8189 110.705 81.404 110.78 81.0046 110.784C80.8566 110.785 80.6533 110.845 80.5669 110.771C79.6988 110.037 78.5735 110.168 77.5836 109.857C77.1643 109.725 76.7019 109.694 76.3195 109.496C75.8946 109.276 75.4591 108.98 75.1752 108.606C74.8395 108.167 74.5201 107.765 73.9565 107.694C72.4304 107.499 71.2457 106.594 70.0199 105.797C67.7114 104.294 65.6571 102.477 63.6665 100.579C63.1772 100.115 62.6149 99.7203 62.0647 99.3237C61.3806 98.8302 60.7568 98.365 60.676 97.3778C60.6463 97.0089 60.1584 96.5465 59.7682 96.361C58.8922 95.9446 58.3491 95.3363 58.0127 94.4342C57.762 93.7601 57.3506 93.1461 57.0029 92.5117C56.6489 91.8673 56.7402 90.9623 57.1863 90.383C57.3924 90.1147 57.5928 89.8102 57.6856 89.4894C58.4079 87.0067 59.0799 84.5092 59.8199 82.0336C60.038 81.3036 60.4565 80.6379 60.7235 79.9206C61.0634 79.0036 61.4968 78.0823 61.6136 77.1299C61.7758 75.8036 62.166 74.6182 62.8946 73.5135C63.0667 73.2522 63.2147 72.8982 63.1913 72.6008C63.0858 71.2136 63.5065 69.9843 64.073 68.7408C64.762 67.229 65.2365 65.6209 65.8993 64.0949C66.5394 62.622 68.1235 61.5088 69.9073 61.9252C72.2371 62.469 74.3665 63.4661 76.5702 64.3222C78.3243 65.0013 80.1421 65.6995 82.0901 65.7469C82.2643 65.7512 82.4414 65.766 82.6113 65.8007C84.0524 66.1066 84.0467 66.108 84.0779 67.5738C84.0913 68.1616 84.0134 68.8874 84.7124 69.0871C85.3936 69.2804 85.8107 68.6792 86.1988 68.2048C86.3333 68.0391 86.4601 67.8316 86.4955 67.6255C86.6159 66.9323 87.0478 66.9316 87.5683 67.1001C89.2551 67.6461 90.9383 68.2055 92.6272 68.7486C93.0415 68.8817 93.1066 69.085 92.8262 69.4114C92.5692 69.7102 92.3369 70.0353 92.0544 70.3093C91.6613 70.686 91.3781 71.0649 91.7683 71.6484ZM80.0479 71.3623C79.9445 71.557 79.8121 71.7135 79.8432 71.7609C80.3155 72.4896 79.6952 72.8592 79.327 73.2629C78.3101 74.3732 77.7903 74.2819 77.1133 72.9145C76.8542 72.3905 76.481 71.8374 77.5234 71.3403C77.1169 71.21 76.8379 71.0373 76.7444 71.1081C76.5971 71.2199 76.5369 71.4912 76.5072 71.7057C76.4633 72.018 76.5277 72.3501 76.4626 72.6574C76.2501 73.6488 77.301 74.808 78.3158 74.6862C79.6393 74.5297 80.7086 72.6638 80.0479 71.3623ZM77.1303 70.1684C77.148 70.2279 77.1657 70.2888 77.1835 70.3497C77.369 70.3044 77.5722 70.293 77.7344 70.2059C78.0403 70.0402 78.3292 69.8391 78.6125 69.6359C79.0189 69.3441 79.3369 69.3633 79.6718 69.7825C79.9565 70.1394 80.3304 70.4283 80.7135 70.7937C80.9989 70.242 81.0386 69.849 80.5797 69.5849C80.0139 69.2585 79.4403 68.8159 78.832 68.7429C78.4914 68.7012 78.0693 69.3017 77.6933 69.6238C77.4943 69.7938 77.3166 69.9864 77.1303 70.1684ZM82.4669 82.2234C83.2331 82.3948 83.3315 82.8345 83.1424 83.4697C83.0568 83.7628 83.1304 84.1035 83.1332 84.5829C83.4044 84.3725 83.522 84.3102 83.5992 84.216C84.0248 83.6949 83.9093 82.8565 83.34 82.0598C83.0008 81.584 82.7466 81.6328 82.4669 82.2234ZM82.2502 84.7443C82.1114 84.2975 81.8982 83.8592 81.855 83.4038C81.8154 82.9988 81.9662 82.5753 82.0384 82.1384C81.0286 82.7637 81.0577 83.6807 82.2502 84.7443Z" fill="#CD9A2B"/>
<path fill-rule="evenodd" clip-rule="evenodd" d="M97.3888 87.9174C95.0732 87.3311 93.545 85.8206 92.0607 84.2451C91.7329 83.8967 91.3788 83.566 91.0014 83.2742C90.5191 82.9025 90.2295 82.4967 90.4894 81.8693C90.5326 81.7681 90.5651 81.6548 90.5609 81.5486C90.5411 81.1308 90.3499 80.6811 90.8165 80.366C91.5693 79.854 92.2101 79.1417 93.2171 79.0949C94.6129 79.0312 96.0086 78.9469 97.4029 78.8683C98.7349 78.794 100.066 78.7026 101.4 78.6417C102.169 78.6056 102.9 79.3307 103.048 80.2421C103.211 81.2575 103.019 82.2531 102.53 83.1121C101.577 84.7854 100.509 86.3928 99.4884 88.0257C99.2696 88.377 98.9792 88.4584 98.5876 88.309C98.1564 88.144 97.7124 88.0208 97.3888 87.9174Z" fill="#CD9A2B"/>
<path fill-rule="evenodd" clip-rule="evenodd" d="M108.718 88.0902C109.596 87.4415 110.274 86.7886 111.078 86.3779C112.848 85.4737 114.646 84.5963 116.501 83.8924C117.547 83.498 118.73 83.469 119.852 83.2728C120.247 83.2034 120.399 83.3989 120.452 83.7692C120.57 84.5949 120.645 85.4347 120.86 86.2363C121.206 87.5293 120.674 88.4244 119.677 89.1091C118.433 89.9624 117.08 90.5997 115.546 90.6875C115.201 90.7081 114.842 90.4482 114.484 90.3392C114.177 90.2464 113.805 90.0361 113.558 90.1331C112.788 90.4347 112.078 90.3519 111.42 89.9398C110.538 89.3874 109.697 88.7664 108.718 88.0902Z" fill="#CD9A2B"/>
<path fill-rule="evenodd" clip-rule="evenodd" d="M135.78 86.7639C135.715 87.0117 135.64 87.2574 135.589 87.5081C135.512 87.8898 135.499 88.292 135.372 88.6545C135.198 89.1424 134.851 89.58 135.281 90.1189C135.346 90.2032 135.189 90.5254 135.067 90.6861C134.137 91.9105 132.833 92.3261 131.431 91.909C129.735 91.4027 128.113 90.6536 126.461 90.0049C126.408 89.9844 126.376 89.9107 126.273 89.7918C126.649 89.5468 126.99 89.2663 127.374 89.0851C129.143 88.2537 130.908 87.4132 132.707 86.6562C133.341 86.3907 134.065 86.2859 134.758 86.237C135.16 86.2108 135.581 86.4374 135.994 86.5507C135.925 86.6215 135.853 86.6916 135.78 86.7639Z" fill="#CD9A2B"/>
<path fill-rule="evenodd" clip-rule="evenodd" d="M139.459 94.3917C141.669 93.8755 143.742 93.8797 145.789 94.7167C146.364 94.9504 146.986 95.0871 147.601 95.2061C148.154 95.3123 148.591 95.8689 148.402 96.4743C148.269 96.8963 148.036 97.3538 147.708 97.6307C146.776 98.4202 145.784 99.1425 144.78 99.8407C144.639 99.9391 144.207 99.8407 144.066 99.6884C142.875 98.4046 141.716 97.0939 140.561 95.7789C140.189 95.3569 139.859 94.8994 139.459 94.3917Z" fill="#CD9A2B"/>
<path fill-rule="evenodd" clip-rule="evenodd" d="M101.489 71.7078C101.123 72.3083 100.717 72.6758 100.003 72.69C99.6463 72.6971 99.2937 72.9166 98.9396 73.0455C98.8405 73.0816 98.7342 73.1892 98.6556 73.1715C97.9893 73.0087 97.5042 73.4852 96.9391 73.6183C95.2219 74.0191 93.4699 74.3512 91.5849 73.8506C91.9127 73.3634 92.1825 72.8932 92.5189 72.4797C92.8878 72.0244 93.0734 71.5556 92.9629 70.965C92.8971 70.6053 92.9119 70.3008 93.4147 70.1847C93.6448 70.1323 93.8042 69.7683 93.9408 69.6083C96.4229 70.2987 98.9311 70.9955 101.489 71.7078Z" fill="#CD9A2B"/>
<path fill-rule="evenodd" clip-rule="evenodd" d="M148.504 109.265C148.242 107.985 147.973 106.708 147.733 105.424C147.714 105.311 147.866 105.084 147.982 105.047C148.168 104.99 148.472 104.962 148.583 105.07C149.273 105.744 149.934 106.45 150.578 107.168C150.653 107.251 150.632 107.539 150.549 107.624C149.982 108.195 149.385 108.74 148.797 109.291C148.7 109.281 148.602 109.274 148.504 109.265Z" fill="#CD9A2B"/>
<path fill-rule="evenodd" clip-rule="evenodd" d="M84.5998 66.4125C85.81 66.501 85.7895 66.8133 85.5876 67.855C85.5558 68.0207 85.2017 68.2409 85.0133 68.2253C84.8363 68.2112 84.5637 67.9322 84.5417 67.7438C84.4922 67.3225 84.5708 66.8856 84.5998 66.4125Z" fill="#CD9A2B"/>
<path fill-rule="evenodd" clip-rule="evenodd" d="M80.0925 71.2242C80.7532 72.5257 79.6832 74.3916 78.3604 74.5488C77.3456 74.6706 76.294 73.5128 76.5058 72.5186C76.5716 72.2127 76.5079 71.8813 76.5525 71.5669C76.5808 71.3538 76.641 71.0826 76.7883 70.9707C76.8825 70.8985 77.1615 71.0734 77.568 71.2044C76.5263 71.6979 76.8995 72.2524 77.158 72.7771C77.8342 74.1452 78.3547 74.2365 79.3716 73.1241C79.7398 72.7219 80.3602 72.3508 79.8878 71.6236C79.856 71.5754 79.9884 71.4204 80.0925 71.2242Z" fill="#FFD94A"/>
<path fill-rule="evenodd" clip-rule="evenodd" d="M77.175 70.0317C77.3619 69.849 77.5389 69.6571 77.7372 69.4879C78.1132 69.1643 78.5353 68.5652 78.8759 68.6056C79.4849 68.6792 80.0585 69.1204 80.6236 69.4468C81.0832 69.7109 81.0442 70.1054 80.7574 70.657C80.3729 70.2902 80.0011 70.0041 79.715 69.6444C79.3815 69.2252 79.0629 69.2061 78.6564 69.4992C78.3731 69.7024 78.0842 69.9014 77.7776 70.0678C77.6154 70.1549 77.4122 70.1677 77.2274 70.213C77.2097 70.1521 77.1927 70.0926 77.175 70.0317Z" fill="#FFD94A"/>
<path fill-rule="evenodd" clip-rule="evenodd" d="M82.5115 82.0853C82.7905 81.4947 83.0461 81.448 83.3846 81.9225C83.954 82.7191 84.0694 83.5575 83.6431 84.0801C83.5659 84.1743 83.4491 84.2352 83.1778 84.4469C83.175 83.9668 83.1014 83.6255 83.1878 83.3337C83.3747 82.6964 83.2763 82.2567 82.5115 82.0853Z" fill="#FFD94A"/>
<path fill-rule="evenodd" clip-rule="evenodd" d="M82.2941 84.6076C81.1016 83.544 81.0711 82.627 82.0824 82.0003C82.0101 82.4387 81.8607 82.8607 81.8982 83.2672C81.9421 83.7211 82.1553 84.1608 82.2941 84.6076Z" fill="#FFD94A"/>
<path d="M59.0395 157.159C59.5246 157.421 60.1343 157.797 60.8502 158.354C61.729 159.038 62.2141 159.743 62.3366 160.429C62.4605 161.051 62.2956 161.727 61.8183 162.34C61.3332 162.963 60.7674 163.311 60.1414 163.398C59.2817 163.532 58.3158 163.193 57.4469 162.516C57.1814 162.309 56.9441 162.108 56.7792 161.898L54.6321 164.658L53.7427 163.966L59.0395 157.159ZM57.3442 161.173C57.4986 161.375 57.7281 161.586 58.0241 161.817C59.0976 162.652 60.157 162.639 60.897 161.688C61.6051 160.779 61.3027 159.839 60.3213 159.076C59.9325 158.773 59.6124 158.573 59.4276 158.495L57.3442 161.173Z" fill="#CD9A2B"/>
<path d="M61.3353 166.254L59.0381 168.01L58.075 167.352L65.4482 161.815L66.5713 162.582L64.1084 171.473L63.1134 170.793L63.8917 167.999L61.3353 166.254ZM64.1962 167.14L64.9072 164.583C65.0679 164.003 65.2534 163.503 65.4312 163.012L65.4099 162.997C65.0106 163.352 64.5935 163.71 64.1551 164.054L62.0243 165.657L64.1962 167.14Z" fill="#CD9A2B"/>
<path d="M66.0678 171.046C66.344 171.57 66.8482 172.17 67.5166 172.565C68.5088 173.153 69.3989 172.972 69.8478 172.214C70.2635 171.511 70.0999 170.872 69.3167 169.881C68.3473 168.72 67.9656 167.636 68.593 166.577C69.2863 165.406 70.7713 165.11 72.2322 165.975C73.0012 166.431 73.4537 166.938 73.676 167.326L72.9396 167.96C72.7739 167.681 72.4035 167.161 71.7237 166.758C70.6976 166.151 69.9442 166.533 69.6411 167.046C69.2254 167.748 69.4775 168.365 70.277 169.38C71.2578 170.623 71.5417 171.619 70.8881 172.724C70.2012 173.884 68.7488 174.379 66.9756 173.329C66.2505 172.899 65.5841 172.219 65.3412 171.714L66.0678 171.046Z" fill="#CD9A2B"/>
<path d="M71.8087 174.38C72.1167 174.887 72.6556 175.455 73.3468 175.81C74.3729 176.336 75.2502 176.101 75.6525 175.318C76.0249 174.591 75.8224 173.964 74.9804 173.022C73.9423 171.922 73.4955 170.863 74.057 169.768C74.6774 168.557 76.1418 168.172 77.6522 168.947C78.4482 169.355 78.9297 169.835 79.1755 170.208L78.4794 170.884C78.2967 170.616 77.8958 170.119 77.1927 169.759C76.1319 169.214 75.4032 169.642 75.1313 170.172C74.7588 170.898 75.0484 171.499 75.9074 172.463C76.9618 173.644 77.3053 174.621 76.7203 175.762C76.1057 176.961 74.6859 177.544 72.8532 176.604C72.1033 176.219 71.3973 175.581 71.1246 175.091L71.8087 174.38Z" fill="#CD9A2B"/>
<path d="M80.9918 180.296L81.9521 171.339L83.0695 171.754L82.5051 176.256C82.3699 177.365 82.2098 178.467 82.0625 179.311L82.0866 179.32C82.5221 178.556 83.1375 177.679 83.8088 176.725L86.4339 173.002L87.5393 173.412L86.994 177.935C86.8644 178.992 86.7228 180.044 86.5238 180.952L86.5479 180.961C87.0514 180.126 87.62 179.301 88.2538 178.375L90.8668 174.647L91.9474 175.048L86.5911 182.373L85.4857 181.963L86.0352 177.317C86.1676 176.178 86.2951 175.313 86.4919 174.447L86.4679 174.437C86.0203 175.197 85.5402 175.931 84.8448 176.875L82.0972 180.705L80.9918 180.296Z" fill="#CD9A2B"/>
<path d="M93.8622 175.391L91.5757 183.816L90.488 183.522L92.7745 175.096L93.8622 175.391Z" fill="#CD9A2B"/>
<path d="M96.9667 177.106L94.3615 176.59L94.5477 175.65L100.888 176.906L100.702 177.846L98.0849 177.328L96.5737 184.952L95.4556 184.731L96.9667 177.106Z" fill="#CD9A2B"/>
<path d="M102.589 177.077L102.324 180.721L106.537 181.028L106.801 177.384L107.939 177.467L107.305 186.177L106.168 186.094L106.465 182.01L102.252 181.703L101.955 185.787L100.83 185.706L101.464 176.996L102.589 177.077Z" fill="#CD9A2B"/>
<path d="M119.146 184.859C118.763 185.12 117.97 185.438 116.918 185.582C114.479 185.917 112.432 184.629 112.042 181.791C111.671 179.083 113.255 176.996 115.938 176.628C117.016 176.48 117.728 176.617 118.044 176.731L117.9 177.68C117.448 177.533 116.824 177.461 116.105 177.56C114.077 177.839 112.907 179.319 113.218 181.591C113.51 183.709 114.915 184.903 117.02 184.614C117.701 184.52 118.374 184.284 118.794 184.005L119.146 184.859Z" fill="#CD9A2B"/>
<path d="M126.983 178.199C127.89 181.064 126.629 183.135 124.506 183.807C122.307 184.503 120.223 183.288 119.425 180.769C118.588 178.126 119.683 175.877 121.906 175.173C124.179 174.453 126.199 175.729 126.983 178.199ZM120.565 180.381C121.129 182.159 122.597 183.448 124.289 182.911C125.993 182.371 126.46 180.498 125.862 178.609C125.338 176.953 123.926 175.498 122.135 176.065C120.356 176.629 119.987 178.552 120.565 180.381Z" fill="#CD9A2B"/>
<path d="M130.39 181.543L126.603 173.678L127.711 173.144L132.148 175.91C133.176 176.55 134.03 177.16 134.791 177.785L134.808 177.762C134.209 176.757 133.725 175.811 133.135 174.586L131.551 171.295L132.508 170.835L136.295 178.7L135.268 179.195L130.85 176.406C129.88 175.795 128.922 175.15 128.116 174.488L128.086 174.517C128.622 175.48 129.101 176.415 129.729 177.722L131.348 181.082L130.39 181.543Z" fill="#CD9A2B"/>
<path d="M133.866 170.007L137.852 167.508L138.354 168.31L135.324 170.21L136.866 172.669L139.665 170.914L140.161 171.704L137.362 173.46L139.461 176.808L138.506 177.407L133.866 170.007Z" fill="#CD9A2B"/>
<path d="M139.867 166.017L145.001 173.082L144.09 173.745L138.955 166.681L139.867 166.017Z" fill="#CD9A2B"/>
<path d="M141.35 165.134C141.804 164.608 142.372 164.017 143.05 163.435C144.28 162.381 145.399 161.915 146.444 161.958C147.497 161.992 148.5 162.464 149.42 163.536C150.348 164.617 150.773 165.789 150.677 166.931C150.589 168.081 149.853 169.294 148.565 170.399C147.956 170.922 147.419 171.331 146.944 171.653L141.35 165.134ZM147.235 170.261C147.485 170.114 147.808 169.854 148.142 169.568C149.971 167.998 150.086 166.123 148.55 164.333C147.218 162.761 145.481 162.528 143.671 164.08C143.229 164.461 142.928 164.786 142.744 165.03L147.235 170.261Z" fill="#CD9A2B"/>
<path d="M153.97 159.475L151.62 161.924L153.891 164.103L156.51 161.374L157.192 162.029L153.793 165.572L147.494 159.527L150.758 156.125L151.44 156.78L148.956 159.368L150.947 161.278L153.297 158.83L153.97 159.475Z" fill="#CD9A2B"/>
<path d="M158.489 160.584L151.68 155.114L152.451 154.155L157.649 154.74C158.852 154.876 159.886 155.058 160.844 155.294L160.849 155.267C159.876 154.616 159.031 153.971 157.97 153.12L155.121 150.832L155.787 150.003L162.596 155.473L161.882 156.362L156.69 155.749C155.551 155.616 154.407 155.444 153.395 155.196L153.38 155.235C154.279 155.873 155.113 156.511 156.246 157.42L159.155 159.757L158.489 160.584Z" fill="#CD9A2B"/>
<path d="M167.165 148.243C167.108 148.704 166.82 149.509 166.231 150.393C164.866 152.442 162.545 153.122 160.162 151.533C157.886 150.017 157.372 147.447 158.874 145.194C159.478 144.289 160.052 143.846 160.347 143.685L160.961 144.421C160.552 144.662 160.085 145.082 159.682 145.686C158.546 147.389 158.881 149.248 160.79 150.519C162.569 151.705 164.395 151.443 165.573 149.674C165.954 149.102 166.223 148.442 166.292 147.942L167.165 148.243Z" fill="#CD9A2B"/>
<path d="M166.975 140.888L165.305 143.844L168.046 145.393L169.908 142.1L170.731 142.565L168.315 146.841L160.712 142.544L163.032 138.437L163.855 138.903L162.09 142.028L164.493 143.385L166.163 140.43L166.975 140.888Z" fill="#CD9A2B"/>
<path d="M70.8654 12.8412C71.3321 12.5474 71.9595 12.2004 72.7958 11.8506C73.824 11.4207 74.6766 11.3443 75.3345 11.5744C75.9371 11.772 76.4449 12.2471 76.7451 12.9644C77.0503 13.6931 77.0751 14.3566 76.8443 14.9451C76.5398 15.7608 75.7686 16.4349 74.7524 16.8598C74.4423 16.9901 74.1498 17.0977 73.8857 17.1388L75.2368 20.3657L74.1972 20.8005L70.8654 12.8412ZM73.5309 16.2898C73.783 16.2544 74.0797 16.1581 74.4267 16.0129C75.6815 15.4875 76.1914 14.5577 75.7254 13.4467C75.28 12.3831 74.312 12.1841 73.1648 12.6649C72.7101 12.8554 72.3794 13.036 72.2201 13.1585L73.5309 16.2898Z" fill="#CD9A2B"/>
<path d="M79.9027 15.5887L79.8701 18.4814L78.7584 18.8347L78.9432 9.61292L80.2398 9.2008L85.7243 16.6226L84.5757 16.9873L82.8549 14.6512L79.9027 15.5887ZM82.3656 13.8822L80.7893 11.7451C80.4317 11.2607 80.1513 10.8061 79.8744 10.3635L79.8496 10.3713C79.8829 10.9045 79.9077 11.454 79.9084 12.0113L79.8581 14.6788L82.3656 13.8822Z" fill="#CD9A2B"/>
<path d="M85.0155 7.97575C85.5494 7.74561 86.3354 7.51618 87.0967 7.35757C88.2764 7.11256 89.0823 7.16991 89.7154 7.54097C90.2259 7.832 90.5878 8.36522 90.7252 9.02518C90.9596 10.1539 90.4051 11.0504 89.5674 11.5418L89.5752 11.5801C90.2826 11.6714 90.8017 12.1983 91.1897 13.0438C91.7166 14.1782 92.0905 14.9606 92.3369 15.2538L91.1954 15.491C91.0056 15.2793 90.6629 14.5832 90.2005 13.5678C89.7012 12.4404 89.1524 12.092 88.1426 12.262L87.1023 12.478L87.8721 16.1821L86.7681 16.4116L85.0155 7.97575ZM86.9281 11.641L88.0576 11.4059C89.2374 11.1609 89.8513 10.3586 89.6481 9.38137C89.4187 8.27812 88.5193 7.9623 87.3495 8.19173C86.817 8.3022 86.4466 8.43178 86.2795 8.51959L86.9281 11.641Z" fill="#CD9A2B"/>
<path d="M94.5796 12.2096L93.9692 15.0364L92.8099 15.1596L94.8345 6.16439L96.1864 6.02065L100.074 14.3856L98.8766 14.5131L97.6579 11.8817L94.5796 12.2096ZM97.3328 11.0306L96.2168 8.62227C95.9626 8.07631 95.7792 7.57497 95.5972 7.08636L95.571 7.0892C95.4973 7.61816 95.4116 8.16129 95.3005 8.70725L94.7184 11.3089L97.3328 11.0306Z" fill="#CD9A2B"/>
<path d="M101.176 14.3842L101.03 5.65242L102.261 5.63189L105.133 10.0031C105.798 11.0157 106.318 11.9271 106.748 12.8143L106.774 12.8009C106.651 11.6367 106.607 10.5746 106.584 9.21497L106.523 5.56179L107.585 5.54408L107.73 14.2759L106.591 14.295L103.744 9.91105C103.119 8.94942 102.52 7.9616 102.063 7.02334L102.024 7.0368C102.107 8.13721 102.151 9.18594 102.175 10.6369L102.237 14.3679L101.176 14.3842Z" fill="#CD9A2B"/>
<path d="M117.321 10.7204C117.007 13.7108 115.024 15.1058 112.806 14.8736C110.512 14.6335 109.086 12.6855 109.363 10.0562C109.652 7.29739 111.555 5.67226 113.875 5.91585C116.246 6.1644 117.591 8.14289 117.321 10.7204ZM110.564 10.1561C110.37 12.0128 111.2 13.7809 112.967 13.9657C114.746 14.152 115.923 12.6203 116.13 10.6482C116.311 8.92111 115.597 7.02123 113.728 6.82578C111.872 6.63105 110.763 8.24839 110.564 10.1561Z" fill="#CD9A2B"/>
<path d="M120.878 7.12035L119.232 15.6992L118.125 15.4868L119.771 6.90791L120.878 7.12035Z" fill="#CD9A2B"/>
<path d="M123.094 13.742L121.48 16.1439L120.357 15.8295L125.567 8.21722L126.878 8.58332L127.396 17.7974L126.235 17.473L126.076 14.5761L123.094 13.742ZM126.09 13.6648L125.943 11.0129C125.91 10.4117 125.925 9.87705 125.935 9.35588L125.91 9.3488C125.646 9.81332 125.365 10.2863 125.061 10.753L123.557 12.956L126.09 13.6648Z" fill="#CD9A2B"/>
</svg>
