<svg width="22" height="21" viewBox="0 0 22 21" fill="none" xmlns="http://www.w3.org/2000/svg">
<path d="M21.9955 10.0283C21.9955 8.36081 20.6222 6.99932 18.9302 6.99932H14.1909V3.62443C14.1909 2.19643 13.7691 1.16755 12.9343 0.564418C11.6149 -0.393499 9.80171 0.151982 9.72542 0.17859C9.49653 0.249547 9.33945 0.457983 9.33945 0.697463V4.48922C9.33945 7.47385 5.83435 8.48942 5.68625 8.53376C5.64137 8.54707 5.60098 8.56037 5.56508 8.58255C5.30477 8.06811 4.76622 7.71332 4.14688 7.71332H1.57976C0.709098 7.71332 0 8.41402 0 9.27438V18.4943C0 19.3547 0.709098 20.0554 1.57976 20.0554H3.06528C3.37046 20.0554 3.6173 19.8115 3.6173 19.5099C3.6173 19.2083 3.36597 18.9689 3.06528 18.9689H1.57976C1.31497 18.9689 1.09955 18.756 1.09955 18.4943V9.27438C1.09955 9.01272 1.31497 8.79985 1.57976 8.79985H4.15137C4.41616 8.79985 4.63158 9.01272 4.63158 9.27438V17.971C4.63158 19.6385 6.0049 21 7.69686 21H17.0857C19.1681 21 20.492 19.9223 20.7254 18.0597L21.991 10.2101C21.9955 10.1835 22 10.1525 22 10.1259V10.0283H21.9955ZM20.896 10.0771L19.6348 17.9045C19.4688 19.2349 18.6116 19.9135 17.0857 19.9135H16.7356H7.69686C6.61526 19.9135 5.73113 19.0443 5.73113 17.971V9.58481C5.81191 9.60255 5.89718 9.59812 5.98246 9.57594C6.16646 9.52716 10.439 8.30315 10.439 4.48479V1.13207C10.9058 1.06112 11.7046 1.0212 12.2836 1.43807C12.8176 1.82834 13.0914 2.56008 13.0914 3.62443V7.5448C13.0914 7.84637 13.3382 8.09028 13.6434 8.09028H18.9347C20.0163 8.09028 20.9004 8.9595 20.9004 10.0327V10.0771H20.896Z" fill="#337AB7"/>
</svg>
