<svg width="18" height="21" viewBox="0 0 18 21" fill="none" xmlns="http://www.w3.org/2000/svg">
<path d="M15.3051 12.4576C15.0915 12.4576 14.9492 12.2796 14.9492 12.1017L15.3051 2.84743H1.77967L1.85086 4.98303C1.85086 5.1966 1.7085 5.33897 1.49493 5.33897C1.28135 5.33897 1.13898 5.19657 1.13898 4.98303L1.06778 2.49147C1.06778 2.38473 1.10338 2.31352 1.17454 2.24229C1.24575 2.1711 1.31691 2.13556 1.42372 2.13556H15.661C15.7678 2.13556 15.839 2.17114 15.9102 2.24229C15.9814 2.31352 16.0169 2.42027 16.0169 2.49147L15.661 12.1017C15.661 12.3152 15.483 12.4576 15.3051 12.4576Z" fill="#1A1A1A"/>
<path d="M13.561 21H3.52372C2.17119 21 1.77965 19.8254 1.77965 19.2203L1.24576 7.11862C1.24576 6.90504 1.38812 6.7627 1.60169 6.7627C1.81527 6.7627 1.95763 6.90507 1.95763 7.11862L2.49153 19.2203C2.49153 19.3271 2.56274 20.2882 3.52372 20.2882H13.5966C14.5932 20.2882 14.6288 19.3271 14.6288 19.2203L14.8424 14.9491C14.8424 14.7355 15.0203 14.5932 15.1983 14.5932C15.4119 14.5932 15.5542 14.7712 15.5542 14.9491L15.305 19.2203C15.3051 19.8254 14.9136 21 13.561 21Z" fill="#1A1A1A"/>
<path d="M11.3898 2.84744C11.1763 2.84744 11.0339 2.66948 11.0339 2.49151C11.0339 2.20681 10.9627 1.35255 10.5712 0.961028C10.4288 0.783067 10.2153 0.711857 9.9661 0.711857H6.40677C6.1576 0.711857 5.94407 0.783067 5.8017 0.961028C5.41013 1.35258 5.33898 2.20681 5.33898 2.49151C5.33898 2.70509 5.19662 2.84744 4.98306 2.84744C4.8051 2.84744 4.62714 2.70508 4.62714 2.49151C4.62714 2.42031 4.59154 1.13899 5.30338 0.462715C5.58815 0.142333 5.94412 0 6.40679 0H9.96612C10.4288 0 10.7848 0.142363 11.0695 0.4627C11.7814 1.17456 11.7458 2.45597 11.7458 2.49151C11.7458 2.70508 11.5678 2.84744 11.3898 2.84744Z" fill="#1A1A1A"/>
<path d="M8.54235 18.1526C8.32878 18.1526 8.18642 18.0102 8.18642 17.7967V6.05088C8.18642 5.83731 8.32879 5.69495 8.54235 5.69495C8.75591 5.69495 8.89829 5.83732 8.89829 6.05088V17.7967C8.89829 18.0102 8.75591 18.1526 8.54235 18.1526Z" fill="#1A1A1A"/>
<path d="M4.98304 18.1526C4.76945 18.1526 4.62712 18.0102 4.62712 17.7967V6.05088C4.62712 5.83731 4.76948 5.69495 4.98304 5.69495C5.19663 5.69495 5.33896 5.83732 5.33896 6.05088V17.7967C5.33896 18.0102 5.19662 18.1526 4.98304 18.1526Z" fill="#1A1A1A"/>
<path d="M12.1017 18.1526C11.8881 18.1526 11.7458 18.0102 11.7458 17.7967V6.05088C11.7458 5.83731 11.8882 5.69495 12.1017 5.69495C12.3153 5.69495 12.4576 5.83732 12.4576 6.05088V17.7967C12.4577 18.0102 12.3152 18.1526 12.1017 18.1526Z" fill="#1A1A1A"/>
<path d="M16.7288 2.84746H0.355936C0.142363 2.84746 0 2.7051 0 2.49153C0 2.27795 0.142363 2.13562 0.355936 2.13562H16.7288C16.9424 2.13562 17.0847 2.27798 17.0847 2.49153C17.0847 2.7051 16.9424 2.84746 16.7288 2.84746Z" fill="#1A1A1A"/>
<path d="M1.92203 6.05088C1.92203 6.26446 1.77967 6.40682 1.5661 6.40682C1.35252 6.40682 1.21016 6.26443 1.21016 6.05088C1.21016 5.83731 1.35252 5.69495 1.5661 5.69495C1.77967 5.69495 1.92203 5.83735 1.92203 6.05088Z" fill="#1A1A1A"/>
<path d="M15.661 13.5254C15.661 13.739 15.5186 13.8814 15.3051 13.8814C15.0915 13.8814 14.9491 13.739 14.9491 13.5254C14.9491 13.3118 15.0915 13.1695 15.3051 13.1695C15.5186 13.1695 15.661 13.3119 15.661 13.5254Z" fill="#1A1A1A"/>
</svg>
